<svg xmlns="http://www.w3.org/2000/svg" xmlns:xlink="http://www.w3.org/1999/xlink" width="207.03" height="160.42"><defs><filter id="A" x="-.12" width="1.24" y="-.12" height="1.24" color-interpolation-filters="sRGB"><feGaussianBlur stdDeviation=".334"/></filter><linearGradient id="B" x1="-396.275" y1="101.388" x2="-506.275" y2="-3.612" xlink:href="#P"><stop offset="0"/><stop offset="1" stop-opacity="0"/></linearGradient><linearGradient id="C" x1="-596.275" y1="21.388" x2="-566.275" y2="-8.612" xlink:href="#P"><stop offset="0" stop-color="#fff"/><stop offset="1" stop-color="#fff" stop-opacity="0"/></linearGradient><linearGradient id="D" x1="-611.275" y1="-73.612" x2="-566.275" y2="-8.612" xlink:href="#P"><stop offset="0"/><stop offset="1" stop-opacity="0"/></linearGradient><linearGradient id="E" x1="-636.275" y1="-13.612" x2="-566.275" y2="-93.612" xlink:href="#P"><stop offset="0" stop-color="#fff"/><stop offset="1" stop-color="#fff" stop-opacity="0"/></linearGradient><linearGradient id="F" x1="-436.275" y1="71.388" x2="-486.275" y2="16.388" xlink:href="#P"><stop offset="0"/><stop offset="1" stop-opacity="0"/></linearGradient><linearGradient id="G" x1="-445.9" y1="56.388" x2="-475.9" y2="26.388" xlink:href="#P"><stop offset="0" stop-color="#fff"/><stop offset="1" stop-color="#fff" stop-opacity="0"/></linearGradient><linearGradient id="H" x1="-506.275" y1="-3.612" x2="-486.275" y2="16.388" xlink:href="#P"><stop offset="0" stop-color="#fff"/><stop offset="1" stop-color="#fff" stop-opacity="0"/></linearGradient><linearGradient id="I" x1="-546.275" y1="-43.612" x2="-456.275" y2="41.388" xlink:href="#P"><stop offset="0"/><stop offset="1" stop-opacity="0"/></linearGradient><linearGradient id="J" x1="-586.275" y1="31.388" x2="-526.275" y2="31.388" xlink:href="#P"><stop offset="0"/><stop offset="1" stop-opacity="0"/></linearGradient><linearGradient id="K" x1="-712.268" y1="-96.949" x2="-451.836" y2="38.475" xlink:href="#P"><stop offset="0" stop-color="#fff"/><stop offset="1" stop-color="#fff" stop-opacity="0"/></linearGradient><path id="L" d="M-512.78 14.378a3.83 3.83 0 0 0-2.674 1.108 3.83 3.83 0 0 0-1.107 2.674 3.84 3.84 0 0 0 1.374 2.914c-.563-.672-.48-1.62-.482-2.498 0-1 .303-1.602 1.003-2.303s1.327-.96 2.317-.96c.87.001 1.796-.133 2.467.422a3.84 3.84 0 0 0-2.898-1.358z"/><path id="M" d="M-512.78 21.94a3.83 3.83 0 0 0 2.674-1.108 3.83 3.83 0 0 0 1.107-2.674 3.84 3.84 0 0 0-1.374-2.914c.563.673.436 1.397.437 2.275 0 1-.422 1.796-1.122 2.496s-1.52 1.063-2.5 1.063c-.87 0-1.44.06-2.1-.496a3.84 3.84 0 0 0 2.898 1.358z"/><path id="N" d="M-484.44 47.684a3.83 3.83 0 0 0 3.781-3.782 3.84 3.84 0 0 0-1.374-2.914c.563.673.436 1.397.437 2.275 0 1-.422 1.796-1.122 2.496s-1.52 1.063-2.5 1.063c-.87 0-1.44.06-2.1-.496a3.84 3.84 0 0 0 2.898 1.358z"/><path id="O" d="M968.197 99.426c1.8-1.33 3.7-2.7 5.893-3.168.82-.124 1.652-.127 2.48-.133.674-.05 1.143.166 1.7.517l1.787 1.263 1.52 1.164c.693.36 1.44.612 2.194.815.672.197 1.374.56 2.075.336 1.205-.996.216-.16-3.255 1.8-.06.035.124-.07.18-.1.194-.15.326-.343.453-.55l.43-1 3.865-1.736c-.172.317-.38.608-.435.977-.702 1.78-2.877 2.752-4.627 3.137-.75 0-1.444-.28-2.152-.5-.786-.237-1.586-.48-2.3-.915-.53-.37-1-.814-1.526-1.2-.567-.45-1.165-.84-1.783-1.214-.474-.287-.98-.368-1.534-.332-.8.01-1.625.02-2.416.207-.354.1-.437.112-.777.263l-.37.186 2.527-1.423-3.928 1.586z"/><linearGradient id="P" gradientUnits="userSpaceOnUse"/></defs><g transform="matrix(1.312271 0 0 1.312271 -1301.3738 -50.70354)"><path d="M984.452 38.638v.078h-.174l.174.166V87.18l31.857 30.676v-48.54l-.055-.053h.086v48.87h14.687l30.883 29.822h.166a45.979 45.979 0 0 0 77.881-33.041 45.979 45.979 0 0 0-15.861-34.703h.088l-10.87-10.947h.06l-17.627-16.23c-8.556-9.02-20.897-14.326-33.328-14.334-.518.01-1.035.028-1.553.055l-.057-.037h-76.273l-.082-.078z" fill="red"/><g transform="translate(1580.635 98.087)"><path d="M-484.44-20.504a38.665 38.665 0 0 0 0 77.328 38.665 38.665 0 1 0 0-77.328zm0 7.684a3.782 3.782 0 0 1 3.781 3.781 3.782 3.782 0 0 1-3.781 3.781 3.782 3.782 0 0 1-3.781-3.781 3.782 3.782 0 0 1 3.781-3.781zm0 15.57a15.409 15.409 0 1 1 0 30.82 15.409 15.409 0 1 1 0-30.82zm-28.338 11.63a3.782 3.782 0 1 1-3.783 3.781 3.782 3.782 0 0 1 3.783-3.781zm54.215 0a3.782 3.782 0 0 1 3.781 3.781 3.782 3.782 0 0 1-3.781 3.781 3.782 3.782 0 0 1-3.781-3.781 3.782 3.782 0 0 1 3.781-3.781zm-25.877 25.74a3.782 3.782 0 0 1 0 7.564 3.782 3.782 0 0 1 0-7.564z" fill="url(#B)"/><path d="M-595.478-10.755L-563.9 19.8h.05v-30.545h-31.62z" fill="url(#C)"/><path d="M-595.636-58.98v48.658l4.23 3.88-4.07-3.938h31.62v29.227l.082.076v-47.74h-.172l-28.785-27.5-2.902-2.664z" fill="url(#D)"/><path d="M-517.783-59.38l-1.553.055-.057-.037h-76.53l31.973 30.545h97.12l-17.627-16.23c-8.556-9.02-20.897-14.326-33.328-14.334z" fill="url(#E)"/><circle r="15.409" cy="18.159" cx="-484.441" fill="url(#F)"/><path d="M-458.26-10.243a39.09 39.09 0 0 1 10.484 26.402c0 10.123-4.167 20.183-11.325 27.34s-17.218 11.324-27.34 11.324a39.09 39.09 0 0 1-26.186-10.268c7.194 7.7 17.648 12.25 28.186 12.268 10.123 0 20.183-4.166 27.34-11.324s11.325-17.218 11.325-27.34c-.014-10.64-4.654-21.197-12.484-28.402z" fill="url(#G)"/><path d="M-485.816 1.375a15.6 15.6 0 0 0-10.896 4.514 15.6 15.6 0 0 0-4.513 10.896c.002 4.52 2.112 8.997 5.598 11.875a15.56 15.56 0 0 1-3.598-9.875 15.6 15.6 0 0 1 4.513-10.896 15.6 15.6 0 0 1 10.896-4.514 15.55 15.55 0 0 1 9.81 3.535 15.64 15.64 0 0 0-11.811-5.535z" fill="url(#H)"/><path d="M-511.395 46.32a39.09 39.09 0 0 1-10.484-26.402c0-10.123 4.167-20.183 11.325-27.34s17.218-11.324 27.34-11.324a39.09 39.09 0 0 1 26.186 10.268c-7.194-7.7-17.648-12.25-28.186-12.268-10.123 0-20.183 4.166-27.34 11.324S-523.88 7.796-523.88 17.92c.014 10.64 4.654 21.197 12.484 28.402z" fill="url(#I)"/><use xlink:href="#L" filter="url(#A)"/><use xlink:href="#M" fill="#fff" filter="url(#o)"/><path d="M-549.172 20.052l30.883 29.822h.168a46.47 46.47 0 0 1-13.965-29.822z" fill="url(#J)"/><use xlink:href="#L" x="28.34" y="-27.198" filter="url(#A)"/><use xlink:href="#M" x="28.34" y="-27.198" fill="#fff" filter="url(#o)"/><use xlink:href="#L" x="54.216" filter="url(#A)"/><use xlink:href="#M" x="54.217" fill="#fff" filter="url(#o)"/><path d="M-484.44 40.12a3.83 3.83 0 0 0-3.781 3.782 3.84 3.84 0 0 0 1.374 2.914c-.563-.672-.48-1.62-.482-2.498 0-1 .303-1.602 1.003-2.303s1.327-.96 2.317-.96c.87.001 1.796-.133 2.467.422a3.84 3.84 0 0 0-2.898-1.358z" filter="url(#A)"/><use xlink:href="#N" fill="#fff" filter="url(#o)"/><path d="M-486.22-29.146a45.979 45.979 0 0 0-4.184.229h-73.455v48.97h31.773a45.979 45.979 0 0 0 91.844-3.219 45.979 45.979 0 0 0-15.861-34.703h.088l-10.87-10.947h-.793v-.1h-14a45.979 45.979 0 0 0-4.551-.229zm-.2 8.814a37.164 37.164 0 0 1 0 74.328 37.164 37.164 0 0 1 0-74.328z" fill="url(#K)"/></g><g fill="#fff"><use xlink:href="#O" x="14.435" y="-11.176"/><use xlink:href="#O" x="14.435" y="-19.626"/><use xlink:href="#O" x="14.435" y="-28.096"/><use xlink:href="#O" x="14.435" y="-36.556"/><use xlink:href="#O" x="14.435" y="-45.026"/></g></g></svg>