<svg xmlns="http://www.w3.org/2000/svg" xmlns:xlink="http://www.w3.org/1999/xlink" width="710.003" height="355"><defs><linearGradient id="A" xlink:href="#j"><stop offset="0" stop-color="gray"/><stop offset=".5" stop-color="#ececec"/><stop offset=".75" stop-color="#b6b6b6"/><stop offset="1" stop-color="gray"/></linearGradient><radialGradient id="B" gradientTransform="matrix(8.3458899e-7,-0.4999997,0.8888889,1.2620715e-7,219.23328,414.36204)" cx="404" cy="203.362" fx="404" fy="203.362" r="40" xlink:href="#j"><stop offset="0" stop-color="#fff"/><stop offset=".897" stop-color="#fff"/><stop offset="1" stop-color="gray" stop-opacity="0"/></radialGradient><mask maskUnits="userSpaceOnUse" id="C"><path d="m 440,212.36218 a 40,20 0 1 1 -80,0 40,20 0 1 1 80,0 z" transform="matrix(1.125 0 0 1 -55 -20)" opacity="1" fill="url(#B)" fill-opacity="1" fill-rule="nonzero" stroke="none"/></mask><linearGradient id="D" xlink:href="#j"><stop offset="0" stop-color="gray"/><stop offset=".5" stop-color="#ececec"/><stop offset=".75" stop-color="#b6b6b6"/><stop offset="1" stop-color="gray"/></linearGradient><linearGradient xlink:href="#A" id="E" x1="360" y1="182.362" x2="430" y2="182.362"/><linearGradient id="F" x1="330.737" y1="259.479" x2="330.737" y2="292.228" xlink:href="#j"><stop offset="0" stop-color="#f2f2f2"/><stop offset="1" stop-color="gray"/></linearGradient><linearGradient id="G" x1="261.553" y1="263.846" x2="261.553" y2="292.228" xlink:href="#j"><stop offset="0" stop-color="#ccc"/><stop offset="1" stop-color="gray"/></linearGradient><linearGradient id="H" x1="298.697" y1="261.663" x2="298.697" y2="292.228" xlink:href="#j"><stop offset="0" stop-color="#fff"/><stop offset="1" stop-color="#b3b3b3"/></linearGradient><linearGradient id="I" x1="294.485" y1="294.412" x2="294.485" y2="290.045" xlink:href="#j"><stop offset="0" stop-color="#999"/><stop offset="1" stop-color="gray"/></linearGradient><linearGradient id="J" x1="301.856" y1="263.846" x2="301.856" y2="290.045" xlink:href="#j"><stop offset="0" stop-color="#e6e6e6"/><stop offset=".05" stop-color="#c9c9c9"/><stop offset="1" stop-color="#999"/></linearGradient><linearGradient xlink:href="#D" id="K" x1="214.286" y1="379.095" x2="215" y2="574.094"/><linearGradient id="L" x1="165" y1="402.388" x2="90" y2="402.388" xlink:href="#j"><stop offset="0" stop-color="#959595"/><stop offset="1" stop-color="#b3b3b3"/></linearGradient><linearGradient id="M" x1="440" y1="543.172" x2="375" y2="543.172" xlink:href="#j"><stop offset="0" stop-color="#878787"/><stop offset="1" stop-color="gray"/></linearGradient><linearGradient id="N" x1="445" y1="467.586" x2="375" y2="467.586" xlink:href="#j"><stop offset="0" stop-color="#ccc"/><stop offset="1" stop-color="#b3b3b3"/></linearGradient><linearGradient id="O" x1="-476.158" y1="-85" x2="-476.158" y2="-95" xlink:href="#j"><stop offset="0" stop-color="#999"/><stop offset="1" stop-color="gray"/></linearGradient><linearGradient id="P" x1="-461.34" y1="-154.751" x2="-461.158" y2="-95" xlink:href="#j"><stop offset="0" stop-color="#e6e6e6"/><stop offset=".027" stop-color="#f9f9f9"/><stop offset="1" stop-color="#999"/></linearGradient><linearGradient id="Q" x1="331.303" y1="304.594" x2="331.303" y2="337.343" xlink:href="#j"><stop offset="0" stop-color="#f2f2f2"/><stop offset="1" stop-color="gray"/></linearGradient><linearGradient id="R" x1="262.119" y1="308.961" x2="262.119" y2="337.343" xlink:href="#j"><stop offset="0" stop-color="#ccc"/><stop offset="1" stop-color="gray"/></linearGradient><linearGradient id="S" x1="299.263" y1="306.777" x2="299.263" y2="337.343" xlink:href="#j"><stop offset="0" stop-color="#fff"/><stop offset="1" stop-color="#b3b3b3"/></linearGradient><linearGradient id="T" x1="295.051" y1="339.526" x2="295.051" y2="335.16" xlink:href="#j"><stop offset="0" stop-color="#999"/><stop offset="1" stop-color="gray"/></linearGradient><linearGradient id="U" x1="302.422" y1="308.961" x2="302.422" y2="335.16" xlink:href="#j"><stop offset="0" stop-color="#e6e6e6"/><stop offset=".05" stop-color="#c9c9c9"/><stop offset="1" stop-color="#999"/></linearGradient><linearGradient xlink:href="#A" id="V" x1="250" y1="344.094" x2="340" y2="344.094"/><linearGradient xlink:href="#A" id="W" x1="296.887" y1="389.094" x2="297.639" y2="564.094"/><linearGradient xlink:href="#A" id="X" x1="260" y1="374.094" x2="330" y2="374.094"/><linearGradient xlink:href="#D" id="Y" x1="270" y1="254.094" x2="320" y2="254.094"/><linearGradient id="Z" x1="211.667" y1="385.458" x2="225" y2="349.094" xlink:href="#j"><stop offset="0" stop-color="gray"/><stop offset="1" stop-color="#ccc"/></linearGradient><linearGradient id="a" x1="450" y1="402.388" x2="375" y2="402.388" xlink:href="#j"><stop offset="0" stop-color="#ccc"/><stop offset="1" stop-color="#999"/></linearGradient><linearGradient id="b" x1="440" y1="543.172" x2="375" y2="543.172" xlink:href="#j"><stop offset="0" stop-color="#b3b3b3"/><stop offset="1" stop-color="gray"/></linearGradient><linearGradient id="c" x1="445" y1="467.586" x2="375" y2="467.586" xlink:href="#j"><stop offset="0" stop-color="#f9f9f9"/><stop offset="1" stop-color="#b3b3b3"/></linearGradient><linearGradient id="d" x1="-476.158" y1="-370" x2="-476.158" y2="-380" xlink:href="#j"><stop offset="0" stop-color="#999"/><stop offset="1" stop-color="gray"/></linearGradient><linearGradient id="e" x1="-461.34" y1="-439.751" x2="-461.158" y2="-380" xlink:href="#j"><stop offset="0" stop-color="#e6e6e6"/><stop offset=".027" stop-color="#f9f9f9"/><stop offset="1" stop-color="#999"/></linearGradient><linearGradient xlink:href="#A" id="f" x1="358.323" y1="396.34" x2="359.037" y2="556.34"/><linearGradient id="g" x1="357.143" y1="224.012" x2="358.571" y2="339.094" xlink:href="#j"><stop offset="0" stop-color="#ccc"/><stop offset="1" stop-color="#999"/></linearGradient><path id="h" d="M450 473.55c.002 7.317-.19 14.652-.582 17-.782 4.696-7.784 22.064-9.677 24.012-1.193 1.23-5.59 1.695-9.14 1.38v.212h-43.007v-.212c-3.013.145-6.06-.215-7.033-1.17-1.908-1.87-9.04-19.025-9.856-23.694s-.977-29.267-.224-34 7.615-22.412 9.497-24.437c1.412-1.52 7.337-2.066 11.02-1.488h39.602v.106c3.548-.327 7.9.05 9.094 1.275 1.893 1.94 8.89 19.32 9.677 24.013.393 2.346.625 9.683.627 17z"/><path id="i" d="M450 544.094c.002 3.97-.19 7.947-.582 9.22-.782 2.547-7.777 11.968-9.667 13.025-1.192.666-5.585.92-9.13.75v.115h-42.965v-.115c-3 .078-6.054-.117-7.027-.634-1.906-1.014-9.03-10.32-9.846-12.852s-.977-15.874-.224-18.442 7.608-12.156 9.488-13.255c1.4-.824 7.33-1.12 11-.807h39.564v.058c3.544-.177 7.893.028 9.085.692 1.89 1.053 8.882 10.48 9.667 13.024.392 1.273.624 5.252.627 9.22z"/><linearGradient id="j" gradientUnits="userSpaceOnUse"/></defs><g transform="translate(-84.997 -219.094)"><rect ry="0" rx="10" y="396.34" x="329.751" height="160" width="45" fill="url(#f)"/><g transform="matrix(0 -1 -1 0 0 0)"><rect rx="27.143" y="-450" x="-566.158" height="80" width="180" fill="url(#e)"/><rect rx="5" y="-380" x="-546.158" height="10" width="140" fill="url(#d)"/></g><use xlink:href="#h" fill="url(#c)"/><use xlink:href="#i" fill="url(#b)"/><path d="M449.942 405.606c.002 3.53-.19 7.067-.582 8.2-.782 2.265-7.777 10.643-9.667 11.583-1.192.593-5.585.817-9.13.666v.102H387.6v-.102c-3 .07-6.054-.104-7.027-.564-1.906-.9-9.03-9.177-9.846-11.43s-.977-14.117-.224-16.4 7.608-10.81 9.488-11.787c1.4-.733 7.33-.996 11-.718h39.564v.05c3.544-.158 7.893.025 9.085.615 1.89.936 8.882 9.32 9.667 11.582.392 1.132.624 4.67.627 8.2z" fill="url(#a)"/><rect ry="8.666" rx="6.819" y="349.094" x="205" height="40" width="60" fill="url(#Z)"/><rect ry="2.5" rx="5.303" y="249.094" x="270" height="18.839" width="50" fill="url(#Y)"/><rect rx="2.857" y="344.094" x="255" height="80" width="80" fill="url(#X)"/><rect rx="2.857" y="389.094" x="245" height="175" width="94.751" fill="url(#W)"/><rect mask="url(#C)" width="80" height="80" x="254.751" y="346.34" rx="2.857" fill="url(#E)"/><rect rx="2.857" y="339.094" x="250" height="5" width="90" fill="url(#V)"/><rect rx="14.107" ry="27.143" y="304.594" x="250.823" height="34.932" width="88.456" fill="url(#U)"/><rect rx="5" y="335.16" x="260.651" height="4.367" width="68.799" fill="url(#T)"/><path d="M296.332 304.594c-3.596-.001-7.2.083-8.354.254-2.308.342-10.843 3.4-11.8 4.225-.604.52-.833 2.44-.68 3.99h-.104v18.78h.104c-.07 1.316.106 2.646.574 3.07.918.833 9.35 3.947 11.644 4.304s14.382.427 16.708.098 11.014-3.325 12.01-4.147c.746-.616 1.015-3.204.73-4.812v-17.292h-.052c.16-1.55-.025-3.45-.627-3.97-.954-.827-9.494-3.882-11.8-4.225-1.153-.172-4.76-.273-8.354-.274z" fill="url(#S)"/><path d="M261.665 304.594c-1.95-.001-3.906.083-4.53.254-1.252.34-5.88 3.396-6.4 4.22-.328.52-.452 2.44-.368 3.987h-.057v18.76h.057c-.04 1.314.057 2.643.312 3.068.498.832 5.07 3.943 6.316 4.3s7.8.426 9.063.098 5.974-3.322 6.514-4.143c.405-.616.55-3.2.397-4.807v-17.275h-.028c.087-1.548-.014-3.446-.34-3.967-.517-.826-5.15-3.88-6.4-4.22-.625-.17-2.58-.273-4.53-.274z" fill="url(#R)"/><path d="M329.722 304.62c-1.734-.001-3.473.083-4.03.254-1.113.34-5.23 3.396-5.692 4.22-.29.52-.402 2.44-.327 3.987h-.05v18.76h.05c-.034 1.314.05 2.643.277 3.068.443.832 4.5 3.943 5.616 4.3s6.937.426 8.06.098 5.313-3.322 5.793-4.143c.36-.616.5-3.2.353-4.807V313.08h-.025c.078-1.548-.012-3.446-.302-3.967-.46-.826-4.58-3.88-5.692-4.22-.556-.17-2.295-.273-4.03-.274z" fill="url(#Q)"/><g transform="matrix(0 -1 -1 0 0 0)"><rect rx="27.143" y="-165" x="-566.158" height="80" width="180" fill="url(#P)"/><rect rx="5" y="-95" x="-546.158" height="10" width="140" fill="url(#O)"/></g><use xlink:href="#h" x="-285" fill="url(#N)"/><use xlink:href="#i" x="-285" fill="url(#M)"/><path d="M164.942 405.606c.002 3.53-.19 7.067-.582 8.2-.782 2.265-7.777 10.643-9.667 11.583-1.192.593-5.585.817-9.13.666v.102H102.6v-.102c-3 .07-6.054-.104-7.027-.564-1.906-.9-9.03-9.177-9.846-11.43s-.977-14.117-.224-16.4S93.1 386.852 95 385.875c1.4-.733 7.33-.996 11-.718h39.564v.05c3.544-.158 7.893.025 9.085.615 1.89.936 8.882 9.32 9.667 11.582.392 1.132.624 4.67.627 8.2z" fill="url(#L)"/><rect ry="7.908" rx="8.16" y="379.094" x="155" height="195" width="100" fill="url(#K)"/><g fill="#666"><path d="M337 389.14a2.52 2.52 0 0 0-2 2.469v170c0 1.288.97 2.327 2.22 2.47 1.43-.16 2.53-1.37 2.53-2.844V391.95c0-1.473-1.103-2.652-2.53-2.812-.073.008-.148-.014-.22 0z" opacity=".292"/><path d="M250 379.7v193.78c2.946-1.19 5-3.985 5-7.28V387.014c0-3.296-2.054-6.122-5-7.312z" opacity=".367"/></g><rect ry="0" rx="1" y="379.094" x="180" height="195" width="5" opacity=".252" fill="#fff"/><rect rx="14.107" ry="27.143" y="259.479" x="250.257" height="34.932" width="88.456" fill="url(#J)"/><rect rx="5" y="290.045" x="260.085" height="4.367" width="68.799" fill="url(#I)"/><path d="M295.766 259.48c-3.596-.001-7.2.083-8.354.254-2.308.342-10.843 3.4-11.8 4.225-.604.52-.833 2.44-.68 3.99h-.104v18.78h.104c-.07 1.316.106 2.646.574 3.07.918.833 9.35 3.947 11.644 4.304s14.382.427 16.708.098 11.014-3.325 12.01-4.147c.746-.616 1.015-3.204.73-4.812V267.95h-.052c.16-1.55-.025-3.45-.627-3.97-.954-.827-9.494-3.882-11.8-4.225-1.153-.172-4.76-.273-8.354-.274z" fill="url(#H)"/><path d="M261.1 259.48c-1.95-.001-3.905.083-4.53.254-1.252.34-5.88 3.396-6.4 4.22-.328.52-.452 2.44-.368 3.987h-.057v18.76h.057c-.04 1.314.057 2.643.312 3.068.498.832 5.07 3.943 6.316 4.3s7.8.426 9.063.098 5.974-3.322 6.514-4.143c.405-.616.55-3.2.397-4.807V267.94h-.028c.087-1.548-.014-3.446-.34-3.967-.517-.826-5.15-3.88-6.4-4.22-.625-.17-2.58-.273-4.53-.274z" fill="url(#G)"/><path d="M329.156 259.505c-1.734-.001-3.473.083-4.03.254-1.113.34-5.23 3.396-5.692 4.22-.29.52-.402 2.44-.327 3.987h-.05v18.76h.05c-.034 1.314.05 2.643.277 3.068.443.832 4.5 3.943 5.616 4.3s6.937.426 8.06.098 5.313-3.322 5.793-4.143c.36-.616.5-3.2.353-4.807v-17.275h-.025c.078-1.548-.012-3.446-.302-3.967-.46-.826-4.58-3.88-5.692-4.22-.556-.17-2.295-.273-4.03-.274z" fill="url(#F)"/><path d="M240.357 348.38L240 310.094s0-6 10-6h110c25 1.263 42.223-40.962 60.203-59.547 11.243-10.898 29.74-10.483 29.797-10.453h70v-10h-70s-24.11-2.13-38.283 15.253C394.58 255.66 382.484 290.524 360 294.094H250s-20-1-20 14v40.285h10.357z" fill="url(#g)"/><rect rx="7.143" ry="7.046" y="219.094" x="440" height="20" width="355" fill="#a00"/><path d="M456.688 229.094c-6.725 0-12.715.98-16.687 2.53v.438c0 3.903 9.67 7.03 21.688 7.03h311.625c12.018 0 21.688-3.128 21.688-7.03v-2.625a64.58 64.58 0 0 0-6.687-.344H456.688z" fill="maroon"/></g></svg>