<svg xmlns="http://www.w3.org/2000/svg" xmlns:xlink="http://www.w3.org/1999/xlink" width="352.358" height="610.013"><defs><linearGradient id="A" xlink:href="#Q"><stop offset="0" stop-color="#00112b"/><stop offset=".235" stop-color="#00183e"/><stop offset=".506" stop-color="#1270ff"/><stop offset=".732" stop-color="#59f" stop-opacity=".197"/><stop offset="1" stop-color="#00112b"/></linearGradient><filter /><linearGradient id="C" x1="200.094" y1="462.349" x2="540.094" y2="462.349" xlink:href="#Q"><stop offset="0" stop-color="#00112b"/><stop offset=".201" stop-color="#025"/><stop offset=".293" stop-color="#04a"/><stop offset=".392" stop-color="#2a7fff"/><stop offset=".851" stop-color="#2a7fff"/><stop offset="1" stop-color="#04a"/></linearGradient><linearGradient id="D" x1="529.067" y1="532.362" x2="387.233" y2="532.362" xlink:href="#Q"><stop offset="0" stop-color="#fff" stop-opacity="0"/><stop offset=".091" stop-color="#fff"/><stop offset=".549" stop-color="#59f"/><stop offset="1" stop-color="#1c2224"/></linearGradient><linearGradient xlink:href="#A" id="E" x1="198.444" y1="498.391" x2="538.444" y2="498.391"/><linearGradient id="F" x1="348.459" y1="232.705" x2="351.87" y2="579.195" xlink:href="#Q"><stop offset="0" stop-color="#fff"/><stop offset="1" stop-color="#fff" stop-opacity="0"/></linearGradient><linearGradient xlink:href="#A" id="G" x1="200.001" y1="438.362" x2="540.001" y2="438.362"/><linearGradient id="H" x1="199.875" y1="472.425" x2="539.875" y2="472.425" xlink:href="#Q"><stop offset="0" stop-color="#00112b"/><stop offset=".235" stop-color="#00183e"/><stop offset=".506" stop-color="#f55" stop-opacity="0"/><stop offset=".732" stop-color="#59f" stop-opacity=".197"/><stop offset="1" stop-color="#00112b"/></linearGradient><linearGradient xlink:href="#A" id="I" x1="200" y1="472.362" x2="540" y2="472.362"/><radialGradient id="J" gradientTransform="matrix(3.7650416,0,-1.3341617e-7,0.1996613,-1050.7158,139.87925)" cx="380" cy="463.199" fx="380" fy="463.199" r="175.297" xlink:href="#Q"><stop offset="0" stop-color="#500"/><stop offset=".644" stop-color="#06f"/><stop offset="1" stop-color="#2a7fff"/></radialGradient><radialGradient id="K" gradientTransform="matrix(-1.6079473e-7,1.426152,-3.3657188,-3.795648e-7,1089.873,724.35412)" cx="-120.599" cy="216.855" fx="-120.599" fy="216.855" r="175.297" xlink:href="#Q"><stop offset="0" stop-color="red"/><stop offset=".978" stop-color="#0055d4"/><stop offset="1" stop-color="#025"/></radialGradient><radialGradient id="L" gradientTransform="matrix(0,0.5223643,-3.0804885,3.7465963e-6,357.51495,485.36789)" cx="65.376" cy="-4.048" fx="65.376" fy="-4.048" r="175.297" xlink:href="#Q"><stop offset="0" stop-color="#0c4aa6"/><stop offset=".928" stop-color="#0055d4"/><stop offset="1" stop-color="#025"/></radialGradient><radialGradient id="M" gradientTransform="matrix(3.5082495,2.4359583e-2,-6.1167956e-3,0.8812507,-983.82095,-811.6454)" cx="389.317" cy="1523.254" fx="389.317" fy="1523.254" r="175.297" xlink:href="#Q"><stop offset="0" stop-color="#025"/><stop offset=".85" stop-color="#025"/><stop offset=".86" stop-color="#003380"/><stop offset="1" stop-color="#2a7fff"/></radialGradient><path id="N" d="M368.36 393.454c-69.902 0-169.627 4.986-169.906 5v-.062c-.032.02-.062.043-.094.063-3.126 1.966-5.312 5.63-5.312 9.97s2.188 8.002 5.313 9.97v.063h.094c.275-.01 90.372-3.22 170.25-3.22 75 0 169.656 3.22 169.656 3.22v-.094c3.103-1.953 5.28-5.616 5.28-9.97 0-4.372-2.188-8.054-5.312-10v.063c-.093-.005-100-5-169.97-5z"/><path id="O" d="M370 617.268c-69.902 0-169.627-4.986-169.906-5v.063c-.032-.02-.062-.043-.094-.062-3.126-1.966-5.312-5.63-5.312-9.97s2.188-8.002 5.313-9.97v-.062h.094c.275.01 90.372 3.22 170.25 3.22 75 0 169.656-3.22 169.656-3.22v.094c3.103 1.953 5.28 5.616 5.28 9.97 0 4.372-2.188 8.054-5.312 10v-.062c-.093.005-100 5-169.97 5z"/><path id="P" d="M370 807.362c-125 0-169.627-14.986-169.906-15v.063c-.032-.02-.062-.043-.094-.062-3.126-1.966-5.312-5.63-5.312-9.97s2.188-8.002 5.313-9.97v-.062h.094c.275.01 19.906 15 169.906 15 145 0 170-15 170-15v.094c3.103 1.953 5.28 5.616 5.28 9.97 0 4.372-2.188 8.054-5.312 10v-.062c-.093.005-49.97 15-169.97 15z"/><linearGradient id="Q" gradientUnits="userSpaceOnUse"/></defs><g transform="translate(-193.048 -197.362)"><path d="M370.125 197.375c-125 0-169.627 14.986-169.906 15v-.062c-.032.02-.062.043-.094.063-3.126 1.966-5.312 5.63-5.312 9.97 0 4.327 2.168 8 5.28 9.97-.001.02 0 .042 0 .063v140c-.032.02-.062.043-.094.063v20h.094v104.97c-.032.005-.062.025-.094.03v19.844c.03.006.062.026.094.03v109.03c-.032.02-.062.042-.094.063v19.813c.032.02.062.043.094.063v126.156c-3.124 1.967-5.312 5.63-5.312 9.97s2.186 8.003 5.313 9.97c.03.02.062.043.094.063v-.062c.28.014 44.906 15 169.906 15 120 0 169.876-14.995 169.97-15v.063c3.125-1.946 5.313-5.628 5.313-10 0-4.353-2.18-8.016-5.28-9.97V704.03c-.05-.547-.094-1.083-.094-1.656v-80c0-.574.044-1.14.094-1.687V564.03c-.05-.547-.094-1.083-.094-1.656v-90c0-.574.044-1.14.094-1.687v-76.312a19.6 19.6 0 0 1-.094-2v-20c0-.692.027-1.38.094-2.03v-137.97c.001.001.03 0 .03 0v-.094c3.103-1.953 5.28-5.616 5.28-9.97 0-4.372-2.188-8.054-5.312-10v.063c-.093-.005-49.97-15-169.97-15zm-35.437 20.28c.33-.006.7.006 1.03 0l-44.75 1.438c12.735-.644 27.246-1.144 43.72-1.437z" fill="url(#C)"/><rect ry="10" rx="5.454" y="212.362" x="460" height="580" width="74" fill="url(#D)"/><path d="M370.125 197.375c-125 0-169.627 14.986-169.906 15v-.062c-.032.02-.062.043-.094.063-3.126 1.966-5.312 5.63-5.312 9.97 0 4.327 2.168 8 5.28 9.97-.001.02 0 .042 0 .063v140c-.032.02-.062.043-.094.063v3.188c42.627 5.878 89.39 9.125 138.438 9.125 74.7 0 144.1-7.55 201.656-20.437V232.375c.001.001.03 0 .03 0v-.094c3.103-1.953 5.28-5.616 5.28-9.97 0-4.372-2.188-8.054-5.312-10v.063c-.093-.005-49.97-15-169.97-15zm-35.437 20.28c.33-.006.7.006 1.03 0l-44.75 1.438c12.735-.644 27.246-1.144 43.72-1.437z" opacity=".26" fill="url(#F)"/><use xlink:href="#N" fill="url(#M)"/><use xlink:href="#O" fill="url(#L)"/><use xlink:href="#P" fill="url(#K)"/><path d="M370.03 197.362c-125 0-169.627 14.986-169.906 15v-.062c-.032.02-.062.043-.094.063-3.126 1.966-5.312 5.63-5.312 9.97s2.188 8.002 5.313 9.97v.063h.094c.275-.01 19.906-15 169.906-15 145 0 170 15 170 15v-.094c3.103-1.953 5.28-5.616 5.28-9.97 0-4.372-2.188-8.054-5.312-10v.063c-.093-.005-49.97-15-169.97-15z" fill="url(#J)"/><g opacity=".593"><path d="M369.906 197.425c-125 0-169.627 14.986-169.906 15v-.062c-.032.02-.062.043-.094.063-3.126 1.966-5.312 5.63-5.312 9.97s2.188 8.002 5.313 9.97v.063H200c.275-.01 19.906-15 169.906-15 145 0 170 15 170 15v-.094c3.103-1.953 5.28-5.616 5.28-9.97 0-4.372-2.188-8.054-5.312-10v.063c-.093-.005-49.97-15-169.97-15z" fill="url(#H)"/><use xlink:href="#N" x="0.34" y="-0.324" fill="url(#E)"/><use xlink:href="#O" x="-0.22" y="0.094" fill="url(#G)"/><use xlink:href="#P" x="-0.125" y="0.063" fill="url(#I)"/></g></g></svg>