<svg xmlns="http://www.w3.org/2000/svg" xmlns:xlink="http://www.w3.org/1999/xlink" width="352.358" height="610.013"><defs><linearGradient id="A" xlink:href="#Q"><stop offset="0" stop-color="maroon"/><stop offset=".235" stop-color="red" stop-opacity="0"/><stop offset=".506" stop-color="#f55" stop-opacity="0"/><stop offset=".732" stop-color="red" stop-opacity="0"/><stop offset="1" stop-color="maroon"/></linearGradient><radialGradient id="B" gradientTransform="matrix(3.5083341,2.5306785e-7,6.2570362e-7,0.4848916,-993.17226,-198.40625)" cx="389.537" cy="1395.77" fx="389.537" fy="1395.77" r="175.297" xlink:href="#Q"><stop offset="0" stop-color="#ad0000"/><stop offset=".614" stop-color="#a00"/><stop offset=".81" stop-color="#d40000"/><stop offset="1" stop-color="red"/></radialGradient><filter /><radialGradient id="D" cx="380" cy="463.199" fx="380" fy="463.199" r="175.297" gradientTransform="matrix(3.7650416,0,-1.3341617e-7,0.1996613,-1050.7158,139.87925)" xlink:href="#Q"><stop offset="0" stop-color="#500"/><stop offset=".644" stop-color="red"/><stop offset="1" stop-color="red"/></radialGradient><radialGradient id="E" cx="467.648" cy="-4.053" fx="467.648" fy="-4.053" r="175.297" gradientTransform="matrix(0,0.1711383,-3.0804885,1.215792e-6,357.51495,508.32965)" xlink:href="#Q"><stop offset="0" stop-color="red"/><stop offset=".425" stop-color="red"/><stop offset="1" stop-color="#820000"/></radialGradient><radialGradient id="F" cx="158.183" cy="213.887" fx="158.183" fy="213.887" r="175.297" gradientTransform="matrix(8.6523608e-8,0.3993226,-3.3657188,7.2926974e-7,1089.8828,669.19592)" xlink:href="#Q"><stop offset="0" stop-color="red"/><stop offset=".88" stop-color="red"/><stop offset="1" stop-color="#820000"/></radialGradient><linearGradient id="G" x1="200.094" y1="462.349" x2="540.094" y2="462.349" xlink:href="#Q"><stop offset="0" stop-color="maroon"/><stop offset=".201" stop-color="red"/><stop offset=".293" stop-color="red"/><stop offset=".392" stop-color="#f55"/><stop offset=".851" stop-color="red"/><stop offset="1" stop-color="#d40000"/></linearGradient><linearGradient id="H" x1="529.067" y1="532.362" x2="387.233" y2="532.362" xlink:href="#Q"><stop offset="0" stop-color="#fff" stop-opacity="0"/><stop offset=".091" stop-color="#fff"/><stop offset=".549" stop-color="#ff7f7f" stop-opacity=".498"/><stop offset="1" stop-color="red" stop-opacity="0"/></linearGradient><linearGradient xlink:href="#A" id="I" x1="200" y1="472.362" x2="540" y2="472.362"/><linearGradient xlink:href="#A" id="J" x1="200.001" y1="438.362" x2="540.001" y2="438.362"/><linearGradient xlink:href="#A" id="K" x1="198.444" y1="498.391" x2="538.444" y2="498.391"/><linearGradient xlink:href="#A" id="L" x1="199.875" y1="472.425" x2="539.875" y2="472.425"/><linearGradient id="M" x1="348.459" y1="232.705" x2="351.87" y2="579.195" xlink:href="#Q"><stop offset="0" stop-color="#fff"/><stop offset="1" stop-color="#fff" stop-opacity="0"/></linearGradient><path id="N" d="M368.36 393.454c-69.902 0-169.627 4.986-169.906 5v-.062c-.032.02-.062.043-.094.063-3.126 1.966-5.312 5.63-5.312 9.97s2.188 8.002 5.313 9.97v.063h.094c.275-.01 90.372-3.22 170.25-3.22 75 0 169.656 3.22 169.656 3.22v-.094c3.103-1.953 5.28-5.616 5.28-9.97 0-4.372-2.188-8.054-5.312-10v.063c-.093-.005-100-5-169.97-5z"/><path id="O" d="M370 617.268c-69.902 0-169.627-4.986-169.906-5v.063c-.032-.02-.062-.043-.094-.062-3.126-1.966-5.312-5.63-5.312-9.97s2.188-8.002 5.313-9.97v-.062h.094c.275.01 90.372 3.22 170.25 3.22 75 0 169.656-3.22 169.656-3.22v.094c3.103 1.953 5.28 5.616 5.28 9.97 0 4.372-2.188 8.054-5.312 10v-.062c-.093.005-100 5-169.97 5z"/><path id="P" d="M370 807.362c-125 0-169.627-14.986-169.906-15v.063c-.032-.02-.062-.043-.094-.062-3.126-1.966-5.312-5.63-5.312-9.97s2.188-8.002 5.313-9.97v-.062h.094c.275.01 19.906 15 169.906 15 145 0 170-15 170-15v.094c3.103 1.953 5.28 5.616 5.28 9.97 0 4.372-2.188 8.054-5.312 10v-.062c-.093.005-49.97 15-169.97 15z"/><linearGradient id="Q" gradientUnits="userSpaceOnUse"/></defs><g transform="translate(-193.048 -197.362)"><path d="M370.125 197.375c-125 0-169.627 14.986-169.906 15v-.062c-.032.02-.062.043-.094.063-3.126 1.966-5.312 5.63-5.312 9.97 0 4.327 2.168 8 5.28 9.97-.001.02 0 .042 0 .063v140c-.032.02-.062.043-.094.063v20h.094v104.97c-.032.005-.062.025-.094.03v19.844c.03.006.062.026.094.03v109.03c-.032.02-.062.042-.094.063v19.813c.032.02.062.043.094.063v126.156c-3.124 1.967-5.312 5.63-5.312 9.97s2.186 8.003 5.313 9.97c.03.02.062.043.094.063v-.062c.28.014 44.906 15 169.906 15 120 0 169.876-14.995 169.97-15v.063c3.125-1.946 5.313-5.628 5.313-10 0-4.353-2.18-8.016-5.28-9.97V704.03c-.05-.547-.094-1.083-.094-1.656v-80c0-.574.044-1.14.094-1.687V564.03c-.05-.547-.094-1.083-.094-1.656v-90c0-.574.044-1.14.094-1.687v-76.312a19.6 19.6 0 0 1-.094-2v-20c0-.692.027-1.38.094-2.03v-137.97c.001.001.03 0 .03 0v-.094c3.103-1.953 5.28-5.616 5.28-9.97 0-4.372-2.188-8.054-5.312-10v.063c-.093-.005-49.97-15-169.97-15zm-35.437 20.28c.33-.006.7.006 1.03 0l-44.75 1.438c12.735-.644 27.246-1.144 43.72-1.437z" fill="url(#G)"/><rect ry="10" rx="5.454" y="212.362" x="460" height="580" width="74" fill="url(#H)"/><use xlink:href="#N" fill="url(#B)"/><use xlink:href="#O" opacity=".567" fill="url(#E)"/><use xlink:href="#P" fill="url(#F)"/><path d="M370.125 197.375c-125 0-169.627 14.986-169.906 15v-.062c-.032.02-.062.043-.094.063-3.126 1.966-5.312 5.63-5.312 9.97 0 4.327 2.168 8 5.28 9.97-.001.02 0 .042 0 .063v140c-.032.02-.062.043-.094.063v3.188c42.627 5.878 89.39 9.125 138.438 9.125 74.7 0 144.1-7.55 201.656-20.437V232.375c.001.001.03 0 .03 0v-.094c3.103-1.953 5.28-5.616 5.28-9.97 0-4.372-2.188-8.054-5.312-10v.063c-.093-.005-49.97-15-169.97-15zm-35.437 20.28c.33-.006.7.006 1.03 0l-44.75 1.438c12.735-.644 27.246-1.144 43.72-1.437z" opacity=".26" fill="url(#M)"/><path d="M370.03 197.362c-125 0-169.627 14.986-169.906 15v-.062c-.032.02-.062.043-.094.063-3.126 1.966-5.312 5.63-5.312 9.97s2.188 8.002 5.313 9.97v.063h.094c.275-.01 19.906-15 169.906-15 145 0 170 15 170 15v-.094c3.103-1.953 5.28-5.616 5.28-9.97 0-4.372-2.188-8.054-5.312-10v.063c-.093-.005-49.97-15-169.97-15z" fill="url(#D)"/><path d="M369.906 197.425c-125 0-169.627 14.986-169.906 15v-.062c-.032.02-.062.043-.094.063-3.126 1.966-5.312 5.63-5.312 9.97s2.188 8.002 5.313 9.97v.063H200c.275-.01 19.906-15 169.906-15 145 0 170 15 170 15v-.094c3.103-1.953 5.28-5.616 5.28-9.97 0-4.372-2.188-8.054-5.312-10v.063c-.093-.005-49.97-15-169.97-15z" fill="url(#L)"/><use xlink:href="#N" x="0.34" y="-0.324" fill="url(#K)"/><use xlink:href="#O" x="-0.22" y="0.094" fill="url(#J)"/><use xlink:href="#P" x="-0.125" y="0.063" fill="url(#I)"/></g></svg>