<svg xmlns="http://www.w3.org/2000/svg" xmlns:xlink="http://www.w3.org/1999/xlink" width="466" height="386"><defs><radialGradient id="A" cx="210" cy="260" fx="210" fy="260" r="188.003" gradientTransform="matrix(0,-1.0106211,1.0106211,7.9132866e-8,-52.76151,472.23043)" xlink:href="#F"><stop offset="0" stop-color="#ccc"/><stop offset=".879" stop-color="#999"/><stop offset="1" stop-color="#6d6d6d"/></radialGradient><radialGradient id="B" cx="517.375" cy="66.839" fx="517.375" fy="66.839" r="233" gradientTransform="matrix(0,0.2575107,-1.4592275,8.8077476e-7,517.53385,-13.229673)" xlink:href="#F"><stop offset="0" stop-color="#f2f2f2"/><stop offset="1" stop-color="#6d6d6d"/></radialGradient><linearGradient id="C" x1="380" y1="80" x2="420" y2="160" xlink:href="#F"><stop offset="0" stop-color="#7f7f7f"/><stop offset="1" stop-opacity="0"/></linearGradient><linearGradient id="D" x1="255" y1="30" x2="390" y2="100" xlink:href="#F"><stop offset="0" stop-color="#777"/><stop offset="1" stop-opacity="0"/></linearGradient><radialGradient id="E" gradientTransform="matrix(-2.1922793e-2,1.1784312,-2.1032991,-3.9128454e-2,251.02738,-158.65716)" cx="213.142" cy="15.791" fx="213.142" fy="15.791" r="139.766" xlink:href="#F"><stop offset="0" stop-color="#fff"/><stop offset="1" stop-color="#fff" stop-opacity=".41"/></radialGradient><linearGradient id="F" gradientUnits="userSpaceOnUse"/></defs><g transform="translate(-17 -67)"><path d="M210 70C105.12 70 20 155.12 20 260s85.12 190 190 190 190-85.12 190-190v-20h80V70H215v.063L210 70z" fill="url(#B)" stroke="#000" stroke-width="6"/><path d="M256 76z" opacity=".677" fill="url(#C)"/><path d="M235 73l205-3s-70 0-90 60-115-58.07-115-57z" fill="url(#D)"/><path d="M205.156 72.063C143.39 73.086 83.72 107.21 51.1 159.564 15.95 213.903 12.433 286.886 42 344.426c27.73 56.06 85.157 96.217 147.42 102.443 59.375 6.996 120.83-16.624 160.397-61.235 39.838-43.644 56.72-106.64 44.13-164.49-12.888-63.85-61.73-118.824-123.676-139.24-20.823-7.118-43.007-10.406-65.125-9.844z" fill="url(#A)"/><path d="M350 260c0 77.28-62.72 140-140 140S70 337.28 70 260s62.72-140 140-140 140 62.72 140 140z" stroke="#fff" stroke-width="7"/><path d="M320 260c0 60.72-49.28 110-110 110s-110-49.28-110-110 49.28-110 110-110 110 49.28 110 110z" fill="#ccc" stroke="#000" stroke-width="6.6"/><path d="M292.108 307.957c28.174 24.59-10.234-79.912-42.72-61.4-50.217 28.63-28.722 51.798-39.866 108.52-7.21 36.694 64.09-48.818 31.805-67.692-49.903-29.174-59.22 1.025-113.913 19.735-35.383 12.104 74.322 31.093 74.526-6.302.314-57.804-30.498-50.773-74.047-88.784-28.174-24.59 10.234 79.912 42.72 61.4 50.217-28.63 28.722-51.798 39.866-108.52 7.21-36.694-64.09 48.818-31.805 67.692 49.903 29.174 59.22-1.025 113.913-19.735 35.383-12.104-74.322-31.093-74.526 6.302-.314 57.804 30.498 50.773 74.047 88.784z"/><path d="M220 260c0 5.52-4.48 10-10 10s-10-4.48-10-10 4.48-10 10-10 10 4.48 10 10z" fill="gray" fill-opacity=".96"/><path d="M208.47 71.906c-89.975-1.25-174.164 72.62-184.906 161.813-1.64 14.2-1.885 28.506-2.25 42.78C127.12 349.336 275 352.92 385.5 288.625c10.583-3.613 14.174-16.51 12.532-26.687 1.86-78.648-51.653-153.71-125.224-179.836-20.55-7.294-42.514-10.46-64.34-10.196z" opacity=".76" fill="url(#E)"/></g></svg>