<svg xmlns="http://www.w3.org/2000/svg" xmlns:xlink="http://www.w3.org/1999/xlink" width="546.996" height="386.21"><defs><linearGradient id="A" x1="684.857" y1="180.934" x2="724.857" y2="260.934" xlink:href="#H"><stop offset="0" stop-color="#7f7f7f"/><stop offset="1" stop-opacity="0"/></linearGradient><linearGradient id="B" xlink:href="#H"><stop offset="0" stop-color="#f2f2f2"/><stop offset="1" stop-color="#6d6d6d"/></linearGradient><radialGradient xlink:href="#B" id="C" gradientTransform="matrix(0,0.2575107,-1.4592275,8.8077476e-7,489.0651,-65.635198)" cx="517.375" cy="66.839" fx="517.375" fy="66.839" r="233"/><radialGradient xlink:href="#B" id="D" gradientTransform="matrix(7.884614e-5,-0.2575107,1.0398327,3.1796099e-4,-98.74543,479.90662)" cx="758.142" cy="66.821" fx="758.142" fy="66.821" r="233"/><linearGradient id="E" x1="351.531" y1="27.594" x2="391.531" y2="107.594" xlink:href="#H"><stop offset="0" stop-color="#7f7f7f"/><stop offset="1" stop-opacity="0"/></linearGradient><radialGradient id="F" gradientTransform="matrix(0,-1.0106211,1.0106211,7.9132866e-8,-81.23027,419.82491)" cx="210" cy="260" fx="210" fy="260" r="188.003" xlink:href="#H"><stop offset="0" stop-color="#ccc"/><stop offset=".879" stop-color="#999"/><stop offset="1" stop-color="#6d6d6d"/></radialGradient><radialGradient id="G" gradientTransform="matrix(-2.1922793e-2,1.1784312,-2.1032991,-3.9128454e-2,222.55863,-211.06268)" cx="213.142" cy="15.791" fx="213.142" fy="15.791" r="139.766" xlink:href="#H"><stop offset="0" stop-color="#fff"/><stop offset="1" stop-color="#fff" stop-opacity=".41"/></radialGradient><linearGradient id="H" gradientUnits="userSpaceOnUse"/></defs><g transform="translate(-241.871 -168.908)"><path d="M560.857 176.934z" opacity=".677" fill="url(#A)"/><g transform="translate(334.337 154.313)"><g stroke="#000" stroke-width="6"><path d="M181.53 17.594c-104.88 0-190 85.12-190 190s85.12 190 190 190 190-85.12 190-190v-20h80v-170h-265v.063l-5-.062z" fill="url(#C)"/><path d="M180.53 397.802c104.88.552 190.445-84.12 190.997-188.998S287.41 18.36 182.53 17.808-7.915 101.927-8.467 206.805l-.105 20-80-.42-.894 169.998 269.996 1.42z" fill="url(#D)"/></g><path d="M227.53 23.594z" opacity=".677" fill="url(#E)"/><path d="M176.688 19.657C114.922 20.68 55.25 54.805 22.62 107.158c-35.14 54.34-38.657 127.323-9.08 184.862 27.73 56.06 85.157 96.217 147.42 102.443 59.375 6.996 120.83-16.624 160.397-61.235 39.838-43.644 56.72-106.64 44.13-164.49C352.6 104.888 303.76 49.916 241.813 29.5c-20.823-7.118-43.007-10.406-65.125-9.844z" fill="url(#F)"/><path d="M321.53 207.594c0 77.28-62.72 140-140 140s-140-62.72-140-140 62.72-140 140-140 140 62.72 140 140z" stroke="#fff" stroke-width="7"/><path d="M291.53 207.594c0 60.72-49.28 110-110 110s-110-49.28-110-110 49.28-110 110-110 110 49.28 110 110z" fill="#ccc" stroke="#000" stroke-width="6.6"/><path d="M263.64 255.552c28.174 24.59-10.234-79.912-42.72-61.4-50.217 28.63-28.722 51.798-39.866 108.52-7.21 36.694 64.09-48.818 31.805-67.692-49.903-29.174-59.22 1.025-113.913 19.735-35.383 12.104 74.322 31.093 74.526-6.302.314-57.804-30.498-50.773-74.047-88.784-28.174-24.59 10.234 79.912 42.72 61.4 50.217-28.63 28.722-51.798 39.866-108.52 7.21-36.694-64.09 48.818-31.805 67.692 49.903 29.174 59.22-1.025 113.913-19.735 35.383-12.104-74.322-31.093-74.526 6.302-.314 57.804 30.498 50.773 74.047 88.784z"/><path d="M191.53 207.594c0 5.52-4.48 10-10 10s-10-4.48-10-10 4.48-10 10-10 10 4.48 10 10z" fill="gray" fill-opacity=".96"/><path d="M180 19.5C90.025 18.25 5.836 92.12-4.906 181.313c-1.64 14.2-1.885 28.506-2.25 42.78C98.65 296.93 246.54 300.515 357.03 236.22c10.583-3.613 14.174-16.51 12.532-26.687 1.86-78.648-51.653-153.71-125.224-179.836C223.8 22.403 201.825 19.238 180 19.5z" opacity=".76" fill="url(#G)"/></g></g></svg>