<svg xmlns="http://www.w3.org/2000/svg" xmlns:xlink="http://www.w3.org/1999/xlink" width="282.571" height="266.857"><defs><linearGradient id="A" x1="365.675" y1="308.89" x2="366.685" y2="575.57" gradientUnits="userSpaceOnUse"><stop offset="0" stop-color="#fff"/><stop offset="1" stop-color="#fff" stop-opacity="0"/></linearGradient><path id="B" d="M319.567 572.178c-22.112 30.158 78.756-16.974 57.546-47.774-32.786-47.608-54.048-24.225-111.51-30.518-37.174-4.07 54.078 59.717 70.146 25.95 24.837-52.197-6.044-58.92-29.325-111.83-15.06-34.23-24.678 76.692 12.6 73.723 57.622-4.59 48.004-34.694 82.184-81.31 22.112-30.158-78.756 16.974-57.546 47.774 32.786 47.608 54.048 24.225 111.51 30.518 37.174 4.07-54.078-59.717-70.146-25.95-24.837 52.197 6.044 58.92 29.325 111.83 15.06 34.23 24.678-76.692-12.6-73.723-57.622 4.59-48.004 34.694-82.184 81.31z"/></defs><g transform="translate(-218 -350.362)"><g stroke="#000" stroke-linejoin="round"><rect width="278.958" height="263.244" x="219.807" y="352.169" rx="67.143" fill="#999" stroke-width="3.613"/><path d="M384.01 381.788c58.205 12.923 94.862 70.233 81.823 127.923s-70.86 94.022-129.066 81.098-94.862-70.233-81.823-127.923 70.86-94.022 129.066-81.098z" fill="#1a1a1a" stroke-width="4.311"/></g><use xlink:href="#B" fill="#fe0000"/><use xlink:href="#B" fill="#0f0"/><path d="M385.388 486.3c0 13.8-11.2 25-25 25s-25-11.2-25-25 11.2-25 25-25 25 11.2 25 25z" fill="#4d4d4d" stroke="#000" stroke-width="4" stroke-linejoin="round"/><path d="M285.25 354.188c-30.3.015-58.428 24.57-62.595 54.58-1.918 18.575-.318 37.52-.842 56.23 90.452 16.826 183.82 18.06 274.938 5.938-.495-20.5.998-41.22-.75-61.594-3.895-30.013-31.747-54.803-62-55.13l-148.75-.025z" fill="url(#A)"/></g></svg>