<svg xmlns="http://www.w3.org/2000/svg" xmlns:xlink="http://www.w3.org/1999/xlink" width="347" height="347"><defs><radialGradient id="A" cx="265.897" cy="379.094" fx="265.897" fy="379.094" r="143" gradientTransform="matrix(0.6993006,0.5594403,-0.5594397,0.6993013,307.13841,-21.492247)" gradientUnits="userSpaceOnUse"><stop offset="0" stop-color="#80ffe0"/><stop offset=".5" stop-color="#2a7fff"/><stop offset="1" stop-color="#37abc8"/></radialGradient><linearGradient id="B" x1="301.041" y1="272.362" x2="301.041" y2="432.362" gradientUnits="userSpaceOnUse"><stop offset="0" stop-color="#d5f6ff"/><stop offset="1" stop-color="#faa" stop-opacity="0"/></linearGradient><linearGradient id="C" x1="300.25" y1="252.362" x2="300.25" y2="452.362" gradientUnits="userSpaceOnUse"><stop offset="0" stop-color="#f4d7d7"/><stop offset="1" stop-color="#b18282" stop-opacity="0"/></linearGradient><path id="D" d="M441 412.362c0 77.28-62.72 140-140 140s-140-62.72-140-140 62.72-140 140-140 140 62.72 140 140z"/></defs><g transform="translate(-127.5 -237.862)"><path d="M471.986 411.362c0 94.384-76.602 170.986-170.986 170.986s-170.986-76.602-170.986-170.986S206.616 240.377 301 240.377s170.986 76.602 170.986 170.986z" fill="#280b0b" stroke="#000" stroke-width="5.029"/><path d="M300.25 242.375c-74.156 0-137.253 47.55-160.47 113.813 39.447 22.098 98.938 36.188 165.47 36.188 61.9 0 117.727-12.22 156.97-31.72-21.893-68.588-86.15-118.28-161.97-118.28z" fill="url(#C)"/><g stroke="#000" stroke-width="6" stroke-linejoin="round"><use xlink:href="#D" fill="#00112b"/><use xlink:href="#D" x="-1" transform="translate(1)" fill="url(#A)"/></g><path d="M298.23 273.844c-61.32.778-118.303 47.357-131.594 107.156 81.2 38.038 178.93 39.097 260.938 2.906 7.333-1.347 7.948-10.966 4.297-16.132-18.693-55.29-75.062-95.282-133.64-93.93z" fill="url(#B)"/></g></svg>