<svg xmlns="http://www.w3.org/2000/svg" xmlns:xlink="http://www.w3.org/1999/xlink" width="360.357" height="842.5"><defs><linearGradient id="A" xlink:href="#O"><stop offset="0" stop-color="#025"/><stop offset=".211" stop-color="#06f"/><stop offset=".407" stop-color="#0055d4"/><stop offset=".572" stop-color="#06f"/><stop offset=".691" stop-color="#0055d4"/><stop offset=".912" stop-color="#025"/><stop offset="1" stop-color="#003380"/></linearGradient><linearGradient id="B" xlink:href="#O"><stop offset="0" stop-color="#025"/><stop offset=".211" stop-color="#06f"/><stop offset=".407" stop-color="#0055d4"/><stop offset=".572" stop-color="#06f"/><stop offset=".691" stop-color="#0055d4"/><stop offset=".912" stop-color="#025"/><stop offset="1" stop-color="#003380"/></linearGradient><linearGradient xlink:href="#B" id="C" x1="261.531" y1="217.349" x2="291.531" y2="217.349"/><linearGradient xlink:href="#B" id="D" x1="271.531" y1="247.349" x2="281.531" y2="247.349"/><linearGradient id="E" x1="200" y1="612.362" x2="560" y2="612.362" xlink:href="#O"><stop offset="0" stop-color="#025"/><stop offset=".153" stop-color="#06f"/><stop offset=".342" stop-color="#0055d4"/><stop offset=".572" stop-color="#06f"/><stop offset=".691" stop-color="#0055d4"/><stop offset=".882" stop-color="#00112b"/><stop offset="1" stop-color="#003380"/></linearGradient><radialGradient id="F" gradientTransform="matrix(1.2313637e-7,-0.3729992,1.8696748,3.136526e-6,-279.18992,475.87469)" cx="448.919" cy="352.472" fx="448.919" fy="352.472" r="180" xlink:href="#O"><stop offset="0" stop-opacity=".04"/><stop offset="1"/></radialGradient><linearGradient id="G" x1="118.856" y1="296.768" x2="649.595" y2="302.656" xlink:href="#O"><stop offset="0" stop-color="#025"/><stop offset=".211" stop-color="#06f"/><stop offset=".407" stop-color="#0055d4"/><stop offset=".572" stop-color="#06f"/><stop offset=".691" stop-color="#0055d4"/><stop offset=".912" stop-color="#00112b"/><stop offset="1" stop-color="#003380"/></linearGradient><linearGradient xlink:href="#A" id="H" x1="220" y1="262.362" x2="230" y2="262.362"/><linearGradient xlink:href="#A" id="I" x1="210" y1="232.362" x2="240" y2="232.362"/><linearGradient xlink:href="#A" id="J" x1="500" y1="262.362" x2="510" y2="262.362"/><linearGradient id="K" x1="-520" y1="192.362" x2="-490" y2="192.362" xlink:href="#O"><stop offset="0" stop-color="#333"/><stop offset=".5" stop-color="#ccc"/><stop offset="1" stop-color="#ccc"/></linearGradient><linearGradient xlink:href="#A" id="L" x1="320.218" y1="235.149" x2="440" y2="235.149"/><linearGradient xlink:href="#A" id="M" x1="285" y1="190.219" x2="475" y2="188.076"/><path id="N" d="M240.094 237.362c0 2.76-6.716 5-15 5s-15-2.24-15-5 6.716-5 15-5 15 2.24 15 5z"/><linearGradient id="O" gradientUnits="userSpaceOnUse"/></defs><g transform="translate(-199.643 -92.362)"><path d="M380 154.375c-50.574 0-91.963 12.387-94.844 28H285v10h3.75c11.443 12.406 47.964 21.5 91.25 21.5s79.807-9.094 91.25-21.5H475v-10h-.156c-2.88-15.613-44.27-28-94.844-28z" fill="url(#M)"/><path d="M475 192.112c.012 10.63-18.093 20.456-47.49 25.773s-65.62 5.317-95.02 0-47.502-15.142-47.49-25.773c-.012-10.63 18.093-20.456 47.49-25.773s65.62-5.317 95.02 0 47.502 15.142 47.49 25.773z" fill="#00112b"/><path d="M379.813 177.375c-33.12 0-60 6.72-60 15 0 .372.08.728.188 1.094v88.906h120v-90h-.187c0-8.28-26.88-15-60-15z" fill="url(#L)"/><path transform="scale(-1 1)" d="M-520 142.362h30v90h-30z" fill="url(#K)"/><path d="M520 232.362a15 5 0 1 1-30 0 15 5 0 1 1 30 0z" fill="#00112b"/><path d="M505 230.375c-2.435 0-4.462.847-4.906 2H500v60h10v-60h-.094c-.444-1.153-2.47-2-4.906-2z" fill="url(#J)"/><path d="M223.47 227.375c-7.56.256-13.47 2.412-13.47 5v5h30v-5c0-2.76-6.72-5-15-5-.518 0-1.027-.017-1.53 0z" fill="url(#I)"/><use xlink:href="#N"/><path d="M225.094 235.362c-2.435 0-4.462.847-4.906 2h-.094v60h10v-60H230c-.444-1.153-2.47-2-4.906-2z" fill="url(#H)"/><path d="M275 212.362c-7.56.256-13.47 2.412-13.47 5v5h30v-5c0-2.76-6.72-5-15-5-.517 0-1.027-.017-1.53 0z" fill="url(#C)"/><use xlink:href="#N" x="51.531" y="-15.012"/><path d="M276.625 220.35c-2.435 0-4.462.847-4.906 2h-.094v60h10v-60h-.094c-.444-1.153-2.47-2-4.906-2z" fill="url(#D)"/><rect rx="180" ry="80" y="252.362" x="200" height="160" width="360" fill="url(#G)"/><rect width="360" height="160" x="199.643" y="252.362" ry="80" rx="180" opacity=".92" fill="url(#F)"/><path d="M379.817 312.362c-99.36 0-180 12.32-180 27.5v560c0 19.32 80.64 35 180 35s180-15.68 180-35v-560c0-15.18-80.64-27.5-180-27.5z" fill="url(#E)"/><path d="M376 162.362h8v42h-8zm64 30v25l35-25h-35z" fill="#2c5aa0"/><path d="M320 192.362h-35l35 25v-25z" fill="#003380"/><path d="M350 207.362l-20-40 20 12v28z" fill="#2c5aa0"/><path d="M410 207.362l20-40-20 12v28z" fill="#5f8dd3"/><path d="M350 207.362h-5l-20-40h5l20 40" fill="#003380"/><path d="M410 207.362h5l20-40h-5l-20 40z" fill="#025"/><path d="M530 132.362c0 22.09-17.91 40-40 40s-40-17.91-40-40 17.91-40 40-40 40 17.91 40 40z"/><path d="M520 132.362c0 16.57-13.43 30-30 30s-30-13.43-30-30 13.43-30 30-30 30 13.43 30 30z" fill="#e6e6e6"/><path d="M494 129.362l-6 7-18-24 24 17z" stroke="#000"/></g></svg>