<svg xmlns="http://www.w3.org/2000/svg" xmlns:xlink="http://www.w3.org/1999/xlink" width="731.669" height="530.964"><defs><linearGradient id="A" xlink:href="#V"><stop offset="0" stop-color="#025"/><stop offset=".211" stop-color="#06f"/><stop offset=".407" stop-color="#0055d4"/><stop offset=".572" stop-color="#06f"/><stop offset=".691" stop-color="#0055d4"/><stop offset=".912" stop-color="#025"/><stop offset="1" stop-color="#003380"/></linearGradient><linearGradient id="B" x1="524.464" y1="178.559" x2="524.464" y2="538.559" xlink:href="#V"><stop offset="0" stop-color="#025"/><stop offset=".153" stop-color="#06f"/><stop offset=".342" stop-color="#0055d4"/><stop offset=".572" stop-color="#06f"/><stop offset=".691" stop-color="#0055d4"/><stop offset=".882" stop-color="#00112b"/><stop offset="1" stop-color="#003380"/></linearGradient><radialGradient id="C" gradientTransform="matrix(1.2313637e-7,-0.3729992,1.8696748,3.136526e-6,-300.63111,387.97679)" cx="448.919" cy="352.472" fx="448.919" fy="352.472" r="180" xlink:href="#V"><stop offset="0" stop-opacity=".04"/><stop offset="1"/></radialGradient><linearGradient id="D" x1="97.415" y1="208.87" x2="628.154" y2="214.758" xlink:href="#V"><stop offset="0" stop-color="#025"/><stop offset=".211" stop-color="#06f"/><stop offset=".407" stop-color="#0055d4"/><stop offset=".572" stop-color="#06f"/><stop offset=".691" stop-color="#0055d4"/><stop offset=".912" stop-color="#00112b"/><stop offset="1" stop-color="#003380"/></linearGradient><radialGradient id="E" gradientTransform="matrix(1.2313637e-7,-0.3729992,1.8696748,3.136526e-6,-300.27908,-672.62045)" cx="448.919" cy="352.472" fx="448.919" fy="352.472" r="180" xlink:href="#V"><stop offset="0" stop-opacity=".04"/><stop offset="1"/></radialGradient><linearGradient id="F" x1="97.767" y1="-851.727" x2="628.506" y2="-845.839" xlink:href="#V"><stop offset="0" stop-color="#025"/><stop offset=".211" stop-color="#06f"/><stop offset=".407" stop-color="#0055d4"/><stop offset=".572" stop-color="#06f"/><stop offset=".691" stop-color="#0055d4"/><stop offset=".912" stop-color="#00112b"/><stop offset="1" stop-color="#003380"/></linearGradient><linearGradient id="G" xlink:href="#V"><stop offset="0" stop-color="#025"/><stop offset=".211" stop-color="#06f"/><stop offset=".407" stop-color="#0055d4"/><stop offset=".572" stop-color="#06f"/><stop offset=".691" stop-color="#0055d4"/><stop offset=".912" stop-color="#025"/><stop offset="1" stop-color="#003380"/></linearGradient><linearGradient id="H" xlink:href="#V"><stop offset="0" stop-color="#025"/><stop offset=".211" stop-color="#06f"/><stop offset=".407" stop-color="#0055d4"/><stop offset=".572" stop-color="#06f"/><stop offset=".691" stop-color="#0055d4"/><stop offset=".912" stop-color="#025"/><stop offset="1" stop-color="#003380"/></linearGradient><linearGradient id="I" x1="260" y1="514.094" x2="300" y2="514.094" xlink:href="#V"><stop offset="0" stop-color="#025"/><stop offset=".211" stop-color="#06f"/><stop offset=".407" stop-color="#0055d4"/><stop offset=".572" stop-color="#06f"/><stop offset=".691" stop-color="#0055d4"/><stop offset=".912" stop-color="#025"/><stop offset="1" stop-color="#003380"/></linearGradient><linearGradient id="J" x1="760" y1="504.094" x2="800" y2="504.094" xlink:href="#V"><stop offset="0" stop-color="#025"/><stop offset=".211" stop-color="#06f"/><stop offset=".407" stop-color="#0055d4"/><stop offset=".572" stop-color="#06f"/><stop offset=".691" stop-color="#0055d4"/><stop offset=".912" stop-color="#025"/><stop offset="1" stop-color="#003380"/></linearGradient><linearGradient xlink:href="#A" id="K" x1="395.679" y1="158.26" x2="385.679" y2="158.26"/><linearGradient xlink:href="#A" id="L" x1="405.679" y1="128.26" x2="375.679" y2="128.26"/><linearGradient xlink:href="#A" id="M" x1="595.973" y1="153.904" x2="476.191" y2="153.904"/><linearGradient xlink:href="#A" id="N" x1="631.191" y1="108.975" x2="441.191" y2="106.832"/><linearGradient xlink:href="#G" id="O" x1="395.679" y1="158.26" x2="385.679" y2="158.26"/><linearGradient xlink:href="#G" id="P" x1="405.669" y1="128.26" x2="375.669" y2="128.26"/><linearGradient xlink:href="#H" id="Q" x1="395.679" y1="158.26" x2="385.679" y2="158.26"/><linearGradient xlink:href="#H" id="R" x1="405.668" y1="128.26" x2="375.668" y2="128.26"/><path id="S" d="M392.2 123.273c7.56.256 13.47 2.412 13.47 5v5h-30v-5c0-2.76 6.72-5 15-5 .518 0 1.027-.017 1.53 0z"/><path id="T" d="M375.585 133.26c0 2.76 6.716 5 15 5s15-2.24 15-5-6.716-5-15-5-15 2.24-15 5z"/><path id="U" d="M390.585 131.26c2.435 0 4.462.847 4.906 2h.094v60h-10v-60h.094c.444-1.153 2.47-2 4.906-2z"/><linearGradient id="V" gradientUnits="userSpaceOnUse"/></defs><g transform="translate(-164.464 -73.13)"><use xlink:href="#S" fill="url(#L)"/><use xlink:href="#T"/><use xlink:href="#U" fill="url(#K)"/><g transform="matrix(0 1 1 0 0 0)"><rect rx="180" ry="80" y="164.464" x="178.559" height="160" width="360" fill="url(#D)"/><rect width="360" height="160" x="178.202" y="164.464" ry="80" rx="180" opacity=".92" fill="url(#C)"/></g><g transform="matrix(0 1 -1 0 0 0)"><rect rx="180" ry="80" y="-896.133" x="178.911" height="160" width="360" fill="url(#F)"/><rect width="360" height="160" x="178.554" y="-896.133" ry="80" rx="180" opacity=".92" fill="url(#E)"/></g><path d="M536.19 73.13c50.574 0 91.963 12.387 94.844 28h.156v10h-3.75c-11.443 12.406-47.964 21.5-91.25 21.5s-79.807-9.094-91.25-21.5h-3.75v-10h.156c2.88-15.613 44.27-28 94.844-28z" fill="url(#N)"/><path d="M441.19 110.867c-.012 10.63 18.093 20.456 47.49 25.773s65.62 5.317 95.02 0 47.502-15.142 47.49-25.773c.012-10.63-18.093-20.456-47.49-25.773s-65.62-5.317-95.02 0-47.502 15.142-47.49 25.773z" fill="#00112b"/><path d="M536.38 96.13c33.12 0 60 6.72 60 15 0 .372-.08.728-.187 1.094v88.906h-120v-90h.188c0-8.28 26.88-15 60-15z" fill="url(#M)"/><path d="M540.2 81.117h-8v42h8zm-64 30v25l-35-25h35z" fill="#2c5aa0"/><path d="M596.19 111.117h35l-35 25v-25z" fill="#003380"/><path d="M566.19 126.117l20-40-20 12v28z" fill="#2c5aa0"/><path d="M506.19 126.117l-20-40 20 12v28z" fill="#5f8dd3"/><path d="M566.19 126.117h5l20-40h-5l-20 40" fill="#003380"/><path d="M506.19 126.117h-5l-20-40h5l20 40z" fill="#025"/><use xlink:href="#S" x="266.443" y="-4.038" fill="url(#P)"/><use xlink:href="#T" x="266.433" y="-4.038"/><use xlink:href="#U" x="266.433" y="-4.038" fill="url(#O)"/><use xlink:href="#S" x="308.87" y="-4.038" fill="url(#R)"/><use xlink:href="#T" x="308.859" y="-4.038"/><use xlink:href="#U" x="308.859" y="-4.038" fill="url(#Q)"/><path d="M224.464 358.376c0-99.36 12.32-180 27.5-180h560c19.32 0 35 80.64 35 180s-15.68 180-35 180h-560c-15.18 0-27.5-80.64-27.5-180z" fill="url(#B)"/><rect rx="20" y="444.094" x="260" height="140" width="40" fill="url(#I)"/><rect rx="20" y="444.094" x="760" height="140" width="40" fill="url(#J)"/><rect rx="7.5" y="564.094" x="200" height="40" width="660" fill="#04a"/><path d="M180 584.094h700v20H180z" fill="#003380"/></g></svg>