<svg xmlns="http://www.w3.org/2000/svg" width="520" height="400"><defs><linearGradient id="A" x1="320" y1="812.362" x2="320" y2="692.362" gradientUnits="userSpaceOnUse"><stop offset="0" stop-color="#a48553"/><stop offset="1" stop-color="#f4d4a3" stop-opacity="0"/></linearGradient><linearGradient id="B" x1="560" y1="792.362" x2="520" y2="652.362" gradientUnits="userSpaceOnUse"><stop offset="0" stop-color="#b89661"/><stop offset="1" stop-color="#d9b378" stop-opacity="0"/></linearGradient></defs><g transform="translate(-120 -412.362)"><path d="M280 412.362h360v360H280z" fill="#d9b378"/><path d="M120 452.362h360v360H120z" fill="#edc384"/><path d="M480 812.362l160-40v-360l-160 40v360" fill="#d9b378"/><path d="M120 452.362h360l160-40H280l-160 40z" fill="#f4d4a3"/><path d="M480 812.362l160-40v-360l-160 40v360" fill="url(#B)"/><path d="M120 452.362h360v360H120z" fill="url(#A)"/><g fill="#2b1100" stroke="#000"><path d="M300 467.362l-50 45h100l-50-45z"/><path d="M280 512.362v65h40v-65h-40z"/></g><path d="M300 452.362h10l150-40h-10l-150 40z" fill="#a98957"/><g fill="#fff"><path d="M430 412.362l-150 40h55l145-40h-50z" opacity=".57"/><path d="M280 452.362v55l5-5 5 5 10-5 5 5 10-10 5 10 5-5 5 5 5-5v-50h-55z" opacity=".57"/></g></g></svg>