<svg xmlns="http://www.w3.org/2000/svg" viewBox="0 0 1024 1024" width="48" height="48"><path d="M727.137 421.4a217.18 217.18 0 1 0-217.164 217.027 217.363 217.363 0 0 0 217.164-217.027zm-373.026 0a155.893 155.893 0 1 1 155.893 155.786 156 156 0 0 1-155.893-155.786zm256.764 0a100.872 100.872 0 1 0-100.872 100.872A101.009 101.009 0 0 0 610.89 421.399zm-140.61 0a39.615 39.615 0 1 1 39.615 39.584 39.661 39.661 0 0 1-39.523-39.584zm152.026 465.874v-90.998a405.733 405.733 0 1 0-516.02-390.19A395.845 395.845 0 0 0 407.756 797.65v91.182a8.803 8.803 0 0 1-1.253-.092h-2.507c-90.173 15.284-178.283 43.222-178.283 103.714a31.041 31.041 0 0 0 30.246 31.484 29.757 29.757 0 0 0 30.399-29.849c6.037-14.75 84.472-51.765 233.84-51.765s227.91 37.078 233.747 50.436a30.644 30.644 0 1 0 61.287 0c.06-63.947-97.448-93.856-192.848-105.487zm-457.24-481.188a344.92 344.92 0 1 1 344.92 344.752 345.241 345.241 0 0 1-344.92-344.752zm396.013 476.022a743.699 743.699 0 0 0-38.331-1.039c-17.194 0-38.316.58-53.645 1.895V812.14h91.977v69.968z" fill="#515151"/></svg>