<svg xmlns="http://www.w3.org/2000/svg" viewBox="0 0 1243 1024" width="77.688" height="64"><path d="M146.286 0h73.143v1024h-73.143V0zm438.857 0h73.143v1024h-73.143V0zM1024 0h73.143v1024H1024V0zM182.857 73.143A182.857 182.857 0 1 1 0 256 182.857 182.857 0 0 1 182.857 73.143zm0 73.143A109.714 109.714 0 1 1 73.143 256a109.714 109.714 0 0 1 109.714-109.714zm438.857 438.857A182.857 182.857 0 1 1 438.857 768a182.857 182.857 0 0 1 182.857-182.857zm0 73.143A109.714 109.714 0 1 1 512 768a109.714 109.714 0 0 1 109.714-109.714zM1060.57 73.143A182.857 182.857 0 1 1 877.714 256a182.857 182.857 0 0 1 182.857-182.857zm0 73.143A109.714 109.714 0 1 1 950.857 256a109.714 109.714 0 0 1 109.714-109.714z" fill="#515151"/></svg>