<svg xmlns="http://www.w3.org/2000/svg" width="176" height="111.013"><defs><radialGradient id="A" gradientTransform="matrix(3.5699285e-7,-0.8333328,0.8333333,2.3942016e-7,-28.635255,725.69522)" cx="340" cy="442.362" fx="340" fy="442.362" r="32" gradientUnits="userSpaceOnUse"><stop offset="0" stop-color="#030000"/><stop offset=".74" stop-color="#fff"/><stop offset="1" stop-color="#666"/></radialGradient></defs><g transform="translate(-109.5 -461.862)"><g stroke="#000"><path d="M165 462.375c-30.36 0-55 24.64-55 55s24.64 55 55 55v-10c-24.84 0-45-20.16-45-45s20.16-45 45-45v-10z" fill="#666"/><path d="M116 542.362l49-24.5-49-24.5" fill="none" stroke-width=".98"/></g><rect width="125" height="90" x="160" y="472.362" rx="0" ry="45" fill="#1a1a1a"/><path d="M134 472.362l31 45.5-31 45.5" fill="none" stroke="#000" stroke-width="1.022"/><path d="M164.05 472.357c-30.1-.833-53.756 35.044-40.78 62.312 9.908 25.692 46.47 36.816 68.22 19.28 20.565-14.45 25.39-48.003 7.28-66.25-8.657-9.735-21.542-15.94-34.72-15.344z"/><path d="M370 442.362c0 16.56-13.44 30-30 30s-30-13.44-30-30 13.44-30 30-30 30 13.44 30 30z" transform="translate(-175 75)" fill="url(#A)" stroke="#000" stroke-width="4" stroke-linejoin="round"/><path d="M164.375 490.037c-12.385.012-23.867 9.716-26.167 21.813 17.482 3.957 36.225 4.027 53.375-.958-2.78-12.166-14.717-21.358-27.208-20.854z" opacity=".345" fill="#fff"/><g stroke="#000"><path d="M175 517.362c0 5.52-4.48 10-10 10s-10-4.48-10-10 4.48-10 10-10 10 4.48 10 10z" fill="#030000" stroke-width="4" stroke-linejoin="round"/><g fill="#666"><path d="M165 462.362h30v10h-30zm0 100h30v10h-30z"/><path d="M195 462.362h30v10h-30zm0 100h30v10h-30z"/></g><path d="M120 517.362h-10" fill="none"/><g fill="#666"><path d="M225 462.362h30v10h-30z"/><path d="M255 462.362h30v10h-30zm-30 100h30v10h-30z"/><path d="M255 562.362h30v10h-30z"/></g></g></g></svg>