<svg xmlns="http://www.w3.org/2000/svg" viewBox="0 0 1449 1024" width="90.563" height="64"><path d="M622.744 696.695c-36.367 64.828-11.2 115.548 39.286 146.563 50.476 28.218 109.345 25.3 145.712-39.53 36.5-64.828 269.167-634.055 249.463-648.164-19.582-8.514-395.175 479.1-434.46 541.13zm100.952-405.88c22.38 0 44.76 2.798 67.262 5.595l75.653-92.925c-44.88-14.11-92.56-19.825-142.915-19.825-299.938 0-532.616 253.72-532.616 577.74 0 19.705 0 39.53 2.798 59.234 2.797 28.218 28.096 50.72 58.868 47.922 27.975-2.797 50.477-28.218 47.68-59.233-2.798-16.907-2.798-33.813-2.798-50.72-.122-262 187.796-467.788 426.068-467.788zm383.985 67.748c-13.987 39.408-30.772 81.735-44.76 115.548 53.153 78.938 86.844 177.58 86.844 284.614 0 16.906 0 33.813-2.797 50.72-2.798 28.217 19.704 56.435 47.678 59.233h5.595c28.097 0 50.477-19.704 53.274-47.922 2.798-19.704 2.798-39.53 2.798-59.234 0-160.673-56.193-301.52-148.632-402.96z"/></svg>