<svg xmlns="http://www.w3.org/2000/svg" xmlns:xlink="http://www.w3.org/1999/xlink" width="572.082" height="732.633"><defs><linearGradient id="A" xlink:href="#Q"><stop offset="0" stop-color="#999"/><stop offset=".5" stop-color="#e6e6e6"/><stop offset="1" stop-color="#999"/></linearGradient><linearGradient xlink:href="#A" id="B" x1="415.86" y1="11.746" x2="575.86" y2="11.746"/><radialGradient id="C" gradientTransform="matrix(1.0822216e-7,-0.9999999,0.969697,3.5669737e-7,-60.623995,702.36203)" cx="315" cy="387.362" fx="315" fy="387.362" r="85" xlink:href="#Q"><stop offset="0" stop-color="#fff"/><stop offset=".74" stop-color="#fff"/><stop offset="1" stop-color="#fff" stop-opacity="0"/></radialGradient><mask maskUnits="userSpaceOnUse" id="D"><path transform="matrix(.389604 -.598676 .915622 .595864 16.592734 -70.601488)" d="m 400,387.36218 a 85,85 0 1 1 -170,0 85,85 0 1 1 170,0 z" opacity="1" fill="url(#C)" fill-opacity="1" fill-rule="nonzero" stroke="none"/></mask><radialGradient id="E" gradientTransform="matrix(2.5680978,-3.5169255e-6,0,0.1166613,-257.73542,893.25483)" cx="250.042" cy="150.831" fx="250.042" fy="150.831" r="242.5" xlink:href="#Q"><stop offset="0" stop-color="#510e0e"/><stop offset=".5" stop-color="#a80707"/><stop offset="1" stop-color="red"/></radialGradient><radialGradient id="F" gradientTransform="matrix(0.529412,-3.9584746e-8,-1.1328202e-5,6.6627445,250.14965,-2188.1894)" cx="250" cy="227.813" fx="250" fy="227.813" r="42.5" xlink:href="#Q"><stop offset="0" stop-color="#ccc"/><stop offset="1" stop-color="#4d4d4d"/></radialGradient><radialGradient id="G" gradientTransform="matrix(-5.7056783e-5,1.8860246,-0.9414418,-8.2801114e-8,509.90355,-1254.9349)" cx="250" cy="134" fx="250" fy="134" r="52.5" xlink:href="#Q"><stop offset="0" stop-color="#ccc"/><stop offset="1" stop-color="#4d4d4d"/></radialGradient><radialGradient id="H" gradientTransform="matrix(0.7908112,8.9535803e-8,2.7431468e-5,2.4895527,184.05212,-1178.7865)" cx="252.5" cy="153.125" fx="252.5" fy="153.125" r="62.5" xlink:href="#Q"><stop offset="0" stop-color="#ccc"/><stop offset="1" stop-color="#4d4d4d"/></radialGradient><linearGradient id="I" x1="390" y1="882.362" x2="390.277" y2="793.746" xlink:href="#Q"><stop offset="0" stop-color="#510e0e"/><stop offset=".5" stop-color="#a80707"/><stop offset="1" stop-color="#d40000"/></linearGradient><linearGradient id="J" x1="325" y1="677.362" x2="435" y2="677.362" xlink:href="#Q"><stop offset="0" stop-color="#999"/><stop offset=".5" stop-color="#e6e6e6"/><stop offset="1" stop-color="#999"/></linearGradient><linearGradient xlink:href="#A" id="K" x1="325" y1="627.362" x2="435" y2="627.362"/><linearGradient id="L" x1="300" y1="428.076" x2="460" y2="428.076" xlink:href="#Q"><stop offset="0" stop-color="#999"/><stop offset=".5" stop-color="#e6e6e6"/><stop offset="1" stop-color="#999"/></linearGradient><linearGradient id="M" x1="300" y1="648.076" x2="460" y2="648.076" xlink:href="#Q"><stop offset="0" stop-color="#666"/><stop offset=".5" stop-color="#e6e6e6"/><stop offset="1" stop-color="#666"/></linearGradient><linearGradient id="N" x1="386.977" y1="165.497" x2="606.977" y2="165.497" xlink:href="#Q"><stop offset="0" stop-color="#999"/><stop offset=".5" stop-color="#e6e6e6"/><stop offset="1" stop-color="#999"/></linearGradient><linearGradient id="O" x1="416.977" y1="31.211" x2="576.977" y2="31.211" xlink:href="#Q"><stop offset="0" stop-color="#999"/><stop offset=".5" stop-color="#e6e6e6"/><stop offset="1" stop-color="#999"/></linearGradient><path id="P" d="M360.564 689.872s13.57 4.286 25 5.357 20.357.714 20.357.714-.893 3.57-20.536 2.143-25.536-7.5-24.82-8.214z"/><linearGradient id="Q" gradientUnits="userSpaceOnUse"/></defs><g transform="translate(-49.557 -192.362)"><rect width="45" height="162.821" x="360" y="-762.362" ry="5" rx="0" transform="scale(1 -1)" fill="url(#F)"/><g id="R"><path d="M448 889.518v-15.705c0-18.106-18.444-55.728-41.344-55.728l-21.762 1.005c-22.9 0-21.582 23.832-21.582 54.724v15.705H448z" fill="#780a0a"/><path d="M319.483 882.445v-14.15c0-16.313 18.3-50.2 41.02-50.2l21.59.905c22.72 0 21.412 21.472 21.412 49.305v14.15h-83.703c-.108 0-.213-.001-.32 0z" fill="#660c0c"/><path d="M173.492 924.88c-14.96 0-27-12.618-27-28.3s12.04-28.3 27-28.3h81.738c0-31.346 29.036-56.58 65.118-56.58h126.777c36.082 0 65.118 25.235 65.118 56.58h81.738c14.96 0 27 12.618 27 28.3s-12.04 28.3-27 28.3h-420.49zm105.34-56.58h80.193v-7.912c0-15.535 1.263-27.495-20.42-27.495l-20.604-.53c-21.682 0-39.17 18.92-39.17 28.025v7.912zm129.62 0h80.193v-7.912c0-9.105-17.488-28.025-39.17-28.025l-20.604.53c-21.682 0-20.42 11.96-20.42 27.495v7.912z" fill="url(#I)"/><g transform="scale(1 -1)"><rect ry="5" rx="0" y="-811.719" x="324.425" height="21.218" width="118.622" fill="url(#H)"/><rect rx="0" ry="5" y="-790.501" x="334.31" height="28.29" width="98.851" fill="url(#G)"/></g><use xlink:href="#P" fill="#4d4d4d"/><rect rx="25.233" ry="27.602" y="868.414" x="147.153" height="56.581" width="474.487" fill="url(#E)"/><path d="M592.835 871.358c10.283 0 19.09 4.62 23.202 11.316-4.112 6.696-12.92 11.316-23.202 11.316H174.638c-10.283 0-19.09-4.62-23.203-11.316 4.112-6.696 12.92-11.316 23.203-11.316h418.196z" opacity=".298" fill="#ececec"/><g fill="#4d4d4d"><use xlink:href="#P" x="-0.921" y="47.133"/><use xlink:href="#P" x="-0.714" y="39.108"/><use xlink:href="#P" x="-0.536" y="31.25"/><use xlink:href="#P" x="-0.357" y="7.5"/><use xlink:href="#P" y="15.358"/><use xlink:href="#P" x="-0.714" y="22.858"/><use xlink:href="#P" x="-0.714" y="53.928"/></g></g><use xlink:href="#R" width="572.082" height="732.633" y="-99.716"/><g transform="matrix(.557601 .830109 -.830109 .557601 0 0)"><path d="M416.977-94.503h160v240h-160z" fill="url(#O)"/><path d="M386.977 145.497h220v40h-220z" fill="url(#N)"/></g><path d="M300 632.362h160v30H300z" fill="url(#M)"/><path d="M300 192.362h160v450H300z" fill="url(#L)"/><path mask="url(#D)" transform="matrix(.545445 .838147 -.838146 .545445 4.04061 -1.010152)" d="M415.86-155.873h160v320h-160z" fill="url(#B)"/><path d="M325 612.362h110v30H325z" fill="url(#K)"/><path d="M280 612.362h60v30h-60z" fill="#a0a0a0"/><path d="M420 612.362h60v30h-60z" fill="#999"/><path d="M325 662.362h110v30H325z" fill="url(#J)"/><path d="M280 662.362h60v30h-60z" fill="#a0a0a0"/><path d="M420 662.362h60v30h-60z" fill="#999"/><path d="M300 642.362h160v20H300z" opacity=".243" fill="#666"/></g></svg>