<svg xmlns="http://www.w3.org/2000/svg" viewBox="0 0 1024 1024" width="64" height="64"><path d="M913.5 917.2H362.2c-25.3 0-45.9-20.7-45.9-46.1s20.6-46.1 45.9-46.1h551.4c25.3 0 45.9 20.7 45.9 46.1-.1 25.6-20.6 46.1-46 46.1zM64.6 876.1a80.1 80.4 0 1 0 160.2 0 80.1 80.4 0 1 0-160.2 0zm848.9-329.4H362.2c-25.3 0-45.9-20.7-45.9-46.1s20.6-46.1 45.9-46.1h551.4c25.3 0 45.9 20.7 45.9 46.1-.1 25.4-20.6 46.1-46 46.1zM64.6 509.5a80.1 80.4 0 1 0 160.2 0 80.1 80.4 0 1 0-160.2 0zM913.5 180H362.2c-25.3 0-45.9-20.7-45.9-46.1s20.6-46.1 45.9-46.1h551.4c25.3 0 45.9 20.7 45.9 46.1-.1 25.5-20.6 46.1-46 46.1zM64.6 143a80.1 80.4 0 1 0 160.2 0 80.1 80.4 0 1 0-160.2 0z"/></svg>