<svg xmlns="http://www.w3.org/2000/svg" xmlns:xlink="http://www.w3.org/1999/xlink" width="560" height="880"><defs><linearGradient id="A" x1="305.583" y1="762.187" x2="304.808" y2="599.368" xlink:href="#M"><stop offset="0" stop-color="red"/><stop offset="1" stop-color="red" stop-opacity="0"/></linearGradient><linearGradient id="B" x1="351.806" y1="906.123" x2="341.281" y2="620.844" xlink:href="#M"><stop offset="0" stop-color="#ff0"/><stop offset="1" stop-color="#ff0" stop-opacity="0"/></linearGradient><linearGradient id="C" x1="389.676" y1="912.476" x2="369.775" y2="475.428" xlink:href="#M"><stop offset="0" stop-color="red"/><stop offset="1" stop-color="red" stop-opacity="0"/></linearGradient><radialGradient id="D" cx="360" cy="701.901" fx="360" fy="701.901" r="320" gradientTransform="matrix(1.0833335,5.8064434e-2,-7.3966117e-2,0.9524554,21.916814,60.348611)" xlink:href="#M"><stop offset="0" stop-color="#ff0"/><stop offset="1" stop-color="red"/></radialGradient><linearGradient id="E" x1="240" y1="192.362" x2="480" y2="192.362" xlink:href="#M"><stop offset="0" stop-color="#999"/><stop offset=".25" stop-color="#c9c9c9"/><stop offset=".375" stop-color="#e1e1e1"/><stop offset=".438" stop-color="#ededed"/><stop offset=".5" stop-color="#f9f9f9"/><stop offset="1" stop-color="gray"/></linearGradient><linearGradient id="F" x1="300" y1="452.362" x2="220" y2="412.362" xlink:href="#M"><stop offset="0" stop-color="#f6f6f6"/><stop offset="1" stop-color="#a2a2a2" stop-opacity=".942"/></linearGradient><linearGradient id="G" x1="340" y1="472.362" x2="520" y2="392.362" xlink:href="#M"><stop offset="0" stop-color="#f6f6f6" stop-opacity="0"/><stop offset="1" stop-color="#868686"/></linearGradient><linearGradient id="H" x1="80" y1="732.362" x2="640" y2="732.362" xlink:href="#M"><stop offset="0" stop-color="#7f7f7f"/><stop offset=".5" stop-color="#8b8b8b" stop-opacity=".043"/><stop offset="1" stop-color="#868686"/></linearGradient><linearGradient id="I" x1="360" y1="932.362" x2="360" y2="532.362" xlink:href="#M"><stop offset="0" stop-opacity=".695"/><stop offset=".5" stop-color="#8b8b8b" stop-opacity=".043"/><stop offset="1" stop-color="#868686"/></linearGradient><linearGradient id="J" x1="360" y1="1012.362" x2="360" y2="452.362" xlink:href="#M"><stop offset="0" stop-color="#d40000"/><stop offset="1" stop-color="#d40000" stop-opacity="0"/></linearGradient><path id="K" d="M280 872.362c-103.618-3.7-41.447-70.308-41.447-70.308s-8.882 18.502 0 23.436 34.046-34.537 22.204-59.207 38.487 41.938 31.085 69.075 22.204 6.167 22.204-12.335-12.212-19.12-12.212-19.12c14.822-5.293 55.813 42.49 18.503 58.282-30.285 12.818-40.707 10.485-40.337 10.176z"/><path id="L" d="M448.375 668.7c-34.13-1.91-13.652-36.264-13.652-36.264s-2.925 9.543 0 12.088 11.214-17.814 7.314-30.538 12.677 21.63 10.24 35.628 7.314 3.18 7.314-6.362-4.022-9.86-4.022-9.86c4.882-2.73 18.384 21.916 6.095 30.06-9.975 6.61-13.408 5.408-13.286 5.25z"/><linearGradient id="M" gradientUnits="userSpaceOnUse"/></defs><g transform="translate(-80 -52.362)"><path d="M80 532.362h560v400H80z" fill="url(#H)"/><path d="M80 532.362h560v400H80z" fill="url(#I)"/><path d="M80 532.375v138.72c112.35 74.862 268.028 121.28 440 121.28 41.052 0 81.172-2.645 120-7.687V532.375H80z" opacity=".478" fill="#ececec"/><path d="M100 552.362h520v360H100z" fill="url(#D)" stroke="#525252" stroke-width="8.492"/><path d="M222.615 880.027s-74.205-17.27-89.046-34.537 19.08-67.84 19.08-67.84-14.84 49.956 11.66 60.44 43.463-16.035 43.463-16.035 23.322-28.987-6.36-57.973-4.24-66.608-4.24-66.608-1.06 22.82 16.96 38.238 21.2-14.802 21.2-14.802 3.18-17.885-9.54-33.92 0-49.956 31.802-64.14S300 612.362 300 612.362s-57.244 20.352-24.382 51.806 94.346-.617 101.767-22.203-28.622-51.806-47.703-60.44-42.403-14.802-42.403-14.802 117.668 6.167 143.1 34.537 30.742 37.004 24.382 57.357-16.96 75.242 15.9 69.075 19.08-37.62 19.08-37.62 25.442 20.352 12.72 59.824 13.78 32.07 13.78 32.07 32.862-1.85 32.862-26.52-26.502-33.304-26.502-33.304 91.166 46.872 62.544 94.978-128.27 63.524-128.27 63.524-71.025 16.652-139.93 10.485-94.346-11.1-94.346-11.1z" fill="url(#J)"/><path d="M313.615 768.64c-73.618-12.277-52.797-72.72-52.797-72.72s.744 18.888 5.205 29.276 24.167-30.693 13.385-47.22 15.244-34.943 15.244-34.943-13.385 17-1.86 29.75 16.36-8.5 16.36-8.5 4.462 7.083 1.86 17.47-1.487 30.693 8.923 25.97 1.86-23.138 1.86-23.138 11.154 3.778 13.385 17.944-7.436 32.1-7.436 32.1 5.95 1.417 10.782-5.666 4.1-16.055 4.1-16.055 13.757 8.027 7.064 23.6-35.694 32.582-36.065 32.1z" fill="url(#A)"/><path d="M436.687 868.274s52.093-14.007 62.398-27.713-13.993-53.452-13.993-53.452 10.86 39.356-7.71 47.766-30.728-12.436-30.728-12.436-16.657-22.762 3.998-45.792 2.434-52.597 2.434-52.597.935 18.007-11.624 30.268-15.047-11.576-15.047-11.576-2.386-14.1 6.436-26.823-.413-39.43-22.917-50.467-29.936-8.06-29.936-8.06 40.465 15.774 17.59 40.768-66.42-.008-71.82-17.008 19.72-41.037 33.08-47.95 29.727-11.9 29.727-11.9-82.78 5.466-100.455 27.988-21.335 29.365-16.69 45.397 12.562 59.304-10.623 54.603-13.743-29.598-13.743-29.598-17.74 16.194-8.46 47.285-9.436 25.384-9.436 25.384-23.148-1.294-23.352-20.766 18.38-26.422 18.38-26.422-63.788 37.46-43.242 75.286 90.82 49.5 90.82 49.5 50.135 12.783 98.59 7.565 66.323-9.242 66.323-9.242z" fill="url(#C)"/><path d="M379.535 882.932C195.35 863.86 247.442 769.967 247.442 769.967s1.86 29.342 13.023 45.48 60.465-47.68 33.488-73.354 38.14-54.282 38.14-54.282-33.488 26.407-4.65 46.213 40.93-13.204 40.93-13.204 11.163 11.003 4.65 27.14-3.72 47.68 22.326 40.345 4.65-35.943 4.65-35.943 27.907 5.868 33.488 27.874-18.605 49.88-18.605 49.88 14.884 2.2 26.977-8.802 10.233-24.94 10.233-24.94 34.42 12.47 17.674 36.677-89.302 50.614-90.233 49.88z" fill="url(#B)"/><g fill="#f60"><use xlink:href="#K"/><path d="M230.15 793.715c103.618-3.7 41.447-70.308 41.447-70.308s8.882 18.502 0 23.436-34.046-34.537-22.204-59.207-38.487 41.938-31.085 69.075-22.204 6.167-22.204-12.335 12.212-19.12 12.212-19.12c-14.822-5.293-55.813 42.49-18.503 58.282 30.285 12.818 40.707 10.485 40.337 10.176z"/></g><g fill="#ff0"><use xlink:href="#L"/><use xlink:href="#L" x="-196.489" y="88.838"/></g><use xlink:href="#K" x="125.193" y="-60.749" fill="#f60"/><path d="M80 532.362l160-200h240l160 200" fill="url(#F)"/><path d="M240 52.362h240v280H240z" fill="url(#E)"/><path d="M80 532.362l160-200h240l160 200" fill="url(#G)"/><path d="M80 532.362h560v400H80z" opacity="0" fill="#7f7f7f"/><path d="M310 332.362h50v200H220l90-200z" fill="#ececec"/><path d="M240 332.362h240l49.286 61.43s-58.57-52.143-289.286-61.43z" opacity=".212"/><path d="M270 52.362h20v280h-20z" fill="#ccc"/><path d="M310 52.362h50v280h-50z" opacity=".695" fill="#fff"/><path d="M270 332.362l-130 200h40l110-200h-20z" fill="#ccc"/></g></svg>