<?xml version="1.0" standalone="no"?><!DOCTYPE svg PUBLIC "-//W3C//DTD SVG 1.1//EN"
        "http://www.w3.org/Graphics/SVG/1.1/DTD/svg11.dtd">
<svg t="1582879652631" class="icon" viewBox="0 0 2824 1024" version="1.1" xmlns="http://www.w3.org/2000/svg"
     p-id="22951" width="132.375" height="48" xmlns:xlink="http://www.w3.org/1999/xlink">
    <defs>
        <style type="text/css"></style>
    </defs>
    <path d="M971.086095 0H552.696065a102.667276 102.667276 0 0 1-5.809905 12.672209L0 1024h416.251824L963.146336 12.692254c2.321958-4.298127 5.001396-8.527765 7.939759-12.692254zM1897.916346 0H1479.526316a102.667276 102.667276 0 0 1-5.809905 12.672209L926.831922 1024h416.251824L1889.976587 12.692254c2.321958-4.298127 5.001396-8.527765 7.939759-12.692254zM2824.746597 0h-418.390029a102.667276 102.667276 0 0 1-5.809906 12.672209L1853.662173 1024h416.251824L2816.806838 12.692254c2.323628-4.298127 5.001396-8.527765 7.939759-12.692254z"
          p-id="22952"></path>
</svg>