<svg xmlns="http://www.w3.org/2000/svg" xmlns:xlink="http://www.w3.org/1999/xlink" width="480" height="640"><style><![CDATA[.B{fill:#4d4d4d}.C{fill:#9c9c9c}.D{fill:silver}.E{fill:#7c7c7c}.F{opacity:.496}]]></style><defs><linearGradient id="A" xlink:href="#k"><stop offset="0" stop-color="#e6e6e6"/><stop offset=".5" stop-color="#ccc"/><stop offset=".778" stop-color="#4d4d4d"/><stop offset="1" stop-color="#505050"/></linearGradient><linearGradient id="B" xlink:href="#k"><stop offset="0" stop-color="#4d4d4d"/><stop offset=".219" stop-color="#999"/><stop offset=".5" stop-color="#ccc"/><stop offset=".778" stop-color="gray"/><stop offset="1" stop-color="#4d4d4d"/></linearGradient><linearGradient xlink:href="#B" id="C" x1="180" y1="532.362" x2="180" y2="812.362"/><linearGradient xlink:href="#B" id="D" x1="580" y1="812.362" x2="580" y2="532.362"/><linearGradient xlink:href="#B" id="E" x1="240" y1="752.362" x2="240" y2="592.362"/><radialGradient xlink:href="#A" id="F" cx="380" cy="675.219" fx="380" fy="675.219" r="120" gradientTransform="matrix(1.0000001,5.6081236e-7,-3.7710417e-7,1.0238091,0.00022142498,-16.076621)"/><linearGradient xlink:href="#B" id="G" x1="315" y1="572.362" x2="445" y2="572.362"/><linearGradient xlink:href="#B" id="H" x1="240" y1="492.362" x2="520" y2="492.362"/><linearGradient xlink:href="#B" id="I" x1="340" y1="382.362" x2="420" y2="382.362"/><linearGradient xlink:href="#B" id="J" x1="320" y1="262.362" x2="440" y2="262.362"/><radialGradient id="K" gradientTransform="matrix(1.0000001,5.6081236e-7,-3.7710417e-7,1.0238091,0.00022142498,-16.076621)" cx="380" cy="675.219" fx="380" fy="675.219" r="120" xlink:href="#k"><stop offset="0" stop-color="#e6e6e6"/><stop offset=".5" stop-color="#ccc"/><stop offset=".778" stop-color="gray"/><stop offset="1" stop-color="#585858" stop-opacity="0"/></radialGradient><linearGradient id="L" x1="270" y1="532.362" x2="270" y2="547.362" xlink:href="#k"><stop offset="0" stop-color="#4d4d4d"/><stop offset="1" stop-color="#4d4d4d" stop-opacity="0"/></linearGradient><linearGradient y2="547.362" x2="335" y1="532.362" x1="335" id="M" xlink:href="#k"><stop offset="0" stop-color="#4d4d4d"/><stop offset="1" stop-color="#4d4d4d" stop-opacity="0"/></linearGradient><linearGradient y2="547.362" x2="420" y1="532.362" x1="420" id="N" xlink:href="#k"><stop offset="0" stop-color="#4d4d4d"/><stop offset="1" stop-color="#4d4d4d" stop-opacity="0"/></linearGradient><linearGradient y2="547.362" x2="485" y1="532.362" x1="485" id="O" xlink:href="#k"><stop offset="0" stop-color="#4d4d4d"/><stop offset="1" stop-color="#4d4d4d" stop-opacity="0"/></linearGradient><linearGradient y2="567.362" x2="370.714" y1="532.362" x1="370.714" id="P" xlink:href="#k"><stop offset="0" stop-color="#1a1a1a"/><stop offset="1" stop-color="#4d4d4d" stop-opacity="0"/></linearGradient><linearGradient id="Q" x1="381.429" y1="252.362" x2="381.429" y2="397.362" xlink:href="#k"><stop offset="0" stop-color="#b3b3b3" stop-opacity="0"/><stop offset=".075" stop-color="#999"/><stop offset=".14" stop-color="#e6e6e6"/><stop offset=".363" stop-color="#b3b3b3"/><stop offset=".829" stop-color="#b3b3b3"/><stop offset=".897" stop-color="#ccc"/><stop offset=".937" stop-color="gray"/><stop offset="1" stop-color="#b3b3b3" stop-opacity="0"/></linearGradient><linearGradient id="R" x1="380" y1="242.362" x2="380" y2="432.362" xlink:href="#k"><stop offset="0" stop-color="#b3b3b3" stop-opacity="0"/><stop offset=".118" stop-color="#999"/><stop offset=".193" stop-color="#e6e6e6"/><stop offset=".363" stop-color="#b3b3b3"/><stop offset=".649" stop-color="#b3b3b3"/><stop offset=".713" stop-color="#ccc"/><stop offset=".78" stop-color="gray"/><stop offset="1" stop-color="#b3b3b3" stop-opacity="0"/></linearGradient><linearGradient id="S" x1="390" y1="341.978" x2="400" y2="341.978" xlink:href="#k"><stop offset="0" stop-color="#4d4d4d"/><stop offset="1" stop-color="#4d4d4d" stop-opacity="0"/></linearGradient><linearGradient y2="320.054" x2="415" y1="320.054" x1="405" id="T" xlink:href="#k"><stop offset="0" stop-color="#4d4d4d"/><stop offset="1" stop-color="#4d4d4d" stop-opacity="0"/></linearGradient><linearGradient y2="341.978" x2="-360" y1="341.978" x1="-370" id="U" xlink:href="#k"><stop offset="0" stop-color="#4d4d4d"/><stop offset="1" stop-color="#4d4d4d" stop-opacity="0"/></linearGradient><linearGradient id="V" x1="300" y1="327.362" x2="320" y2="327.362" xlink:href="#k"><stop offset="0" stop-color="#4d4d4d"/><stop offset=".219" stop-color="#999"/><stop offset=".5" stop-color="#ccc"/><stop offset=".778" stop-color="#999"/><stop offset="1" stop-color="#999"/></linearGradient><linearGradient y2="327.362" x2="-440" y1="327.362" x1="-460" id="W" xlink:href="#k"><stop offset="0" stop-color="#4d4d4d"/><stop offset=".219" stop-color="#999"/><stop offset=".5" stop-color="#ccc"/><stop offset=".778" stop-color="#999"/><stop offset="1" stop-color="#999"/></linearGradient><linearGradient xlink:href="#B" id="X" x1="440" y1="352.362" x2="450" y2="352.362"/><linearGradient xlink:href="#B" id="Y" x1="310" y1="352.362" x2="320" y2="352.362"/><linearGradient xlink:href="#B" id="Z" x1="325" y1="232.362" x2="435" y2="232.362"/><linearGradient xlink:href="#B" id="a" x1="340" y1="222.362" x2="420" y2="222.362"/><linearGradient y2="322.362" x2="374.286" y1="292.362" x1="374.286" id="b" xlink:href="#k"><stop offset="0" stop-color="#1a1a1a"/><stop offset="1" stop-color="#4d4d4d" stop-opacity="0"/></linearGradient><linearGradient y2="222.362" x2="374.286" y1="212.362" x1="374.286" id="c" xlink:href="#k"><stop offset="0" stop-color="#1a1a1a"/><stop offset="1" stop-color="#4d4d4d" stop-opacity="0"/></linearGradient><linearGradient y2="347.362" x2="444.286" y1="337.362" x1="444.286" id="d" xlink:href="#k"><stop offset="0" stop-color="#1a1a1a"/><stop offset="1" stop-color="#4d4d4d" stop-opacity="0"/></linearGradient><linearGradient y2="347.362" x2="314.286" y1="337.362" x1="314.286" id="e" xlink:href="#k"><stop offset="0" stop-color="#1a1a1a"/><stop offset="1" stop-color="#4d4d4d" stop-opacity="0"/></linearGradient><radialGradient xlink:href="#A" id="f" gradientTransform="matrix(1.0000001,5.6081236e-7,-3.7710417e-7,1.0238091,2.2142498e-4,-16.076621)" cx="380" cy="675.219" fx="380" fy="675.219" r="120"/><path id="g" d="M500 675.22c0 67.817-53.76 122.857-120 122.857s-120-55.04-120-122.857 53.76-122.857 120-122.857 120 55.04 120 122.857z"/><path id="h" d="M265 437.362h15v15h-15z"/><path id="i" d="M255 437.362h10v15h-10z"/><path id="j" d="M307 382.362c0 4.416 3.584 8 8 8s8-3.584 8-8-3.584-8-8-8-8 3.584-8 8z"/><linearGradient id="k" gradientUnits="userSpaceOnUse"/></defs><g transform="translate(-140 -172.362)"><use xlink:href="#g" fill="url(#f)"/><use xlink:href="#g" fill="url(#F)"/><path d="M160 592.362h440v160H160z" fill="url(#E)"/><path d="M560 532.362h40v280h-40z" fill="url(#D)"/><path d="M160 532.362h40v280h-40z" fill="url(#C)"/><path d="M315 512.362h130v100H315z" fill="url(#G)"/><path d="M315 532.362h130v35H315z" fill="url(#P)"/><use xlink:href="#g" transform="matrix(1 0 0 .976744 0 15.702788)" fill="url(#K)"/><path d="M240 452.362h280v80H240z" fill="url(#H)"/><path d="M440 337.362h10v35h-10z" fill="url(#X)"/><path d="M410 367.362v45l39.906-15.844c5.875-2.033 10.094-7.593 10.094-14.156a15.01 15.01 0 0 0-15-15h-35z" fill="#777"/><path d="M310 337.362h10v35h-10z" fill="url(#Y)"/><path d="M350 367.362v45l-39.47-15.687-.437-.156C304.22 394.485 300 388.925 300 382.362a15.01 15.01 0 0 1 15-15h35z" fill="#999"/><path d="M340 292.362h80v160h-80z" fill="url(#I)"/><path d="M340 292.362h80v30h-80z" fill="url(#b)"/><path d="M320 232.362h120v60H320z" fill="url(#J)"/><path d="M240 492.362h280" fill="none" stroke="#000" stroke-width="4"/><rect rx="2.5" width="15" height="10" x="265" y="432.362" class="B"/><use xlink:href="#h" class="C"/><use xlink:href="#i" class="D"/><use xlink:href="#i" x="25" class="E"/><rect width="15" height="10" x="480" y="432.362" rx="2.5" class="B"/><use xlink:href="#h" x="215" class="C"/><use xlink:href="#i" x="215" class="D"/><use xlink:href="#i" x="240" class="E"/><rect width="15" height="10" x="330" y="432.362" rx="2.5" class="B"/><use xlink:href="#h" x="65" class="C"/><use xlink:href="#i" x="65" class="D"/><use xlink:href="#i" x="90" class="E"/><rect width="15" height="10" x="415" y="432.362" rx="2.5" class="B"/><use xlink:href="#h" x="150" class="C"/><use xlink:href="#i" x="150" class="D"/><use xlink:href="#i" x="175" class="E"/><g transform="matrix(1 0 0 -1 -15 984.72437)"><rect width="15" height="10" x="280" y="432.362" rx="2.5" class="B"/><use xlink:href="#h" x="15" class="C"/><use xlink:href="#i" x="15" class="D"/><use xlink:href="#i" x="40" class="E"/></g><g transform="matrix(1 0 0 -1 50 984.72437)"><rect width="15" height="10" x="280" y="432.362" rx="2.5" class="B"/><use xlink:href="#h" x="15" class="C"/><use xlink:href="#i" x="15" class="D"/><use xlink:href="#i" x="40" class="E"/></g><g transform="matrix(1 0 0 -1 135 984.72437)"><rect width="15" height="10" x="280" y="432.362" rx="2.5" class="B"/><use xlink:href="#h" x="15" class="C"/><use xlink:href="#i" x="15" class="D"/><use xlink:href="#i" x="40" class="E"/></g><g transform="matrix(1 0 0 -1 200 984.72437)"><rect width="15" height="10" x="280" y="432.362" rx="2.5" class="B"/><use xlink:href="#h" x="15" class="C"/><use xlink:href="#i" x="15" class="D"/><use xlink:href="#i" x="40" class="E"/></g><path d="M255 532.362h35v15h-35z" fill="url(#L)"/><path d="M320 532.362h35v15h-35z" fill="url(#M)"/><path d="M405 532.362h35v15h-35z" fill="url(#N)"/><path d="M470 532.362h35v15h-35z" fill="url(#O)"/><use xlink:href="#j" fill="#b3b3b3"/><path d="M355 252.362h50v145h-50z" fill="url(#Q)"/><use xlink:href="#j" x="130" fill="#b3b3b3"/><path d="M370 242.362h20v210h-20z" fill="url(#R)"/><path d="M390 247.362h10v205h-10z" fill="url(#S)" class="F"/><path d="M405 262.362h10v125h-10z" fill="url(#T)" class="F"/><path transform="scale(-1 1)" d="M-370 247.362h10v205h-10z" fill="url(#U)" class="F"/><path d="M300 317.362h40v20h-40z" fill="url(#V)"/><path transform="scale(-1 1)" d="M-460 317.362h40v20h-40z" fill="url(#W)"/><g transform="matrix(.714286 0 0 .75 110 -21.909454)"><rect rx="3.5" width="15" height="10" x="280" y="432.362" ry="3.333" class="B"/><use xlink:href="#h" x="15" class="C"/><use xlink:href="#i" x="15" class="D"/><use xlink:href="#i" x="40" class="E"/></g><g transform="matrix(.714286 0 0 .75 240 -21.909454)"><rect rx="3.5" width="15" height="10" x="280" y="432.362" ry="3.333" class="B"/><use xlink:href="#h" x="15" class="C"/><use xlink:href="#i" x="15" class="D"/><use xlink:href="#i" x="40" class="E"/></g><path d="M325 227.362h110v5H325z" fill="url(#Z)"/><path d="M340 212.362h80v15h-80z" fill="url(#a)"/><rect ry="20" y="172.362" x="140" height="40" width="480" fill="#0b1728"/><rect rx="10" y="172.362" x="150" height="20" width="455" opacity=".12" fill="#fff"/><path d="M340 212.362h80v10h-80z" fill="url(#c)"/><path d="M440 337.362h10v10h-10z" fill="url(#d)"/><path d="M310 337.362h10v10h-10z" fill="url(#e)"/></g></svg>