<svg xmlns="http://www.w3.org/2000/svg" xmlns:xlink="http://www.w3.org/1999/xlink" width="240" height="692.554"><defs><radialGradient id="A" gradientTransform="matrix(-3.4620594e-7,-9.838077e-2,1.0476192,-3.9338747e-6,-517.98088,871.13731)" cx="357.762" cy="835.937" fx="357.762" fy="835.937" r="101.647" xlink:href="#U"><stop offset="0" stop-color="#374845"/><stop offset=".749" stop-color="#374845"/><stop offset="1" stop-color="#536c67" stop-opacity=".418"/></radialGradient><linearGradient id="B" x1="342.632" y1="839.408" x2="342.632" y2="798.499" xlink:href="#U"><stop offset="0" stop-color="#dbe3e2" stop-opacity=".644"/><stop offset="1" stop-color="#fff"/></linearGradient><linearGradient id="C" x1="360" y1="237.362" x2="360" y2="327.362" xlink:href="#U"><stop offset="0" stop-color="#fff"/><stop offset="1" stop-color="#fff" stop-opacity="0"/></linearGradient><linearGradient id="D" x1="320" y1="242.362" x2="320" y2="337.362" xlink:href="#U"><stop offset="0" stop-color="#fff"/><stop offset="1" stop-color="#fff" stop-opacity="0"/></linearGradient><linearGradient id="E" x1="290" y1="190.197" x2="376.787" y2="190.197" xlink:href="#U"><stop offset="0" stop-color="#b7c8be"/><stop offset=".5" stop-color="#e6ece8"/><stop offset="1" stop-color="#b7c8be"/></linearGradient><linearGradient id="F" x1="335.028" y1="347.314" x2="335.028" y2="307.576" xlink:href="#U"><stop offset="0" stop-color="#fff" stop-opacity=".538"/><stop offset=".242" stop-color="#fff"/><stop offset="1" stop-color="#fff" stop-opacity="0"/></linearGradient><linearGradient id="G" x1="300" y1="402.362" x2="330" y2="407.362" xlink:href="#U"><stop offset="0" stop-color="#b7c8be"/><stop offset="1" stop-color="#b7c8be" stop-opacity="0"/></linearGradient><linearGradient id="H" x1="260" y1="382.362" x2="289.286" y2="399.862" xlink:href="#U"><stop offset="0" stop-color="#b7c8be"/><stop offset="1" stop-color="#dbe3de" stop-opacity="0"/></linearGradient><linearGradient id="I" x1="415" y1="372.362" x2="300" y2="402.362" xlink:href="#U"><stop offset="0" stop-color="#b7c8be"/><stop offset=".459" stop-color="#fff"/><stop offset="1" stop-color="#dbe3de" stop-opacity="0"/></linearGradient><radialGradient id="J" gradientTransform="matrix(1.5844151e-5,0.9302324,-2.5581396,8.0938242e-8,1127.4419,26.923479)" cx="360.597" cy="321.502" fx="360.597" fy="321.502" r="107.5" xlink:href="#U"><stop offset="0" stop-color="#fff"/><stop offset=".911" stop-color="#fff"/><stop offset="1" stop-color="#dbe3de" stop-opacity="0"/></radialGradient><radialGradient id="K" gradientTransform="matrix(-1.789134e-6,8.2857144,-4.2857143,-3.8498075e-5,2788.6958,-2418.6161)" cx="350" cy="564.362" fx="350" fy="564.362" r="35" xlink:href="#U"><stop offset="0" stop-color="#fff"/><stop offset="1" stop-color="#fff" stop-opacity="0"/></radialGradient><radialGradient id="L" gradientTransform="matrix(5.4576064e-5,19.958647,-1.2312421,7.0331088e-6,997.57643,-4924.9139)" cx="270" cy="594.439" fx="270" fy="594.439" r="19.118" xlink:href="#U"><stop offset="0" stop-color="#fff"/><stop offset="1" stop-color="#fff" stop-opacity="0"/></radialGradient><linearGradient id="M" x1="220" y1="692.362" x2="270" y2="692.362" xlink:href="#U"><stop offset="0" stop-color="#b7c8be"/><stop offset="1" stop-color="#b7c8be" stop-opacity="0"/></linearGradient><radialGradient id="N" gradientTransform="matrix(8.1864096e-5,6.7427859,-1.8468631,2.3760504e-6,1521.3647,-2674.0096)" cx="270" cy="594.439" fx="270" fy="594.439" r="19.118" xlink:href="#U"><stop offset="0" stop-color="#fff"/><stop offset=".5" stop-color="#fff" stop-opacity=".498"/><stop offset="1" stop-color="#fff" stop-opacity="0"/></radialGradient><linearGradient id="O" x1="261" y1="679.557" x2="234" y2="679.557" xlink:href="#U"><stop offset="0" stop-color="#dbe3e2" stop-opacity="0"/><stop offset="1" stop-color="#fff"/></linearGradient><linearGradient id="P" x1="340" y1="747.362" x2="340" y2="838.362" xlink:href="#U"><stop offset="0" stop-color="#dbe3e2" stop-opacity="0"/><stop offset="1" stop-color="#fff" stop-opacity=".9"/></linearGradient><radialGradient id="Q" gradientTransform="matrix(-6.2473434e-7,-0.4782607,0.9721143,-6.042429e-8,-528.92927,1029.6646)" cx="384.351" cy="914.429" fx="384.351" fy="914.429" r="115" xlink:href="#U"><stop offset="0" stop-color="#fff"/><stop offset="1" stop-color="#b7c8be"/></radialGradient><linearGradient id="R" x1="335.719" y1="647.291" x2="335.719" y2="842.25" xlink:href="#U"><stop offset="0" stop-color="#666" stop-opacity="0"/><stop offset="1" stop-color="#333"/></linearGradient><path id="S" d="M300 342.375l-75 105v5h10.72c13.745 5.822 50.778 10 94.28 10 55.2 0 100-6.72 100-15l10-5-16.344-23.344c-9.6 4.335-23.262-2.94-31.094-16.844-6.35-11.272-6.98-23.576-2.375-31L370 342.375h-70z"/><path id="T" d="M289.296 201.58v10s3.57 1.786 38.93 3.214 41.07-.714 41.07-.714-78.93-5.714-80-12.5z"/><linearGradient id="U" gradientUnits="userSpaceOnUse"/></defs><g transform="translate(-215 -182.362)"><rect ry="10" rx="5.454" y="443.232" x="215" height="420" width="240" fill="#b7c8c4"/><path d="M293.75 338.22l-77.22 107.97h236.875l-77.25-107.97H293.75zm-68.75 110v409.156h220V448.22H225z" fill="#b7c8be"/><path d="M335.72 620.938c-55.99 0-101.437 99.21-101.437 221.438 0 5.044.098 10.04.25 15h202.375l.25-15c0-122.23-45.45-221.437-101.437-221.437z" opacity=".543" fill="url(#R)"/><path d="M240 712.362h190v135H240z" fill="url(#P)"/><path d="M225 452.362h45v405h-45z" fill="url(#O)"/><path transform="scale(1 -1)" d="M400-857.362h45v125h-45z" fill="url(#N)"/><path transform="matrix(1.028685 0 0 1.085146 -35.34276 -66.298149)" d="M475 852.362c0 8.28-51.52 15-115 15s-115-6.72-115-15 51.52-15 115-15 115 6.72 115 15z" fill="url(#Q)"/><path transform="matrix(1.032991 0 0 1 -29.565195 16.425163)" d="M454.57 835.937c0 6.134-45.538 11.112-101.647 11.112s-101.647-4.978-101.647-11.112 45.538-11.112 101.647-11.112 101.647 4.978 101.647 11.112z" opacity=".635" fill="url(#A)"/><rect ry="10" rx="9.495" y="183.232" x="293.929" height="180.714" width="82.5" fill="#b7c8be"/><path transform="matrix(.974359 0 0 .75 6.153864 218.5907)" d="M435 834.862c0 6.9-43.68 12.5-97.5 12.5s-97.5-5.6-97.5-12.5 43.68-12.5 97.5-12.5 97.5 5.6 97.5 12.5z" fill="url(#B)"/><path d="M220 452.362h50v410h-50z" opacity="0" fill="url(#M)"/><path d="M250 452.362h30v370h-30z" fill="url(#L)"/><path d="M350 452.362h70v290h-70z" opacity=".543" fill="url(#K)"/><use xlink:href="#S" fill="url(#J)"/><use xlink:href="#S" fill="url(#I)"/><path d="M300 342.375l-75 94.487v4.5h10.72c13.745 5.24 50.778 9 94.28 9 55.2 0 100-6.047 100-13.498l10-4.5-16.344-21.006c-9.6 3.9-23.262-2.646-31.094-15.157-6.35-10.143-6.98-21.215-2.375-27.896L370 342.375h-70z" fill="url(#H)"/><path d="M325 342.362l-15 110h-40l40-110h15z" fill="url(#G)"/><rect ry="10" rx="0" y="267.719" x="299.52" height="74.732" width="70.676" fill="url(#F)"/><rect ry="10" y="182.362" x="290" height="55" width="90" fill="url(#E)"/><path d="M300 237.362h30v90h-30z" fill="url(#D)"/><path d="M350 237.362h15v75h-15z" opacity=".62" fill="url(#C)"/><g fill="#fff"><path d="M290.454 187.362v10s3.774 1.786 41.14 3.214 43.405-.714 43.405-.714-83.413-5.714-84.546-12.5z"/><use xlink:href="#T"/><use xlink:href="#T" x="1.368" y="14.435"/><path d="M376.438 325.438c-30.94 1.52-60.03 7.548-85.812 17.125L217.5 444.813c-.035.04-.06.083-.094.125a7.89 7.89 0 0 0-.656.938l-.22.313h.063c-.978 1.806-1.594 4.274-1.594 7.03v89.53c37.372 39.177 102.677 65.156 176.938 65.156 21.966 0 43.155-2.286 63.063-6.5V453.22c0-2.758-.616-5.226-1.594-7.03-.004-.008.004-.023 0-.03-.37-.678-.786-1.258-1.25-1.72l-75.72-105.812v-13.187z" opacity=".543"/></g></g></svg>