<svg xmlns="http://www.w3.org/2000/svg" xmlns:xlink="http://www.w3.org/1999/xlink" width="480" height="640"><style><![CDATA[.B{fill:#4d4d4d}.C{fill:#9c9c9c}.D{fill:silver}.E{fill:#7c7c7c}.F{opacity:.496}]]></style><defs><linearGradient id="A" xlink:href="#i"><stop offset="0" stop-color="#4d4d4d"/><stop offset=".11" stop-color="#737373"/><stop offset=".219" stop-color="#999"/><stop offset=".5" stop-color="#ccc"/><stop offset=".778" stop-color="gray"/><stop offset="1" stop-color="#4d4d4d"/></linearGradient><radialGradient id="B" gradientTransform="matrix(1.0000001,5.6081236e-7,-3.7710417e-7,1.0238091,2.2142498e-4,-16.076621)" cx="380" cy="675.219" fx="380" fy="675.219" r="120" xlink:href="#i"><stop offset="0" stop-color="#b3b3b3"/><stop offset=".5" stop-color="#b3b3b3"/><stop offset=".778" stop-color="gray"/><stop offset="1" stop-color="#585858" stop-opacity="0"/></radialGradient><linearGradient id="C" x1="314.286" y1="337.362" x2="314.286" y2="347.362" xlink:href="#i"><stop offset="0" stop-color="#1a1a1a"/><stop offset="1" stop-color="#4d4d4d" stop-opacity="0"/></linearGradient><linearGradient id="D" x1="444.286" y1="337.362" x2="444.286" y2="347.362" xlink:href="#i"><stop offset="0" stop-color="#1a1a1a"/><stop offset="1" stop-color="#4d4d4d" stop-opacity="0"/></linearGradient><linearGradient id="E" x1="374.286" y1="212.362" x2="374.286" y2="222.362" xlink:href="#i"><stop offset="0" stop-color="#1a1a1a"/><stop offset="1" stop-color="#4d4d4d" stop-opacity="0"/></linearGradient><linearGradient xlink:href="#A" id="F" x1="340" y1="222.362" x2="420" y2="222.362"/><linearGradient xlink:href="#A" id="G" x1="325" y1="232.362" x2="435" y2="232.362"/><linearGradient id="H" x1="-460" y1="327.362" x2="-440" y2="327.362" xlink:href="#i"><stop offset="0" stop-color="#4d4d4d"/><stop offset=".219" stop-color="#999"/><stop offset=".5" stop-color="#ccc"/><stop offset=".778" stop-color="#999"/><stop offset="1" stop-color="#999"/></linearGradient><linearGradient id="I" x1="300" y1="327.362" x2="320" y2="327.362" xlink:href="#i"><stop offset="0" stop-color="#4d4d4d"/><stop offset=".219" stop-color="#999"/><stop offset=".5" stop-color="#ccc"/><stop offset=".778" stop-color="#999"/><stop offset="1" stop-color="#999"/></linearGradient><linearGradient id="J" x1="-370" y1="341.978" x2="-360" y2="341.978" xlink:href="#i"><stop offset="0" stop-color="#4d4d4d"/><stop offset="1" stop-color="#4d4d4d" stop-opacity="0"/></linearGradient><linearGradient id="K" x1="405" y1="320.054" x2="415" y2="320.054" xlink:href="#i"><stop offset="0" stop-color="#4d4d4d"/><stop offset="1" stop-color="#4d4d4d" stop-opacity="0"/></linearGradient><linearGradient id="L" x1="390" y1="341.978" x2="400" y2="341.978" xlink:href="#i"><stop offset="0" stop-color="#4d4d4d"/><stop offset="1" stop-color="#4d4d4d" stop-opacity="0"/></linearGradient><linearGradient id="M" x1="380" y1="242.362" x2="380" y2="432.362" xlink:href="#i"><stop offset="0" stop-color="#b3b3b3" stop-opacity="0"/><stop offset=".118" stop-color="#999"/><stop offset=".193" stop-color="#e6e6e6"/><stop offset=".363" stop-color="#b3b3b3"/><stop offset=".649" stop-color="#b3b3b3"/><stop offset=".713" stop-color="#ccc"/><stop offset=".78" stop-color="gray"/><stop offset="1" stop-color="#b3b3b3" stop-opacity="0"/></linearGradient><linearGradient id="N" x1="381.429" y1="252.362" x2="381.429" y2="397.362" xlink:href="#i"><stop offset="0" stop-color="#b3b3b3" stop-opacity="0"/><stop offset=".075" stop-color="#999"/><stop offset=".14" stop-color="#e6e6e6"/><stop offset=".363" stop-color="#b3b3b3"/><stop offset=".829" stop-color="#b3b3b3"/><stop offset=".897" stop-color="#ccc"/><stop offset=".937" stop-color="gray"/><stop offset="1" stop-color="#b3b3b3" stop-opacity="0"/></linearGradient><linearGradient id="O" x1="485" y1="532.362" x2="485" y2="547.362" xlink:href="#i"><stop offset="0" stop-color="#4d4d4d"/><stop offset="1" stop-color="#4d4d4d" stop-opacity="0"/></linearGradient><linearGradient id="P" x1="420" y1="532.362" x2="420" y2="547.362" xlink:href="#i"><stop offset="0" stop-color="#4d4d4d"/><stop offset="1" stop-color="#4d4d4d" stop-opacity="0"/></linearGradient><linearGradient id="Q" x1="335" y1="532.362" x2="335" y2="547.362" xlink:href="#i"><stop offset="0" stop-color="#4d4d4d"/><stop offset="1" stop-color="#4d4d4d" stop-opacity="0"/></linearGradient><linearGradient id="R" x1="270" y1="532.362" x2="270" y2="547.362" xlink:href="#i"><stop offset="0" stop-color="#4d4d4d"/><stop offset="1" stop-color="#4d4d4d" stop-opacity="0"/></linearGradient><linearGradient id="S" x1="367.142" y1="532.362" x2="367.142" y2="597.362" xlink:href="#i"><stop offset="0" stop-color="#1a1a1a"/><stop offset="1" stop-color="#4d4d4d" stop-opacity="0"/></linearGradient><linearGradient xlink:href="#A" id="T" x1="320" y1="262.362" x2="440" y2="262.362"/><linearGradient id="U" x1="374.286" y1="292.362" x2="374.286" y2="322.362" xlink:href="#i"><stop offset="0" stop-color="#1a1a1a"/><stop offset="1" stop-color="#4d4d4d" stop-opacity="0"/></linearGradient><linearGradient xlink:href="#A" id="V" x1="340" y1="382.362" x2="420" y2="382.362"/><linearGradient xlink:href="#A" id="W" x1="310" y1="352.362" x2="320" y2="352.362"/><linearGradient xlink:href="#A" id="X" x1="440" y1="352.362" x2="450" y2="352.362"/><linearGradient xlink:href="#A" id="Y" x1="240" y1="492.362" x2="520" y2="492.362"/><linearGradient xlink:href="#A" id="Z" x1="180" y1="532.362" x2="180" y2="812.362"/><linearGradient xlink:href="#A" id="a" x1="580" y1="812.362" x2="580" y2="532.362"/><linearGradient id="b" x1="372.782" y1="697.348" x2="425.803" y2="546.389" xlink:href="#i"><stop offset="0" stop-color="#4d4d4d"/><stop offset=".219" stop-color="#999"/><stop offset=".5" stop-color="#ccc"/><stop offset=".778" stop-color="gray"/><stop offset="1" stop-color="#4d4d4d"/></linearGradient><linearGradient xlink:href="#A" id="c" x1="185.933" y1="761.593" x2="225.653" y2="606.602"/><linearGradient id="d" x1="290" y1="591.453" x2="470" y2="591.453" xlink:href="#i"><stop offset="0" stop-color="#4d4d4d"/><stop offset=".219" stop-color="#505050"/><stop offset=".5" stop-color="#ccc"/><stop offset=".778" stop-color="#4f4f4f"/><stop offset="1" stop-color="#515151"/></linearGradient><radialGradient id="e" cx="-101.802" cy="557.019" fx="-101.802" fy="557.019" r="80.415" spreadMethod="reflect" gradientTransform="matrix(-0.3395594,-0.3128222,0.3022616,-0.3452037,-304.73509,717.45758)" xlink:href="#i"><stop offset="0" stop-color="#4d4d4d"/><stop offset="1" stop-color="#c8c8c8"/></radialGradient><path id="f" d="M265 437.362h15v15h-15z"/><path id="g" d="M255 437.362h10v15h-10z"/><path id="h" d="M307 382.362c0 4.416 3.584 8 8 8s8-3.584 8-8-3.584-8-8-8-8 3.584-8 8z"/><linearGradient id="i" gradientUnits="userSpaceOnUse"/></defs><g transform="translate(-140 -172.362)"><path d="M-21.387 557.02c0 44.39-36.026 80.415-80.415 80.415s-80.415-36.026-80.415-80.415 36.026-80.415 80.415-80.415 80.415 36.026 80.415 80.415z" transform="matrix(0 -1.101064 1.095745 0 -253.91395 602.31935)" fill="url(#e)"/><path d="M290 532.362h180v130H290z" fill="url(#d)"/><path d="M179.875 594.875L160 672.375v82.563l180 46.125v-78.687h75.594l16.125-62.97-251.844-64.53z" fill="url(#c)"/><path d="M381.188 530.72l-53 150.97L573.5 767.844l26.5-75.47v-84.812L381.188 530.72z" fill="url(#b)"/><path d="M560 532.362h40v280h-40z" fill="url(#a)"/><path d="M160 532.362h40v280h-40z" fill="url(#Z)"/><path d="M500 675.22c0 67.817-53.76 122.857-120 122.857s-120-55.04-120-122.857 53.76-122.857 120-122.857 120 55.04 120 122.857z" transform="matrix(.729167 0 0 1.281977 105.41665 -230.75328)" fill="url(#B)"/><path d="M240 452.362h280v80H240z" fill="url(#Y)"/><path d="M440 337.362h10v35h-10z" fill="url(#X)"/><path d="M410 367.362v45l39.906-15.844c5.875-2.033 10.094-7.593 10.094-14.156a15.01 15.01 0 0 0-15-15h-35z" fill="#777"/><path d="M310 337.362h10v35h-10z" fill="url(#W)"/><path d="M350 367.362v45l-39.47-15.687-.437-.156C304.22 394.485 300 388.925 300 382.362a15.01 15.01 0 0 1 15-15h35z" fill="#999"/><path d="M340 292.362h80v160h-80z" fill="url(#V)"/><path d="M340 292.362h80v30h-80z" fill="url(#U)"/><path d="M320 232.362h120v60H320z" fill="url(#T)"/><path d="M240 492.362h280" fill="none" stroke="#000" stroke-width="4"/><rect y="432.362" x="265" height="10" width="15" rx="2.5" class="B"/><use xlink:href="#f" class="C"/><use xlink:href="#g" class="D"/><use xlink:href="#g" x="25" class="E"/><rect rx="2.5" y="432.362" x="480" height="10" width="15" class="B"/><use xlink:href="#f" x="215" class="C"/><use xlink:href="#g" x="215" class="D"/><use xlink:href="#g" x="240" class="E"/><rect rx="2.5" y="432.362" x="330" height="10" width="15" class="B"/><use xlink:href="#f" x="65" class="C"/><use xlink:href="#g" x="65" class="D"/><use xlink:href="#g" x="90" class="E"/><rect rx="2.5" y="432.362" x="415" height="10" width="15" class="B"/><use xlink:href="#f" x="150" class="C"/><use xlink:href="#g" x="150" class="D"/><use xlink:href="#g" x="175" class="E"/><path d="M290 532.362h180v65H290z" opacity=".74" fill="url(#S)"/><g transform="matrix(1 0 0 -1 -15 984.72437)"><rect rx="2.5" y="432.362" x="280" height="10" width="15" class="B"/><use xlink:href="#f" x="15" class="C"/><use xlink:href="#g" x="15" class="D"/><use xlink:href="#g" x="40" class="E"/></g><g transform="matrix(1 0 0 -1 50 984.72437)"><rect rx="2.5" y="432.362" x="280" height="10" width="15" class="B"/><use xlink:href="#f" x="15" class="C"/><use xlink:href="#g" x="15" class="D"/><use xlink:href="#g" x="40" class="E"/></g><g transform="matrix(1 0 0 -1 135 984.72437)"><rect rx="2.5" y="432.362" x="280" height="10" width="15" class="B"/><use xlink:href="#f" x="15" class="C"/><use xlink:href="#g" x="15" class="D"/><use xlink:href="#g" x="40" class="E"/></g><g transform="matrix(1 0 0 -1 200 984.72437)"><rect rx="2.5" y="432.362" x="280" height="10" width="15" class="B"/><use xlink:href="#f" x="15" class="C"/><use xlink:href="#g" x="15" class="D"/><use xlink:href="#g" x="40" class="E"/></g><path d="M255 532.362h35v15h-35z" fill="url(#R)"/><path d="M320 532.362h35v15h-35z" fill="url(#Q)"/><path d="M405 532.362h35v15h-35z" fill="url(#P)"/><path d="M470 532.362h35v15h-35z" fill="url(#O)"/><use xlink:href="#h" fill="#b3b3b3"/><path d="M355 252.362h50v145h-50z" fill="url(#N)"/><use xlink:href="#h" x="130" fill="#b3b3b3"/><path d="M370 242.362h20v210h-20z" fill="url(#M)"/><path d="M390 247.362h10v205h-10z" fill="url(#L)" class="F"/><path d="M405 262.362h10v125h-10z" fill="url(#K)" class="F"/><path transform="scale(-1 1)" d="M-370 247.362h10v205h-10z" fill="url(#J)" class="F"/><path d="M300 317.362h40v20h-40z" fill="url(#I)"/><path transform="scale(-1 1)" d="M-460 317.362h40v20h-40z" fill="url(#H)"/><g transform="matrix(.714286 0 0 .75 110 -21.909454)"><rect ry="3.333" y="432.362" x="280" height="10" width="15" rx="3.5" class="B"/><use xlink:href="#f" x="15" class="C"/><use xlink:href="#g" x="15" class="D"/><use xlink:href="#g" x="40" class="E"/></g><g transform="matrix(.714286 0 0 .75 240 -21.909454)"><rect ry="3.333" y="432.362" x="280" height="10" width="15" rx="3.5" class="B"/><use xlink:href="#f" x="15" class="C"/><use xlink:href="#g" x="15" class="D"/><use xlink:href="#g" x="40" class="E"/></g><path d="M325 227.362h110v5H325z" fill="url(#G)"/><path d="M340 212.362h80v15h-80z" fill="url(#F)"/><rect width="480" height="40" x="140" y="172.362" ry="20" fill="#0b1728"/><rect width="455" height="20" x="150" y="172.362" rx="10" opacity=".12" fill="#fff"/><path d="M340 212.362h80v10h-80z" fill="url(#E)"/><path d="M440 337.362h10v10h-10z" fill="url(#D)"/><path d="M310 337.362h10v10h-10z" fill="url(#C)"/></g></svg>