<svg xmlns="http://www.w3.org/2000/svg" xmlns:xlink="http://www.w3.org/1999/xlink" width="350" height="350"><defs><radialGradient id="A" cx="265.897" cy="379.094" fx="265.897" fy="379.094" r="143" gradientTransform="matrix(0.6993006,0.5594403,-0.5594397,0.6993013,306.21841,-22.080247)" gradientUnits="userSpaceOnUse"><stop offset="0" stop-color="#80ff80"/><stop offset=".5" stop-color="#00d400"/><stop offset="1" stop-color="#0f0"/></radialGradient><linearGradient id="B" x1="300" y1="272.362" x2="300" y2="432.362" gradientUnits="userSpaceOnUse"><stop offset="0" stop-color="#e3f4d7"/><stop offset="1" stop-color="#80ff80" stop-opacity=".155"/></linearGradient><linearGradient id="C" x1="300" y1="252.362" x2="300" y2="452.362" gradientUnits="userSpaceOnUse"><stop offset="0" stop-color="#f4d7d7"/><stop offset="1" stop-color="#b18282" stop-opacity="0"/></linearGradient><path id="D" d="M440.08 411.774c0 77.28-62.72 140-140 140s-140-62.72-140-140 62.72-140 140-140 140 62.72 140 140z"/></defs><g transform="translate(-125.079 -236.774)"><path d="M296.99 239.306c-82.186.14-157.648 67.294-167.97 148.838-9.95 74.413 32.586 153.53 102.24 182.224 63.72 27.727 145.135 13.458 192.41-38.128 47.237-48.2 63.172-126.177 34.867-188.26-25.955-60.87-89.022-105.06-155.853-104.673a146.45 146.45 0 0 0-5.691 0z" fill="#280b0b" stroke="#000" stroke-width="5.008"/><path d="M300 242.375c-74.156 0-137.253 47.55-160.47 113.813 39.447 22.098 98.938 36.188 165.47 36.188 61.9 0 117.727-12.22 156.97-31.72-21.893-68.588-86.15-118.28-161.97-118.28z" fill="url(#C)"/><g stroke="#000" stroke-width="6" stroke-linejoin="round"><use xlink:href="#D" fill="#002b00"/><use xlink:href="#D" x="-0.08" y="0.588" transform="translate(.079 -.588)" fill="url(#A)"/></g><path d="M297.188 273.844c-61.32.778-118.303 47.357-131.594 107.156 81.2 38.038 178.93 39.097 260.938 2.906 7.333-1.347 7.948-10.966 4.297-16.132-18.693-55.29-75.062-95.282-133.64-93.93z" fill="url(#B)"/></g></svg>