<?xml version="1.0" standalone="no"?><!DOCTYPE svg PUBLIC "-//W3C//DTD SVG 1.1//EN"
        "http://www.w3.org/Graphics/SVG/1.1/DTD/svg11.dtd">
<svg t="1578552806062" class="icon" viewBox="0 0 1024 1024" version="1.1" xmlns="http://www.w3.org/2000/svg" p-id="8101"
     xmlns:xlink="http://www.w3.org/1999/xlink" width="200" height="200">
    <defs>
        <style type="text/css"></style>
    </defs>
    <path d="M768 1024H256a42.666667 42.666667 0 0 1 0-85.333333h213.333333v-213.333334H128a128 128 0 0 1-128-128V128a128 128 0 0 1 128-128h768a128 128 0 0 1 128 128v469.333333a128 128 0 0 1-128 128h-341.333333v213.333334h213.333333a42.666667 42.666667 0 0 1 0 85.333333z m-256-384h384a42.666667 42.666667 0 0 0 42.666667-42.666667V128a42.666667 42.666667 0 0 0-42.666667-42.666667H128a42.666667 42.666667 0 0 0-42.666667 42.666667v469.333333a42.666667 42.666667 0 0 0 42.666667 42.666667h63.573333l156.586667-235.52a42.666667 42.666667 0 0 1 52.48-15.36l138.666667 60.586667 119.04-132.266667A128 128 0 1 1 768 379.733333a125.44 125.44 0 0 1-42.666667-7.68l-141.653333 157.44a42.666667 42.666667 0 0 1-48.64 10.666667l-135.68-58.453333L293.973333 640z m256-430.933333a42.666667 42.666667 0 1 0 42.666667 42.666666 42.666667 42.666667 0 0 0-42.666667-42.666666z"
          p-id="8102" fill="#2c2c2c"></path>
</svg>