<?xml version="1.0" standalone="no"?><!DOCTYPE svg PUBLIC "-//W3C//DTD SVG 1.1//EN"
        "http://www.w3.org/Graphics/SVG/1.1/DTD/svg11.dtd">
<svg t="1583301300497" class="icon" viewBox="0 0 1024 1024" version="1.1" xmlns="http://www.w3.org/2000/svg"
     p-id="38628" width="64" height="64" xmlns:xlink="http://www.w3.org/1999/xlink">
    <defs>
        <style type="text/css"></style>
    </defs>
    <path d="M284.444444 611.555556v85.333333l-108.003555-0.028445-37.916445 170.666667h746.922667l-37.916444-170.666667L739.555556 696.888889v-85.333333h176.440888l75.861334 341.333333H32.142222l75.861334-341.333333H284.444444z m227.555556-540.444445c164.579556 0 298.666667 128.938667 298.666667 288.824889a281.173333 281.173333 0 0 1-57.258667 170.012444c-27.648 36.693333-81.578667 93.127111-162.56 170.439112l-29.127111 27.591111-49.692445 46.506666-39.566222-36.892444c-103.139556-96.625778-170.097778-165.290667-202.012444-207.644445A281.6 281.6 0 0 1 213.333333 359.907556C213.333333 200.049778 347.420444 71.111111 512 71.111111z m0 85.333333c-118.186667 0-213.333333 91.477333-213.333333 203.491556a196.266667 196.266667 0 0 0 39.936 118.641778c20.48 27.221333 60.359111 69.774222 119.125333 127.032889l26.339556 25.457777 27.904 26.510223 27.904-26.538667 34.645333-33.564444c46.165333-45.340444 79.900444-80.952889 100.949333-106.496l6.883556-8.590223 2.929778-3.811555a195.868444 195.868444 0 0 0 40.049777-118.613334C725.333333 247.893333 630.186667 156.444444 512 156.444444z m0 128a85.333333 85.333333 0 1 1 0 170.666667 85.333333 85.333333 0 0 1 0-170.666667z"
          fill="#000000" p-id="38629"></path>
</svg>