<svg xmlns="http://www.w3.org/2000/svg" width="199.734" height="453.552"><style><![CDATA[.B{opacity:.544}.C{stroke:#000}.D{stroke-width:4}.E{stroke-linejoin:round}]]></style><defs><radialGradient id="A" cx="273.084" cy="442.275" fx="273.084" fy="442.275" r="28.264" gradientTransform="matrix(0.9999999,1.630305e-8,-1.242437e-7,3.1127258,1.6780471,-927.1264)" gradientUnits="userSpaceOnUse"><stop offset="0" stop-color="#ececec"/><stop offset="1" stop-color="#333"/></radialGradient><radialGradient id="B" cx="183.848" cy="294.144" fx="183.848" fy="294.144" r="61.599" gradientTransform="matrix(1.1410901e-7,1.3447058,-0.9344047,6.3580818e-8,508.69755,43.546884)" gradientUnits="userSpaceOnUse"><stop offset="0" stop-color="#f2f2f2"/><stop offset="1" stop-color="#999"/></radialGradient></defs><g transform="translate(-146.995 -236.179)"><g fill="#ccc" class="C D"><path d="M224.708 641.5s29.8-17.425 39.396-10.354 9.596 8.586 9.596 8.586l-9.85 9.596s-11.112-11.364-39.143-7.83z"/><rect rx="5" y="297.413" x="271.716" height="350" width="10" class="E"/><path d="M301.883 664.954l42.846-1.97s-5.852-15.015-37.166-20.066-23.266-1.122-24.78-.112l3.03 14.647 2.857 8.57 13.214-1.07zm-30.17-24.194c-3.894 0-70.485 14.527-45.175 29.655s63.02 17.317 63.02 17.317-18.56-13.926-17.844-46.97z"/></g><g class="E C"><rect rx="5" y="385.944" x="248.78" height="98.43" width="51.963" fill="url(#A)" stroke-width="4.565"/><rect rx="5" y="238.179" x="169.706" height="171.726" width="145.462" fill="#250" class="D"/></g><rect rx="5" y="244.505" x="177.5" height="158.571" width="129.643" opacity=".588"/><g class="C E"><rect rx="5" y="254.403" x="148.995" height="141.421" width="147.482" fill="#999" class="D"/><rect rx="5" y="272.585" x="161.117" height="111.117" width="119.198" fill="url(#B)" stroke-width="2"/></g><rect rx="5" y="394.753" x="266.175" height="77.782" width="7.576" opacity="0" fill="#8d5555" stroke="#fff" class="D E"/><path d="M257.2 411.8h6.566v70.206H257.2z" fill="#666" class="B"/><path d="M267.438 411.925h3.283v69.953h-3.283z" fill="#b3b3b3" class="B"/><path d="M280.822 412.178h14.647v69.953h-14.647z" fill="#fff" class="B"/><path d="M283.57 412.72H290v68.93h-6.43z" fill="#f2f2f2" class="B"/><path d="M277.287 488.697h2.525v156.07h-2.525z" fill="#fff" class="B"/><path d="M288.943 659.96c-.637-2.013-1.778-6.685-2.536-10.38-1.193-5.816-1.305-6.75-.834-6.93 1.27-.487 18.1 1.646 26.148 3.315 11.576 2.398 21.943 7.317 27.175 12.892l1.957 2.086-1.25.087c-.687.048-10.01.495-20.714.994l-23.036 1.24c-6.273.584-5.575.917-6.9-3.303z" fill="#999" class="B"/><path d="M250.013 410.915H298.5v7.07h-48.487zm23.99 75.51h6.06v5.05h-6.06z" class="B" fill="#4d4d4d"/></g></svg>