<svg xmlns="http://www.w3.org/2000/svg" xmlns:xlink="http://www.w3.org/1999/xlink" width="920" height="419.996"><defs><linearGradient id="A" xlink:href="#h"><stop offset="0" stop-color="#688881"/><stop offset="0" stop-color="#56706b"/><stop offset=".309" stop-color="#6f918a"/><stop offset="1" stop-color="#374845"/></linearGradient><linearGradient id="B" xlink:href="#h"><stop offset="0" stop-color="#374845"/><stop offset="1" stop-color="#374845" stop-opacity="0"/></linearGradient><linearGradient xlink:href="#B" id="C" x1="590" y1="-304.09" x2="590" y2="-284.09"/><linearGradient y2="-314.09" x2="590" y1="-344.09" x1="590" id="D" xlink:href="#h"><stop offset="0" stop-color="#374845"/><stop offset="1" stop-color="#374845" stop-opacity="0"/></linearGradient><linearGradient id="E" xlink:href="#h"><stop offset="0" stop-color="#374845"/><stop offset="1" stop-color="#374845" stop-opacity="0"/></linearGradient><linearGradient y2="374.09" x2="590" y1="344.09" x1="590" id="F" xlink:href="#E"/><linearGradient id="G" xlink:href="#h"><stop offset="0" stop-color="#374845"/><stop offset="1" stop-color="#374845" stop-opacity="0"/></linearGradient><linearGradient y2="404.09" x2="590" y1="384.09" x1="590" id="H" xlink:href="#G"/><linearGradient y2="424.09" x2="590" y1="414.09" x1="590" id="I" xlink:href="#h"><stop offset="0" stop-color="#374845"/><stop offset="1" stop-color="#374845" stop-opacity="0"/></linearGradient><linearGradient y2="444.09" x2="590" y1="434.09" x1="590" id="J" xlink:href="#h"><stop offset="0" stop-color="#374845"/><stop offset="1" stop-color="#374845" stop-opacity="0"/></linearGradient><linearGradient y2="474.09" x2="590" y1="464.09" x1="590" id="K" xlink:href="#h"><stop offset="0" stop-color="#374845"/><stop offset="1" stop-color="#374845" stop-opacity="0"/></linearGradient><linearGradient y2="484.09" x2="590" y1="474.09" x1="590" id="L" xlink:href="#h"><stop offset="0" stop-color="#374845"/><stop offset="1" stop-color="#374845" stop-opacity="0"/></linearGradient><linearGradient y2="464.09" x2="590" y1="444.09" x1="590" id="M" xlink:href="#h"><stop offset="0" stop-color="#374845"/><stop offset="1" stop-color="#374845" stop-opacity="0"/></linearGradient><linearGradient xlink:href="#B" id="N" x1="590" y1="-284.09" x2="590" y2="-264.09"/><linearGradient y2="-244.09" x2="590" y1="-259.09" x1="590" id="O" xlink:href="#h"><stop offset="0" stop-color="#374845"/><stop offset="1" stop-color="#374845" stop-opacity="0"/></linearGradient><linearGradient y2="-234.09" x2="590" y1="-244.09" x1="590" id="P" xlink:href="#h"><stop offset="0" stop-color="#374845"/><stop offset="1" stop-color="#374845" stop-opacity="0"/></linearGradient><linearGradient y2="-229.09" x2="590" y1="-239.09" x1="590" id="Q" xlink:href="#h"><stop offset="0" stop-color="#374845"/><stop offset="1" stop-color="#374845" stop-opacity="0"/></linearGradient><linearGradient y2="-214.09" x2="590" y1="-224.09" x1="590" id="R" xlink:href="#h"><stop offset="0" stop-color="#374845"/><stop offset="1" stop-color="#374845" stop-opacity="0"/></linearGradient><linearGradient y2="-204.09" x2="590" y1="-214.09" x1="590" id="S" xlink:href="#h"><stop offset="0" stop-color="#374845"/><stop offset="1" stop-color="#374845" stop-opacity="0"/></linearGradient><linearGradient y2="-194.09" x2="590" y1="-204.09" x1="590" id="T" xlink:href="#h"><stop offset="0" stop-color="#374845"/><stop offset="1" stop-color="#374845" stop-opacity="0"/></linearGradient><linearGradient y2="-184.09" x2="590" y1="-194.09" x1="590" id="U" xlink:href="#h"><stop offset="0" stop-color="#374845"/><stop offset="1" stop-color="#374845" stop-opacity="0"/></linearGradient><linearGradient y2="339.09" x2="590" y1="309.09" x1="590" id="V" xlink:href="#h"><stop offset="0" stop-color="#374845"/><stop offset="1" stop-color="#374845" stop-opacity="0"/></linearGradient><linearGradient xlink:href="#E" id="W" x1="590" y1="-379.09" x2="590" y2="-349.09"/><linearGradient xlink:href="#G" id="X" x1="590" y1="-414.09" x2="590" y2="-394.09"/><linearGradient xlink:href="#B" id="Y" x1="590" y1="284.09" x2="590" y2="304.09"/><linearGradient xlink:href="#A" id="Z" x1="930.571" y1="164.09" x2="930.571" y2="524.09"/><linearGradient id="a" x1="640" y1="164.09" x2="640" y2="524.09" xlink:href="#h"><stop offset="0" stop-color="#688881"/><stop offset=".09" stop-color="#56706b"/><stop offset=".5" stop-color="#6f918a"/><stop offset="1" stop-color="#374845"/></linearGradient><linearGradient id="b" x1="780" y1="264.09" x2="780" y2="494.09" xlink:href="#h"><stop offset="0" stop-color="#688881"/><stop offset=".136" stop-color="#56706b"/><stop offset=".701" stop-color="#6f918a"/><stop offset="1" stop-color="#374845"/></linearGradient><linearGradient id="c" x1="770" y1="324.09" x2="710" y2="464.09" xlink:href="#h"><stop offset="0" stop-color="#fff"/><stop offset="1" stop-color="#fff" stop-opacity="0"/></linearGradient><linearGradient xlink:href="#A" id="d" x1="275" y1="174.09" x2="275" y2="514.09"/><linearGradient xlink:href="#A" id="e" x1="260" y1="269.09" x2="260" y2="424.09"/><linearGradient id="f" x1="210" y1="364.09" x2="210" y2="324.09" xlink:href="#h"><stop offset="0" stop-color="#4d4d4d"/><stop offset=".21" stop-color="#ccc"/><stop offset=".573" stop-color="#f2f2f2"/><stop offset=".723" stop-color="#ccc"/><stop offset=".938" stop-color="#ececec"/><stop offset="1" stop-color="#b3b3b3"/></linearGradient><linearGradient id="g" x1="680" y1="574.09" x2="680" y2="514.09" xlink:href="#h"><stop offset="0" stop-color="#485f5b"/><stop offset=".5" stop-color="#6f918a"/><stop offset="1" stop-color="#374845"/></linearGradient><linearGradient id="h" gradientUnits="userSpaceOnUse"/></defs><g transform="translate(-80 -164.094)"><rect rx="10" y="324.09" x="80" height="40" width="220" fill="url(#f)"/><rect rx="10" y="269.09" x="250" height="155" width="40" fill="url(#e)"/><rect rx="10" y="174.09" x="260" height="340" width="30" fill="url(#d)"/><path d="M290 164.094a9.98 9.98 0 0 0-10 10v340a9.98 9.98 0 0 0 10 10h620a9.98 9.98 0 0 0 10-10v-340a9.98 9.98 0 0 0-10-10H290z" fill="url(#a)"/><g transform="scale(1 -1)"><rect ry="10" rx="0" y="-304.09" x="280" height="20" width="640" fill="url(#C)"/><rect ry="10" rx="0" y="-344.09" x="280" height="30" width="640" fill="url(#D)"/></g><rect ry="10" rx="0" y="344.09" x="280" height="30" width="640" fill="url(#F)"/><rect ry="10" rx="0" y="384.09" x="280" height="20" width="640" fill="url(#H)"/><rect ry="10" rx="0" y="414.09" x="280" height="10" width="640" fill="url(#I)"/><rect ry="10" rx="0" y="434.09" x="280" height="10" width="640" fill="url(#J)"/><rect ry="10" rx="0" y="464.09" x="280" height="10" width="640" fill="url(#K)"/><rect ry="10" rx="0" y="474.09" x="280" height="10" width="640" fill="url(#L)"/><rect ry="10" rx="0" y="444.09" x="280" height="20" width="640" fill="url(#M)"/><g transform="scale(1 -1)"><rect width="640" height="20" x="280" y="-284.09" rx="0" ry="10" fill="url(#N)"/><rect width="640" height="15" x="280" y="-259.09" rx="0" ry="10" fill="url(#O)"/><rect width="640" height="10" x="280" y="-244.09" rx="0" ry="10" fill="url(#P)"/><rect width="640" height="10" x="280" y="-239.09" rx="0" ry="10" fill="url(#Q)"/><rect width="640" height="10" x="280" y="-224.09" rx="0" ry="10" fill="url(#R)"/><rect width="640" height="10" x="280" y="-214.09" rx="0" ry="10" fill="url(#S)"/><rect width="640" height="10" x="280" y="-204.09" rx="0" ry="10" opacity=".486" fill="url(#T)"/><rect width="640" height="10" x="280" y="-194.09" rx="0" ry="10" opacity=".486" fill="url(#U)"/></g><rect ry="10" rx="0" y="309.09" x="280" height="30" width="640" opacity=".404" fill="url(#V)"/><g transform="scale(1 -1)"><rect width="640" height="30" x="280" y="-379.09" rx="0" ry="10" opacity=".5" fill="url(#W)"/><rect width="640" height="20" x="280" y="-414.09" rx="0" ry="10" opacity=".65" fill="url(#X)"/></g><rect width="640" height="20" x="280" y="284.09" rx="0" ry="10" opacity=".36" fill="url(#Y)"/><rect ry="0" rx="10" y="564.09" x="300" height="20" width="700" fill="#64837d"/><path d="M340 524.1h620v40H340z" fill="url(#g)"/><g fill="#6f918a"><rect width="640" height="10" x="280" y="339.09" rx="0" ry="10"/><rect width="640" height="5" x="280" y="379.09" rx="0" ry="10"/><rect width="640" height="5" x="280" y="304.09" rx="0" ry="10"/><rect width="640" height="5" x="280" y="279.09" rx="0" ry="10"/><rect width="640" height="5" x="280" y="409.09" rx="0" ry="10"/><rect width="640" height="5" x="280" y="259.09" rx="0" ry="10"/><rect width="640" height="5" x="280" y="429.09" rx="0" ry="10"/><rect width="640" height="5" x="280" y="239.09" rx="0" ry="10"/><rect width="640" height="5" x="280" y="224.09" rx="0" ry="10"/><rect width="640" height="5" x="280" y="444.09" rx="0" ry="10"/><rect width="640" height="5" x="280" y="459.09" rx="0" ry="10"/><rect width="640" height="3" x="280" y="470.09" rx="0" ry="10"/><rect width="640" height="3" x="280" y="480.09" rx="0" ry="10"/><rect width="640" height="3" x="280" y="490.09" rx="0" ry="10"/><rect width="640" height="3" x="280" y="500.09" rx="0" ry="10"/><rect width="640" height="3" x="280" y="507.09" rx="0" ry="10"/><rect width="640" height="2" x="280" y="513.09" rx="0" ry="10"/><g transform="scale(1 -1)"><rect width="640" height="3" x="280" y="-217.09" rx="0" ry="10"/><rect width="640" height="3" x="280" y="-207.09" rx="0" ry="10"/><rect width="640" height="3" x="280" y="-197.09" rx="0" ry="10"/><rect width="640" height="3" x="280" y="-187.09" rx="0" ry="10"/><rect width="640" height="3" x="280" y="-180.09" rx="0" ry="10"/><rect width="640" height="2" x="280" y="-174.09" rx="0" ry="10"/></g></g><path d="M884.286 164.1v360H988.43c6.41 0 11.57-4.46 11.57-10v-340c0-5.54-5.16-10-11.57-10H884.286z" fill="url(#Z)"/><path d="M970 194.1h10v40h-10zm-15 0h10v40h-10zm-15 0h10v40h-10z" fill="#1c2422"/><path d="M680 324.1h140v140H680z" fill="url(#b)"/><path d="M680 324.094v52.813c26.515 22.592 68.17 37.188 115 37.188 8.526 0 16.876-.51 25-1.437v-88.562H680z" opacity=".28" fill="url(#c)"/></g></svg>