<svg xmlns="http://www.w3.org/2000/svg" xmlns:xlink="http://www.w3.org/1999/xlink" width="820" height="440"><defs><linearGradient id="A" xlink:href="#l"><stop offset="0" stop-color="#0b1728"/><stop offset=".5" stop-color="#0b1728" stop-opacity=".498"/><stop offset="1" stop-color="#0b1728" stop-opacity="0"/></linearGradient><linearGradient id="B" xlink:href="#l"><stop offset="0" stop-color="#214478"/><stop offset=".451" stop-color="#2c5aa0"/><stop offset=".725" stop-color="#214378"/><stop offset="1" stop-color="#162d50"/></linearGradient><linearGradient xlink:href="#B" id="C" x1="907.083" y1="199.88" x2="907.083" y2="528.301"/><linearGradient xlink:href="#B" id="D" x1="840" y1="164.09" x2="840" y2="564.09"/><linearGradient id="E" x1="540" y1="184.09" x2="540" y2="544.09" xlink:href="#l"><stop offset="0" stop-color="#214478"/><stop offset=".451" stop-color="#2c5aa0"/><stop offset=".725" stop-color="#214378"/><stop offset="1" stop-color="#162d50"/></linearGradient><linearGradient xlink:href="#A" id="F" x1="800" y1="334.09" x2="760" y2="334.09"/><linearGradient id="G" x1="495" y1="374.09" x2="495" y2="389.09" xlink:href="#l"><stop offset="0" stop-color="#214478"/><stop offset=".5" stop-color="#214478" stop-opacity=".498"/><stop offset="1" stop-color="#27508e"/></linearGradient><linearGradient y2="414.09" x2="495" y1="399.09" x1="495" id="H" xlink:href="#l"><stop offset="0" stop-color="#214478"/><stop offset=".5" stop-color="#214478" stop-opacity=".498"/><stop offset="1" stop-color="#27508e"/></linearGradient><linearGradient y2="439.09" x2="495" y1="424.09" x1="495" id="I" xlink:href="#l"><stop offset="0" stop-color="#214478"/><stop offset=".5" stop-color="#214478" stop-opacity=".498"/><stop offset="1" stop-color="#27508e"/></linearGradient><linearGradient y2="389.09" x2="785" y1="374.09" x1="785" id="J" xlink:href="#l"><stop offset="0" stop-color="#214478"/><stop offset=".5" stop-color="#214478" stop-opacity=".498"/><stop offset="1" stop-color="#27508e"/></linearGradient><linearGradient y2="414.09" x2="785" y1="399.09" x1="785" id="K" xlink:href="#l"><stop offset="0" stop-color="#214478"/><stop offset=".5" stop-color="#214478" stop-opacity=".498"/><stop offset="1" stop-color="#27508e"/></linearGradient><linearGradient y2="439.09" x2="785" y1="424.09" x1="785" id="L" xlink:href="#l"><stop offset="0" stop-color="#214478"/><stop offset=".5" stop-color="#214478" stop-opacity=".498"/><stop offset="1" stop-color="#27508e"/></linearGradient><linearGradient y2="409.09" x2="675" y1="394.09" x1="675" id="M" xlink:href="#l"><stop offset="0" stop-color="#214478"/><stop offset=".5" stop-color="#214478" stop-opacity=".498"/><stop offset="1" stop-color="#27508e"/></linearGradient><linearGradient y2="434.09" x2="675" y1="419.09" x1="675" id="N" xlink:href="#l"><stop offset="0" stop-color="#214478"/><stop offset=".5" stop-color="#214478" stop-opacity=".498"/><stop offset="1" stop-color="#27508e"/></linearGradient><linearGradient xlink:href="#A" id="O" x1="645" y1="304.09" x2="645" y2="339.09"/><linearGradient y2="364.09" x2="645" y1="329.09" x1="645" id="P" xlink:href="#l"><stop offset="0" stop-color="#0b1728"/><stop offset="1" stop-color="#0b1728" stop-opacity="0"/></linearGradient><linearGradient y2="389.09" x2="645" y1="354.09" x1="645" id="Q" xlink:href="#l"><stop offset="0" stop-color="#0b1728"/><stop offset="1" stop-color="#0b1728" stop-opacity="0"/></linearGradient><linearGradient y2="479.09" x2="645" y1="444.09" x1="645" id="R" xlink:href="#l"><stop offset="0" stop-color="#0b1728"/><stop offset="1" stop-color="#0b1728" stop-opacity="0"/></linearGradient><linearGradient id="S" xlink:href="#l"><stop offset="0" stop-color="#0b1728"/><stop offset="1" stop-color="#0b1728" stop-opacity="0"/></linearGradient><linearGradient y2="509.09" x2="645" y1="474.09" x1="645" id="T" xlink:href="#S"/><linearGradient id="U" x1="550" y1="174.09" x2="550" y2="219.09" xlink:href="#l"><stop offset="0" stop-color="#2b589e"/><stop offset=".5" stop-color="#1b3763"/><stop offset="1" stop-color="#0b1728"/></linearGradient><linearGradient y2="224.09" x2="550" y1="174.09" x1="550" id="V" xlink:href="#l"><stop offset="0" stop-color="#2b589e"/><stop offset="1" stop-color="#0b1728"/></linearGradient><linearGradient y2="284.09" x2="550" y1="174.09" x1="550" id="W" xlink:href="#l"><stop offset="0" stop-color="#2b589e"/><stop offset="1" stop-color="#0b1728"/></linearGradient><linearGradient id="X" x1="595" y1="254.09" x2="595" y2="299.09" xlink:href="#l"><stop offset="0" stop-color="#1d3b6a"/><stop offset=".5" stop-color="#1b3763" stop-opacity=".394"/><stop offset="1" stop-color="#1d3c6b"/></linearGradient><linearGradient id="Y" x1="445" y1="576.699" x2="445" y2="514.09" xlink:href="#l"><stop offset="0" stop-color="#0b1728"/><stop offset=".603" stop-color="#0b1728" stop-opacity=".498"/><stop offset="1" stop-color="#0b1728" stop-opacity="0"/></linearGradient><linearGradient id="Z" x1="755" y1="576.699" x2="755" y2="514.09" xlink:href="#l"><stop offset="0" stop-color="#0b1728"/><stop offset="1" stop-color="#0b1728" stop-opacity="0"/></linearGradient><linearGradient y2="494.09" x2="645" y1="474.09" x1="645" id="a" xlink:href="#l"><stop offset="0" stop-color="#0b1728"/><stop offset="1" stop-color="#0b1728" stop-opacity="0"/></linearGradient><linearGradient y2="469.09" x2="645" y1="454.09" x1="645" id="b" xlink:href="#l"><stop offset="0" stop-color="#0b1728"/><stop offset="1" stop-color="#0b1728" stop-opacity="0"/></linearGradient><linearGradient xlink:href="#B" id="c" x1="350" y1="184.09" x2="350" y2="544.09"/><linearGradient xlink:href="#B" id="d" x1="456.25" y1="199.09" x2="456.25" y2="529.09"/><linearGradient xlink:href="#B" id="e" x1="290" y1="304.09" x2="290" y2="424.09"/><linearGradient id="f" x1="250" y1="384.09" x2="250" y2="344.09" xlink:href="#l"><stop offset="0" stop-color="#1a1a1a"/><stop offset=".5" stop-color="#e6e6e6"/><stop offset=".75" stop-color="#fff"/><stop offset=".875" stop-color="#666"/><stop offset="1" stop-color="#ccc"/></linearGradient><linearGradient xlink:href="#S" id="g" x1="360" y1="344.09" x2="410" y2="344.09"/><linearGradient xlink:href="#A" id="h" x1="810" y1="364.09" x2="880" y2="364.09"/><linearGradient y2="344.09" x2="290" y1="344.09" x1="323.333" id="i" xlink:href="#l"><stop offset="0" stop-color="#0b1728"/><stop offset="1" stop-color="#0b1728" stop-opacity="0"/></linearGradient><path id="j" d="M600 366.6c0 4.14-3.36 7.5-7.5 7.5s-7.5-3.36-7.5-7.5 3.36-7.5 7.5-7.5 7.5 3.36 7.5 7.5z"/><path id="k" d="M444.844 174.1c-19.307 0-34.844 7.913-34.844 17.75v32.25h390v-32.25c0-9.837-15.537-17.75-34.844-17.75H444.844z"/><linearGradient id="l" gradientUnits="userSpaceOnUse"/></defs><g transform="translate(-160 -164.09)"><path d="M855 559.1l125-71.842V240.932L855 169.1v390z" fill="url(#C)"/><path d="M855 169.094v390l25-14.375V183.47l-25-14.375z" fill="url(#h)"/><rect ry="7.987" rx="6.786" y="164.09" x="800" height="400" width="60" fill="url(#D)"/><rect rx="34.85" ry="17.757" y="174.09" x="410" height="380" width="390" fill="url(#E)"/><rect ry="12.143" rx="11.429" y="194.09" x="290" height="340" width="190" fill="url(#d)"/><path d="M280 304.1h10v120h-10z" fill="url(#e)"/><path d="M160 344.1h120v40H160z" fill="url(#f)"/><path d="M765 174.094a4.99 4.99 0 0 0-5 5v375h5.156c19.307 0 34.844-7.913 34.844-17.75v-344.5c0-9.837-15.537-17.75-34.844-17.75H765z" opacity=".77" fill="url(#F)"/><path d="M410 474.1h390v35H410z" opacity=".792" fill="url(#T)"/><path d="M410 454.1h390v15H410z" opacity=".394" fill="url(#b)"/><path d="M410 444.1h390v35H410z" opacity=".792" fill="url(#R)"/><path d="M410 329.1h390v35H410z" opacity=".792" fill="url(#P)"/><rect ry="5" rx="0" y="274.09" x="410" height="200" width="390" opacity=".124" fill="#0b1728"/><path d="M410 299.1h390v5H410z" fill="#2b589e"/><path d="M410 304.1h390v35H410z" opacity=".792" fill="url(#O)"/><path d="M410 324.1h390v5H410zm0 25h390v5H410z" fill="#2b589e"/><path d="M410 354.1h390v35H410z" opacity=".792" fill="url(#Q)"/><path d="M410 474.1h390v20H410z" opacity=".394" fill="url(#a)"/><g fill="#2b589e"><rect rx="10.859" y="354.09" x="580" height="130" width="190"/><rect rx="10.714" y="364.09" x="410" height="90" width="390"/></g><rect ry="10" y="354.09" x="580" height="25" width="25" fill="#214478"/><path d="M410 469.1h390v5H410z" fill="#2b589e"/><g fill="#214478"><rect y="459.09" x="580" height="25" width="25" rx="10"/><rect y="459.09" x="745" height="25" width="25" rx="10"/><rect y="354.09" x="745" height="25" width="25" rx="10"/></g><path d="M410 374.1h170v20H410z" fill="url(#G)"/><path d="M410 399.1h170v20H410z" fill="url(#H)"/><path d="M410 424.1h170v20H410z" fill="url(#I)"/><path d="M770 374.1h30v20h-30z" fill="url(#J)"/><path d="M770 399.1h30v20h-30z" fill="url(#K)"/><path d="M770 424.1h30v20h-30z" fill="url(#L)"/><g fill="#1c2224"><use xlink:href="#j"/><use xlink:href="#j" y="105"/><use xlink:href="#j" x="165"/><use xlink:href="#j" x="165" y="105"/></g><rect ry="10" y="394.09" x="600" height="20" width="150" fill="url(#M)"/><rect y="419.09" x="600" height="20" width="150" rx="10" fill="url(#N)"/><use xlink:href="#k" fill="url(#U)"/><use xlink:href="#k" y="15" fill="url(#V)"/><use xlink:href="#k" y="30" fill="url(#W)"/><rect ry="10" rx="0" y="254.09" x="410" height="45" width="390" fill="url(#X)"/><path d="M410 494.1h390v5H410z" fill="#2b589e"/><path d="M410 510.177h70v86.087h-70z" fill="#19335c"/><g fill="#2b589e"><path d="M410 576.7h70v27.39h-70z"/><path d="M410 510.177h10v70.435h-10zm60 0h10v70.435h-10z"/></g><path d="M410 514.1h70v62.61h-70z" opacity=".53" fill="url(#Y)"/><path d="M720 510.177h70v86.087h-70z" fill="#19335c"/><g fill="#2b589e"><path d="M720 576.7h70v27.39h-70z"/><path d="M720 510.177h10v70.435h-10zm60 0h10v70.435h-10z"/></g><path d="M720 514.1h70v62.61h-70z" opacity=".53" fill="url(#Z)"/><path d="M380 194.1h30v340h-30z" fill="url(#g)"/><rect rx="9.643" y="184.09" x="310" height="360" width="80" fill="url(#c)"/><path d="M301.438 194.094c-6.33 0-11.437 5.398-11.437 12.125v315.72c0 6.727 5.106 12.156 11.438 12.156H310v-340h-8.562z" opacity=".58" fill="url(#i)"/></g></svg>