<svg xmlns="http://www.w3.org/2000/svg" xmlns:xlink="http://www.w3.org/1999/xlink" width="479.714" height="321.143"><defs><radialGradient id="A" cx="210" cy="261.456" fx="210" fy="261.456" r="165" gradientTransform="matrix(-1.2935592e-6,0.7878787,-3.2727272,8.3304989e-8,1055.673,94.545465)" xlink:href="#G"><stop offset="0" stop-color="#f9f9f9"/><stop offset="1" stop-color="#4d4d4d"/></radialGradient><radialGradient id="B" cx="440" cy="260" fx="440" fy="260" r="30" gradientTransform="matrix(3.9999998,2.2610553e-7,-6.5430589e-7,0.3333333,-1319.9997,173.33324)" xlink:href="#G"><stop offset="0" stop-color="#ccc"/><stop offset="1" stop-color="gray"/></radialGradient><radialGradient id="C" cx="400" cy="264.524" fx="400" fy="264.524" r="10" gradientTransform="matrix(5.8356822e-6,11.000006,-10.5,8.5720688e-6,3177.4975,-4140.0048)" xlink:href="#G"><stop offset="0" stop-color="#ccc"/><stop offset="1" stop-color="#4e4e4e"/></radialGradient><radialGradient id="D" cx="375.409" cy="264.102" fx="375.409" fy="264.102" r="18" gradientTransform="matrix(12.777774,-3.7317742e-7,1.8614652e-7,5.4444444,-4416.8876,-1177.8899)" xlink:href="#G"><stop offset="0" stop-color="#803300"/><stop offset="1" stop-color="#2b1100"/></radialGradient><radialGradient id="E" cx="60.715" cy="363.904" fx="60.715" fy="363.904" r="16.571" gradientTransform="matrix(-0.4827586,0,5.1473961e-8,-10.503545,90.024718,4140.445)" xlink:href="#G"><stop offset="0" stop-color="#ebebeb"/><stop offset="1" stop-color="#6b6b6b"/></radialGradient><radialGradient r="16.571" fy="363.904" fx="60.715" cy="363.904" cx="60.715" gradientTransform="matrix(-0.4827586,0,5.1473961e-8,-10.503545,343.46787,4139.9472)" id="F" xlink:href="#G"><stop offset="0" stop-color="#ebebeb"/><stop offset="1" stop-color="#6b6b6b"/></radialGradient><linearGradient id="G" gradientUnits="userSpaceOnUse"/></defs><g transform="translate(-12.286 -138)"><g stroke="#000" stroke-width="4" stroke-linejoin="round"><path d="M30 140h330v250H30z" fill="url(#A)"/><path d="M360 170h30v190h-30z" fill="url(#D)"/><path d="M390 160h20v210h-20z" fill="url(#C)"/><path d="M410 250h80v20h-80z" fill="url(#B)"/></g><path d="M33.03 160h322.273v11.666H33.03z" fill="#b3b3b3"/><path d="M34.345 180.792h321.228v45.457H34.345z" fill="#e6e6e6"/><g stroke="#000" stroke-width="4"><rect rx="13.571" y="262.857" x="47.143" height="191.429" width="27.143" fill="url(#E)"/><rect y="262.359" x="300.586" height="191.429" width="27.143" rx="13.571" fill="url(#F)"/><rect ry="13.571" rx="0" y="437.143" x="14.286" height="20" width="414.286" fill="#6b6b6b" stroke-linejoin="round"/></g></g></svg>