<svg xmlns="http://www.w3.org/2000/svg" xmlns:xlink="http://www.w3.org/1999/xlink" width="340" height="340"><defs><linearGradient id="A" gradientUnits="userSpaceOnUse"><stop offset="0" stop-color="#4d4d4d"/><stop offset=".172" stop-color="#999"/><stop offset=".504" stop-color="#f2f2f2"/><stop offset=".831" stop-color="#999"/><stop offset="1" stop-color="#4d4d4d"/></linearGradient><linearGradient xlink:href="#A" id="B" x1="-110" y1="170" x2="-110" y2="330"/><linearGradient xlink:href="#A" id="C" x1="320" y1="154.59" x2="180" y2="154.59"/><linearGradient xlink:href="#A" id="D" x1="320" y1="364.285" x2="180" y2="364.285"/><linearGradient id="E" x1="410" y1="170" x2="410" y2="330" gradientUnits="userSpaceOnUse"><stop offset="0" stop-color="#4d4d4d"/><stop offset=".172" stop-color="#999"/><stop offset=".504" stop-color="#f2f2f2"/><stop offset=".831" stop-color="#999"/><stop offset="1" stop-color="#4d4d4d"/></linearGradient><linearGradient xlink:href="#A" id="F" x1="400" y1="340" x2="400" y2="180"/><linearGradient xlink:href="#A" id="G" x1="255.2" y1="190" x2="255.2" y2="330"/><linearGradient xlink:href="#A" id="H" x1="100" y1="180" x2="100" y2="340"/></defs><g transform="translate(-80 -90)"><rect rx="4.798" y="180" x="80" height="160" width="40" fill="url(#H)"/><path d="M120 190h260v140H120z" fill="url(#G)"/><rect rx="4.546" y="180" x="380" height="160" width="40" fill="url(#F)"/><rect rx="4.798" transform="matrix(0 1 1 0 0 0)" y="170" x="390" height="160" width="40" fill="url(#E)"/><path d="M250 270.875a69.85 69.85 0 0 0-70 70v39.656c0 3.217.24 6.37.656 9.47h138.688c.416-3.1.656-6.252.656-9.47v-39.656a69.85 69.85 0 0 0-70-70z" fill="url(#D)"/><path d="M250 248a69.85 69.85 0 0 1-70-70v-39.656c0-3.217.24-6.37.656-9.47h138.688c.416 3.1.656 6.252.656 9.47V178a69.85 69.85 0 0 1-70 70z" fill="url(#C)"/><rect transform="rotate(270)" y="170" x="-130" height="160" width="40" rx="4.798" fill="url(#B)"/></g></svg>