<svg xmlns="http://www.w3.org/2000/svg" xmlns:xlink="http://www.w3.org/1999/xlink" width="310" height="310"><defs><linearGradient id="A" gradientUnits="userSpaceOnUse"><stop offset="0" stop-color="#4d4d4d"/><stop offset=".172" stop-color="#999"/><stop offset=".504" stop-color="#f2f2f2"/><stop offset=".831" stop-color="#999"/><stop offset="1" stop-color="#4d4d4d"/></linearGradient><linearGradient xlink:href="#A" id="B" x1="110" y1="250" x2="110" y2="410"/><linearGradient id="C" x1="-192.8" y1="-390" x2="-192.8" y2="-250" gradientUnits="userSpaceOnUse"><stop offset="0" stop-color="#4d4d4d"/><stop offset=".172" stop-color="#999"/><stop offset=".504" stop-color="#f2f2f2"/><stop offset=".831" stop-color="#999"/><stop offset="1" stop-color="#4d4d4d"/></linearGradient><linearGradient xlink:href="#A" id="D" x1="187.2" y1="260" x2="187.2" y2="400"/><linearGradient y2="-240" x2="120" y1="-400" x1="120" id="E" gradientUnits="userSpaceOnUse"><stop offset="0" stop-color="#4d4d4d"/><stop offset=".086" stop-color="#737373"/><stop offset=".172" stop-color="#999"/><stop offset=".504" stop-color="#f2f2f2"/><stop offset=".831" stop-color="#999"/><stop offset="1" stop-color="#4d4d4d"/></linearGradient><radialGradient id="F" cx="225" cy="175" fx="225" fy="175" r="77.5" gradientTransform="matrix(-1.2903188,1.4838744,-1.4838712,-1.2903224,784.99917,136.93469)" gradientUnits="userSpaceOnUse"><stop offset="0" stop-color="#4d4d4d"/><stop offset=".111" stop-color="#555"/><stop offset=".243" stop-color="#999"/><stop offset=".547" stop-color="#f2f2f2"/><stop offset=".875" stop-color="#999"/><stop offset="1" stop-color="#4d4d4d"/></radialGradient></defs><g transform="translate(-90 -100)"><path d="M250 245a15.01 15.01 0 0 1-15 15v140c85.56 0 155-69.44 155-155H250z" fill="url(#F)"/><rect rx="4.798" y="250" x="90" height="160" width="40" fill="url(#B)"/><path d="M130 260h110v140H130z" fill="url(#D)"/><path transform="matrix(0 -1 -1 0 0 0)" d="M-250-390h110v140h-110z" fill="url(#C)"/><rect transform="matrix(0 1 -1 0 0 0)" y="-400" x="100" height="160" width="40" rx="4.798" fill="url(#E)"/></g></svg>