<svg xmlns="http://www.w3.org/2000/svg" xmlns:xlink="http://www.w3.org/1999/xlink" width="53.212" height="69.707"><defs><filter id="A" x="-.113" width="1.227" y="-.083" height="1.167"><feGaussianBlur stdDeviation="1.596"/></filter><linearGradient id="B" x1="838.527" y1="194.829" x2="891.429" y2="194.829" xlink:href="#Q"><stop offset="0"/><stop offset="1" stop-opacity="0"/></linearGradient><radialGradient id="C" gradientTransform="matrix(-0.4686523,-6.6185073e-8,1.6704839e-7,-1.2398704,1219.0887,615.33419)" cx="639.37" cy="276.434" fx="639.37" fy="276.434" r="57.813" xlink:href="#Q"><stop offset="0"/><stop offset="1" stop-opacity="0"/></radialGradient><linearGradient id="D" x1="970.363" y1="313.289" x2="925.307" y2="313.289" xlink:href="#Q"><stop offset="0"/><stop offset="1" stop-opacity="0"/></linearGradient><linearGradient id="E" x1="935.547" y1="-153.545" x2="886.395" y2="-153.545" xlink:href="#Q"><stop offset="0"/><stop offset="1" stop-opacity="0"/></linearGradient><radialGradient id="F" gradientTransform="matrix(0.9506254,1.4508608e-6,2.4181219e-6,-1.5843887,27.836881,600.15284)" cx="934.173" cy="247.163" fx="934.173" fy="247.163" r="17.573" xlink:href="#Q"><stop offset="0" stop-color="#fff"/><stop offset="1" stop-color="#fff" stop-opacity="0"/></radialGradient><linearGradient id="G" x1="971.572" y1="258.67" x2="929.807" y2="258.67" xlink:href="#Q"><stop offset="0"/><stop offset="1" stop-opacity="0"/></linearGradient><radialGradient id="H" gradientTransform="matrix(0.3786566,0.4868438,0.8669011,-0.6742567,390.97777,160.29347)" cx="527.714" cy="342.496" fx="527.714" fy="342.496" r="57.813" xlink:href="#Q"><stop offset="0" stop-color="#fff"/><stop offset="1" stop-color="#fff" stop-opacity="0"/></radialGradient><path id="I" d="M281.76 844.857c.483-2.923.767-6.327.767-10s-.284-7.088-.767-10c2.08 1.425 3.572 5.37 3.572 10s-1.494 8.563-3.572 10z"/><path id="J" d="M291.76 842.178c-1.043-2.773-2.5-5.862-4.33-9.035s-3.8-5.996-5.67-8.286c2.514.195 5.778 2.864 8.1 6.883s2.988 8.163 1.9 10.438z"/><path id="K" d="M301.76 824.857c-2.923-.483-6.327-.767-10-.767s-7.088.284-10 .767c1.425-2.08 5.37-3.572 10-3.572s8.563 1.494 10 3.572z"/><path id="L" d="M291.76 807.537c-1.88 2.3-3.827 5.096-5.66 8.268s-3.298 6.28-4.34 9.052c-1.09-2.274-.41-6.436 1.91-10.455s5.575-6.67 8.09-6.865z"/><path id="M" d="M281.76 804.857c-.483 2.923-.767 6.327-.767 10s.284 7.088.767 10c-2.08-1.425-3.572-5.37-3.572-10s1.494-8.563 3.572-10z"/><path id="N" d="M271.76 807.537c1.043 2.773 2.5 5.862 4.33 9.035s3.8 5.996 5.67 8.286c-2.514-.195-5.778-2.864-8.1-6.883s-2.988-8.163-1.9-10.438z"/><path id="O" d="M261.76 824.857c2.923.483 6.327.767 10 .767s7.087-.284 10-.767c-1.425 2.08-5.37 3.572-10 3.572s-8.563-1.494-10-3.572z"/><path id="P" d="M928.804 203.23c9.625 0 17.438 7.812 17.438 17.438v88.312h-34.844v-87.72c-.007-.2-.03-.393-.03-.594 0-9.625 7.812-17.437 17.438-17.437z"/><linearGradient id="Q" gradientUnits="userSpaceOnUse"/></defs><g transform="translate(-255.872 -794.597)"><g stroke="#000" stroke-width=".5"><path d="M259.952 798.898v3.01h2.62v25.434l-.058 1.402c0 9.57 6.34 17.664 15.044 20.32v8.148h-2.62v3.01h18.067v-3.01h-2.632v-8.286c8.5-2.783 14.63-10.765 14.63-20.182 0-11.726-9.513-21.24-21.24-21.24a21.19 21.19 0 0 0-8.378 1.712v-7.3h2.643v-3.01h-18.078z" filter="url(#A)"/><path d="M258.048 794.847v3.01h2.62v25.434l-.057 1.402c0 9.57 6.34 17.664 15.044 20.32v8.148h-2.62v3.01h18.067v-3.01h-2.632v-8.286c8.5-2.783 14.63-10.765 14.63-20.182 0-11.726-9.512-21.24-21.24-21.24a21.19 21.19 0 0 0-8.378 1.712v-7.3h2.643v-3.01h-18.078z" fill="#0f0"/><path d="M296.51 824.857a14.76 14.76 0 0 1-14.75 14.75 14.76 14.76 0 0 1-14.75-14.75 14.76 14.76 0 0 1 14.75-14.75 14.76 14.76 0 0 1 14.75 14.75z" fill="#fff"/></g><use xlink:href="#I"/><use xlink:href="#J"/><path d="M299.08 834.857c-2.3-1.88-5.096-3.827-8.268-5.66s-6.28-3.298-9.052-4.34c2.274-1.088 6.436-.41 10.455 1.91s6.67 5.575 6.865 8.09z"/><use xlink:href="#K"/><path d="M299.08 814.857c-2.773 1.043-5.862 2.5-9.035 4.33s-5.996 3.8-8.286 5.67c.195-2.514 2.864-5.778 6.883-8.1s8.163-2.988 10.438-1.9z"/><use xlink:href="#L"/><use xlink:href="#M"/><use xlink:href="#N"/><path d="M264.44 814.857c2.3 1.88 5.096 3.827 8.268 5.66s6.28 3.298 9.052 4.34c-2.274 1.088-6.436.41-10.455-1.91s-6.67-5.575-6.865-8.09z"/><use xlink:href="#O"/><path d="M264.44 834.857c2.773-1.043 5.862-2.5 9.035-4.33s5.996-3.8 8.286-5.67c-.195 2.514-2.864 5.778-6.883 8.1s-8.163 2.988-10.438 1.9z"/><path d="M271.76 842.178c1.88-2.3 3.827-5.096 5.66-8.268s3.298-6.28 4.34-9.052c1.09 2.274.41 6.436-1.91 10.455s-5.575 6.67-8.09 6.865z"/><use xlink:href="#I" x="0.285" y="0.063"/><use xlink:href="#J" x="0.285" y="0.064"/><path d="M299.365 834.92c-2.3-1.88-5.096-3.827-8.268-5.66s-6.28-3.298-9.052-4.34c2.274-1.09 6.436-.41 10.455 1.91s6.67 5.575 6.865 8.09z"/><use xlink:href="#K" x="0.285" y="0.063"/><path d="M299.365 814.92c-2.773 1.043-5.862 2.5-9.035 4.33s-5.996 3.8-8.285 5.67c.194-2.514 2.864-5.778 6.883-8.1s8.163-2.988 10.438-1.9z"/><use xlink:href="#L" x="0.285" y="0.063"/><use xlink:href="#M" x="0.285" y="0.063"/><use xlink:href="#N" x="0.285" y="0.063"/><path d="M264.724 814.92c2.3 1.88 5.096 3.827 8.268 5.66s6.28 3.298 9.053 4.34c-2.274 1.088-6.436.41-10.455-1.91s-6.67-5.575-6.865-8.09z"/><use xlink:href="#O" x="0.285" y="0.063"/><path d="M264.724 834.92c2.773-1.043 5.862-2.5 9.035-4.33s5.996-3.8 8.285-5.67c-.195 2.514-2.864 5.778-6.883 8.1s-8.163 2.988-10.438 1.9z"/><path d="M272.045 842.242c1.88-2.3 3.827-5.096 5.66-8.268s3.298-6.28 4.34-9.052c1.088 2.274.41 6.436-1.912 10.455s-5.575 6.67-8.088 6.865z"/><path d="M282.065 814.307c-3.505 0-6.35 2.9-6.35 6.474v32.8h12.687v-32.57l.01-.22c0-3.574-2.844-6.474-6.35-6.474z" fill="#0f0"/><g transform="matrix(.367774 0 0 .367774 -59.52465 739.62699)"><path d="M870.738 158.51v69.248c1.59-22.13 15.492-40.87 34.844-49.238v-20h-34.844z" fill="url(#B)"/><g stroke="#000" stroke-width=".272"><path d="M928.156 173.48c-31.885 0-57.75 25.896-57.75 57.78 0 26.01 17.22 48.022 40.875 55.25v-66.156c0-9.626 7.812-17.437 17.438-17.437s17.438 7.812 17.438 17.438c0 .2-.025.395-.03.594v65.187c23.085-7.567 39.78-29.27 39.78-54.875 0-31.885-25.865-57.78-57.75-57.78z" fill="url(#C)"/><path d="M903.805 308.848h49.152v8.192h-49.152z" fill="url(#D)"/><path transform="scale(1 -1)" d="M863.07-158.47h49.152v8.192H863.07z" fill="url(#E)"/><use xlink:href="#P" fill="url(#F)"/><use xlink:href="#P" fill="url(#G)"/></g><path d="M929.118 173.48c31.885 0 57.75 25.896 57.75 57.78 0 26.01-17.22 48.022-40.875 55.25v-66.156c0-9.626-7.812-17.437-17.437-17.437s-17.437 7.812-17.437 17.438c0 .2.025.395.03.594v65.187c-23.085-7.567-39.78-29.27-39.78-54.875 0-31.885 25.865-57.78 57.75-57.78z" fill="url(#H)"/></g></g></svg>