<svg xmlns="http://www.w3.org/2000/svg" xmlns:xlink="http://www.w3.org/1999/xlink" width="470" height="460"><style><![CDATA[.B{fill:#003a92}.C{fill:#162d50}]]></style><defs><radialGradient id="A" cx="540" cy="344.094" fx="540" fy="344.094" r="220" gradientTransform="matrix(1,-1.2855999e-8,-1.9067267e-6,1,6.195077e-4,2.6047711e-5)" xlink:href="#K"><stop offset="0" stop-color="#003380"/><stop offset=".633" stop-color="#003d9b"/><stop offset=".792" stop-color="#0062f5"/><stop offset=".961" stop-color="#003380"/><stop offset="1" stop-color="#003380"/></radialGradient><radialGradient id="B" cx="539.537" cy="344.094" fx="539.537" fy="344.094" r="160" gradientTransform="matrix(2.8926799e-3,-0.8499999,0.8471024,2.882594e-3,246.4932,801.70913)" xlink:href="#K"><stop offset="0"/><stop offset=".936" stop-opacity=".498"/><stop offset="1" stop-opacity="0"/></radialGradient><radialGradient id="C" cx="615" cy="277.116" fx="615" fy="277.116" r="45.109" gradientTransform="matrix(-0.9975754,0.8867339,-0.6125863,-0.6891595,1366.4913,-62.99286)" xlink:href="#K"><stop offset="0" stop-color="#afdde9"/><stop offset="1" stop-color="#afdde9" stop-opacity="0"/></radialGradient><radialGradient id="D" cx="540" cy="110.189" fx="540" fy="110.189" r="158.906" gradientTransform="matrix(2.855233e-6,1.2664704,-1.33063,-8.0273624e-8,654.84387,-467.52288)" xlink:href="#K"><stop offset="0" stop-color="#fff"/><stop offset="1" stop-color="#fff" stop-opacity="0"/></radialGradient><linearGradient id="E" x1="-741.861" y1="116.371" x2="-598.225" y2="116.371" xlink:href="#K"><stop offset="0" stop-color="#003380"/><stop offset=".249" stop-color="#003380"/><stop offset=".616" stop-color="#06f"/><stop offset="1" stop-color="#025"/></linearGradient><linearGradient id="F" x1="668.225" y1="136.371" x2="668.225" y2="176.371" xlink:href="#K"><stop offset="0" stop-color="#003380"/><stop offset=".218" stop-color="#003380"/><stop offset=".539" stop-color="#06f"/><stop offset=".875" stop-color="#025"/><stop offset="1" stop-color="#025"/></linearGradient><linearGradient id="G" x1="668.225" y1="136.371" x2="668.225" y2="146.219" xlink:href="#K"><stop offset="0"/><stop offset=".668" stop-opacity=".498"/><stop offset="1" stop-opacity="0"/></linearGradient><radialGradient id="H" cx="868.071" cy="350.145" fx="868.071" fy="350.145" r="60" gradientTransform="matrix(0.8474577,-1.2014315e-6,6.9227088e-6,4.6347558,-58.897866,-1384.5666)" xlink:href="#K"><stop offset="0" stop-color="#005dea"/><stop offset="1" stop-color="#003380"/></radialGradient><path id="I" d="M517.646 240.98l-10.042 4.958-10-5.02.042-9.98 10.042-4.958 10 5.02-.042 9.98z"/><path id="J" d="M513.92 235.96c0 2.987-2.81 5.41-6.274 5.41s-6.274-2.424-6.274-5.41 2.81-5.41 6.274-5.41 6.274 2.424 6.274 5.41z"/><linearGradient id="K" gradientUnits="userSpaceOnUse"/></defs><g transform="translate(-288.225 -116.372)"><path transform="translate(-31.775 12.277)" d="M760 344.094c0 121.44-98.56 220-220 220s-220-98.56-220-220 98.56-220 220-220 220 98.56 220 220z" fill="url(#A)"/><path transform="matrix(1.125 0 0 1.125 -99.275179 -30.735063)" d="M700 344.094c0 88.32-71.68 160-160 160s-160-71.68-160-160 71.68-160 160-160 160 71.68 160 160z" fill="url(#B)"/><path d="M649.188 356.37c0 77.28-63.152 140-140.964 140s-140.964-62.72-140.964-140 63.152-140 140.964-140 140.964 62.72 140.964 140z" fill="#0055d4"/><path d="M608.225 356.37c0 55.2-44.8 100-100 100s-100-44.8-100-100 44.8-100 100-100 100 44.8 100 100z" fill="#04a"/><path d="M563.694 273.183l-55.47 83.188 90.22-43.156c-7.8-16.266-19.865-30.084-34.75-40.03z" opacity=".45" fill="url(#C)"/><path d="M598.225 356.37c0 49.68-40.32 90-90 90s-90-40.32-90-90 40.32-90 90-90 90 40.32 90 90z" fill="#6f7c91"/><path d="M508.225 216.37c-72.195 0-131.775 53.993-140 123.512 37.3 15.703 86.32 25.238 140 25.238s102.7-9.535 140-25.238c-8.225-69.518-67.805-123.512-140-123.512z" opacity=".482" fill="url(#D)"/><path d="M568.225 356.37c0 33.12-26.88 60-60 60s-60-26.88-60-60 26.88-60 60-60 60 26.88 60 60z" stroke="#000" stroke-width="1.7"/><use xlink:href="#I" fill="#0055d4"/><use xlink:href="#J" fill="#003380"/><use xlink:href="#I" x="120.579" y="120.39" class="B"/><use xlink:href="#J" x="120.58" y="120.393" class="C"/><use xlink:href="#I" x="0.579" y="240.82" class="B"/><use xlink:href="#J" x="0.58" y="240.822" class="C"/><use xlink:href="#I" x="-119.421" y="120.39" class="B"/><use xlink:href="#J" x="-119.42" y="120.393" class="C"/><use xlink:href="#I" x="-88.146" y="40.41" class="B"/><use xlink:href="#J" x="-88.146" y="40.41" class="C"/><use xlink:href="#I" x="90.579" y="40" class="B"/><use xlink:href="#J" x="90.58" y="40" class="C"/><use xlink:href="#I" x="90.579" y="200.39" class="B"/><use xlink:href="#J" x="90.58" y="200.393" class="C"/><use xlink:href="#I" x="-89.421" y="200.39" class="B"/><use xlink:href="#J" x="-89.42" y="200.393" class="C"/><path d="M608.225 134.893c.297 118.992 53.853 215.494 120 216.478V134.893h-120z" fill="url(#H)"/><path transform="scale(-1 1)" d="M-758.225 116.37h180v20h-180z" fill="url(#E)"/><path d="M608.225 136.37h120v40h-120z" opacity="0" fill="url(#F)"/><path d="M608.225 136.37h120v11.817h-120z" opacity=".606" fill="url(#G)"/></g></svg>