<svg xmlns="http://www.w3.org/2000/svg" xmlns:xlink="http://www.w3.org/1999/xlink" width="350" height="350"><defs><radialGradient id="A" cx="265.897" cy="379.094" fx="265.897" fy="379.094" r="143" gradientTransform="matrix(0.8529755,0.6823814,-0.5594402,0.6993009,52.64292000000003,-145.743764)" gradientUnits="userSpaceOnUse"><stop offset="0" stop-color="#f50"/><stop offset=".5" stop-color="red"/><stop offset="1" stop-color="#a00"/></radialGradient><linearGradient id="B" x1="87.366" y1="180.8" x2="87.366" y2="340.8" gradientUnits="userSpaceOnUse"><stop offset="0" stop-color="#ffd5d5"/><stop offset="1" stop-color="#faa" stop-opacity="0"/></linearGradient><linearGradient id="C" x1="87.366" y1="160.8" x2="87.366" y2="360.8" gradientUnits="userSpaceOnUse"><stop offset="0" stop-color="#f4d7d7"/><stop offset="1" stop-color="#b18282" stop-opacity="0"/></linearGradient><path id="D" d="M227.366 320.8c0 77.28-62.72 140-140 140s-140-62.72-140-140 62.72-140 140-140 140 62.72 140 140z"/></defs><g transform="translate(87.634 -145.8)"><path d="M259.83 320.8c0 95.2-77.264 172.464-172.464 172.464S-85.098 416-85.098 320.8-7.834 148.337 87.366 148.337 259.83 225.6 259.83 320.8z" fill="#280b0b" stroke="#000" stroke-width="5.072"/><path d="M87.366 150.813c-74.156 0-137.253 47.55-160.47 113.812 39.447 22.098 98.938 36.188 165.47 36.188 61.9 0 117.727-12.22 156.97-31.72-21.893-68.588-86.15-118.28-161.97-118.28z" fill="url(#C)"/><g stroke="#000" stroke-width="6" stroke-linejoin="round"><use xlink:href="#D" opacity=".735" fill="#501616"/><use xlink:href="#D" x="212.634" y="91.562" transform="translate(-212.634 -91.562)" fill="url(#A)"/></g><path d="M84.553 182.282C23.232 183.06-33.75 229.64-47.04 289.438c81.2 38.038 178.93 39.097 260.938 2.906 7.333-1.347 7.948-10.966 4.297-16.132-18.693-55.29-75.062-95.282-133.64-93.93z" fill="url(#B)"/></g></svg>