<svg xmlns="http://www.w3.org/2000/svg" width="80.013" height="80.013"><defs><linearGradient id="A" x1="515.506" y1="110" x2="564.494" y2="110" gradientUnits="userSpaceOnUse"><stop offset="0" stop-color="#fff"/><stop offset="1" stop-color="#fff" stop-opacity="0"/></linearGradient></defs><g transform="translate(-537.494 -90.494)"><path d="M616.006 130.5c0 21.255-17.25 38.506-38.506 38.506s-38.506-17.25-38.506-38.506 17.25-38.506 38.506-38.506 38.506 17.25 38.506 38.506z" fill="#827d85" stroke="#000" stroke-width="3.001"/><path d="M555 110a15.01 15.01 0 0 1-15 15 15.01 15.01 0 0 1-15-15 15.01 15.01 0 0 1 15-15 15.01 15.01 0 0 1 15 15z" transform="matrix(2.138738 1.234801 -1.234801 2.138738 -441.59032 -771.55359)" fill="none" stroke="url(#A)" stroke-width=".81"/><g transform="matrix(.707107 -.707107 .707107 .707107 77.221952 446.43028)" opacity=".1" stroke="#222"><rect width="15" height="79" x="570" y="91" rx="2.127" ry="1.831" opacity="1"/><path d="M572.5 90h10v45h-10z" opacity="1" fill="#fff"/></g><g transform="matrix(.707107 .707107 -.707107 .707107 261.77683 -370.27807)" stroke="#222"><rect ry="1.831" rx="2.127" y="91" x="570" height="79" width="15"/><path d="M572.5 90h10v45h-10z" fill="#fff"/></g></g></svg>