<svg xmlns="http://www.w3.org/2000/svg" xmlns:xlink="http://www.w3.org/1999/xlink" width="107.75" height="128.791"><defs><radialGradient id="A" gradientTransform="matrix(-0.5649179,-7.7245553e-3,-9.4160444e-2,7.63383,1086.6349,-2181.5403)" cx="1265.977" cy="327.07" fx="1265.977" fy="327.07" r="43.5" xlink:href="#H"><stop offset="0" stop-color="#fff"/><stop offset="1" stop-color="#5f0005"/></radialGradient><radialGradient id="B" gradientTransform="matrix(0.3819752,-0.3536762,0.7613939,0.3133208,-354.53164,375.77117)" cx="-288.737" cy="454.134" fx="-288.737" fy="454.134" r="107.48" xlink:href="#H"><stop offset="0" stop-color="#fff"/><stop offset="1" stop-color="#f193a5"/></radialGradient><radialGradient id="C" gradientTransform="matrix(0.4998726,-1.4989273e-7,6.8511611e-7,2.528471,-247.51618,-536.58426)" cx="1158.581" cy="336.443" fx="1158.581" fy="336.443" r="40.97" xlink:href="#H"><stop offset="0" stop-color="#fff"/><stop offset="1" stop-color="#f193a5"/></radialGradient><radialGradient id="D" gradientTransform="matrix(-0.9368603,-1.098748e-3,-5.4551782e-3,5.1564145,1519.0457,-1349.7501)" cx="1149.252" cy="325.012" fx="1149.252" fy="325.012" r="43.5" xlink:href="#H"><stop offset="0" stop-color="#f5f5f5"/><stop offset="1" stop-color="#5f0005"/></radialGradient><filter id="E" x="-.134" width="1.268" y="-.109" height="1.218"><feGaussianBlur stdDeviation="4.74"/></filter><radialGradient id="F" gradientTransform="matrix(0.9835564,-8.6757227e-8,0,0.2210774,-1121.7605,260.9898)" cx="713.681" cy="270.23" fx="713.681" fy="270.23" r="28.922" xlink:href="#H"><stop offset="0" stop-color="#f5f5f5" stop-opacity=".96"/><stop offset="1" stop-color="#f5f5f5" stop-opacity="0"/></radialGradient><radialGradient id="G" gradientTransform="matrix(0.5108429,-1.9545638e-2,9.1510581e-4,9.0373449e-2,25.4645,-342.92576)" cx="713.681" cy="270.23" fx="713.681" fy="270.23" r="28.922" xlink:href="#H"><stop offset="0" stop-opacity=".96"/><stop offset="1" stop-color="#f5f5f5" stop-opacity="0"/></radialGradient><linearGradient id="H" gradientUnits="userSpaceOnUse"/></defs><g transform="translate(-335.423 -246.019)"><path d="M346.798 258.85v.132c0-.045.025-.087.03-.132h-.03zm0 .132v93.312h.03c.472 3.51 19.363 11.14 42.526 11.14s41.94-7.632 42.41-11.14h.03v-93.312c0 3.487-18.173 6.32-40.875 6.45v79.81h-2.03c-17.395 0-32.362-3.466-38.937-5.745V261.45c-2.023-.752-3.156-1.604-3.156-2.468z" filter="url(#E)"/><g stroke="#000"><path d="M427.582 346.78v-.132c0 .045-.025.087-.03.132h.03zm0-.132l-.03-93.312c-.472-3.51-19.305-6.317-42.47-6.317s-41.996 2.81-42.47 6.317h-.03v93.312c0-3.57 19.04-6.45 42.5-6.45s42.5 2.878 42.5 6.45z" fill="url(#D)" stroke-width="2"/><path d="M427.348 340.625c0 3.57-19.04 6.47-42.5 6.47s-42.5-2.898-42.5-6.47 19.04-6.47 42.5-6.47 42.5 2.898 42.5 6.47z" fill="#f193a5" stroke-width="1.114"/></g><path d="M342.74 268.712h81.94v79.068h-81.94z" fill="url(#C)"/><g stroke="#000"><path d="M131.072 606.272c0 4.522-47.7 8.192-106.496 8.192s-106.496-3.67-106.496-8.192 47.7-8.192 106.496-8.192 106.496 3.67 106.496 8.192z" transform="matrix(.399076 0 0 .793457 375.03991 -210.24935)" fill="url(#B)" stroke-width="1.777"/><rect width="29.5" height="12.288" x="390.303" y="320.448" rx="2.277" fill="#f5f5f5" fill-opacity=".96" stroke-width=".5" stroke-opacity=".96"/></g><text xml:space="preserve" x="393.354" y="330.174" font-size="40" font-family="Bitstream Vera Sans"><tspan x="393.354" y="330.174" font-size="10">LOW</tspan></text><rect width="29.5" height="12.288" x="390.303" y="-332.736" transform="scale(1 -1)" rx="2.277" fill="url(#G)"/><rect y="320.448" x="-419.803" height="12.288" width="29.5" transform="scale(-1 1)" rx="2.277" fill="url(#F)"/><path d="M427.798 253.613v.132c0-.045-.025-.087-.03-.132h.03zm0 .132l-.03 93.312c-.472 3.51-19.363 11.14-42.526 11.14s-41.94-7.632-42.41-11.14h-.03v-93.312c0 3.487 18.173 6.32 40.875 6.45v79.81h2.03c17.395 0 32.362-3.466 38.937-5.745v-78.045c2.023-.752 3.156-1.604 3.156-2.468z" fill="url(#A)" stroke="#000" stroke-width="2"/></g></svg>