<svg xmlns="http://www.w3.org/2000/svg" width="623.07" height="628"><defs><linearGradient id="A" x1="657.39" y1="472.268" x2="418.438" y2="472.268" gradientUnits="userSpaceOnUse"><stop offset="0" stop-color="gray" stop-opacity=".32"/><stop offset="1" stop-color="#ececec" stop-opacity="0"/></linearGradient><radialGradient id="B" gradientTransform="matrix(1.0040925,-1.9273905e-8,1.0001448e-7,3.6916419,-0.2699286,-1830.509)" cx="370" cy="644.871" fx="370" fy="644.871" r="314" gradientUnits="userSpaceOnUse"><stop offset="0" stop-color="#fff"/><stop offset=".535" stop-color="#ccc"/><stop offset="1" stop-color="#b3b3b3"/></radialGradient><radialGradient id="C" gradientTransform="matrix(0.6033006,1.0319617,-0.6669622,0.3899162,269.91644,-201.44949)" cx="320" cy="214.364" fx="320" fy="214.364" r="314.934" gradientUnits="userSpaceOnUse"><stop offset="0" stop-color="#fff"/><stop offset="1" stop-color="#bdbdbd"/></radialGradient></defs><g transform="translate(-60.523 -156.112)"><g stroke="#000" stroke-linejoin="round"><path d="M820 542.362a0 10 0 1 1 0 0 0 10 0 1 1 0 0z" fill="#fff" stroke-width="8"/><path d="M372.094 157.612c-171.12 0-310 80.64-310 180-.094 6.75-.094 4.75 0 13.438v386.562c0 24.84 138.88 45 310 45s310-20.16 310-45c-.094-5.25-.094-5.25 0-13.47V351.05c-.094-5.687-.043-8.928 0-13.437 0-99.36-138.88-180-310-180z" fill="url(#C)" stroke-width="3"/></g><path d="M349.468 322.362c-90.315 1.136-181.006 1.332-270.697 13.17-4.248.782-8.5 1.83-12.488 3.426l-.336 245.977.68 154.608c8.943 10.17 23.565 11.474 35.804 15.578 56.417 13.97 114.84 17.05 172.724 20.475C381.8 780.518 489.16 778.36 595 764.122c25.882-4.048 52.13-8.657 75.934-19.864 4.445-2.274 6.99-7.233 5.46-12.1l-.22-393.136c-18.3-6.54-38.368-6.14-57.54-8.588-89.504-7.51-179.4-7.925-269.166-8.07z" fill="url(#B)"/><path d="M353.877 320.985c-93.222.9-186.976.638-279.43 13.723-4.768 1.406-13.744 1.962-12.178 9.253l.075 383.148c.698 6.707-1.55 15.38 5.453 19.15 12.638 9.453 29.03 10.97 43.83 15.266 67.7 14.802 137.377 16.98 206.438 19.677 97.723 2.34 196.11-.722 292.607-16.388 20.895-4.076 42.6-8.324 60.906-19.637 7.147-7.242 2.338-18.308 3.647-27.133L675 338.522c-25.63-9.04-53.26-8.1-79.962-11.16-80.25-5.675-160.74-6.684-241.16-6.377z" fill="url(#A)"/><g fill="#fff"><path d="M372.094 157.625c-102.553 0-193.498 28.964-249.937 73.563 41.976 25.324 101.65 41.188 167.844 41.188 105.803 0 194.993-40.457 221.78-95.47-41.986-12.337-89.444-19.28-139.687-19.28z" opacity=".32"/><path d="M365 162.375c-173.1 46.78-201.716 150.438-204.687 163.594-.104.007-.208.024-.312.03v444.094c26.51 3.7 53.233 5.95 80 7.563V325.813c0-1.15-.113-2.25-.312-3.312l-3.22.094 3.53-.22c0-110 125-160 125-160z" opacity=".32"/><path d="M365 162.375c-82.472 43.66-84.927 152.896-85 159.375v457.938l38.063 1.5 1.938.03V322.375c6.06-137.38 45-160 45-160z" opacity=".32"/></g><rect ry="13.461" rx="10" y="324.112" x="585.999" height="422.679" width="34.525" fill="none" stroke="#000" stroke-width="6"/><rect ry="11.863" rx="7.717" y="326.88" x="587.847" height="417.143" width="30.828" fill="#0000f5" fill-opacity=".96"/></g></svg>