<svg xmlns="http://www.w3.org/2000/svg" xmlns:xlink="http://www.w3.org/1999/xlink" width="355.621" height="421.505"><defs><radialGradient id="A" gradientTransform="matrix(0.4320601,1.0081416,-0.77956,0.3340973,389.696,79.556115)" cx="267.143" cy="275.219" fx="267.143" fy="275.219" r="251.429" gradientUnits="userSpaceOnUse"><stop offset="0" stop-color="#fff"/><stop offset=".255" stop-color="#e5e5e5"/><stop offset=".549" stop-color="#ccc"/><stop offset="1" stop-color="gray"/></radialGradient><path id="B" d="M283.43 706.314c0 3.864-6.272 7-14 7s-14-3.136-14-7 6.272-7 14-7 14 3.136 14 7z"/></defs><g transform="translate(-176.201 -348.31)"><rect width="94.152" height="307.343" x="344.704" y="370.97" rx="7.717" ry="11.863" fill="gray"/><rect ry="11.863" rx="7.717" y="370.97" x="344.704" height="307.343" width="94.152" fill="#0000f5" fill-opacity=".96"/><g stroke="#000"><use xlink:href="#B" fill="#333"/><rect y="552.311" x="262.43" height="154.003" width="14" rx="6.103" fill="#4d4d4d"/><path d="M452.483 706.314c0 3.864-5.488 7-12.25 7s-12.25-3.136-12.25-7 5.488-7 12.25-7 12.25 3.136 12.25 7z" fill="#333"/><g fill="#4d4d4d"><rect y="552.311" x="433.233" height="154.003" width="14" rx="6.103"/><use xlink:href="#B" x="-56" y="28"/><use xlink:href="#B" x="84.002" y="56.001"/><use xlink:href="#B" x="224.004" y="28"/></g><path d="M354.577 348.822c-97.154 0-176 78.856-176 176s78.856 175.988 176 175.988 175.988-78.834 175.988-175.988-78.834-176-175.988-176zm18.77 23.363c30.67 24.926 54.337 76.39 59.414 137.465 6.843 82.324-22.47 153.53-66.807 167.784 22.467-43.85 33.642-117.42 26.84-199.24-3.205-38.557-10.045-74.597-19.447-106.008z" fill="url(#A)"/><g fill="#666"><rect rx="6.103" y="594.311" x="206.429" height="140.003" width="14"/><rect y="608.312" x="346.431" height="154.003" width="14" rx="6.103"/><rect y="594.311" x="486.434" height="140.003" width="14" rx="6.103"/><path d="M524.92 567.59c-1.103 5.88-3.244 12.976-9.794 14.828-18.608 9.39-39.845 11.135-60.192 14.423-61.167 7.733-123.26 7.227-184.653 2.072-25.406-2.61-51.23-6.015-75.164-15.114-4.208-2.17-9.97-4.994-9.345-10.478-.715-1.827-.07-6.8-3.152-5.38-7.026 2.623-7.793 13.168-2.314 17.807 8.997 9.012 22.076 11.93 33.895 15.523 36.716 9.43 74.832 12.09 112.657 13.615 50.02 1.377 100.395-.567 149.655-9.593 15.755-3.352 31.96-6.98 45.94-15.17 6.298-3.382 11.525-11.346 7.406-18.178-1.08-1.84-3.01-3.91-4.937-4.353z"/></g></g><path d="M354.438 348.3c-97.154 0-176 78.856-176 176 0 3.458.11 6.872.306 10.28 32.885 11.26 71.03 17.72 111.696 17.72 109.8 0 201.213-46.993 220.33-108.918-29.312-56.477-88.335-95.092-156.322-95.092z" opacity=".146" fill="#fff"/></g></svg>