<svg xmlns="http://www.w3.org/2000/svg" width="443" height="483"><defs><linearGradient id="A" x1="765.283" y1="618.565" x2="205.283" y2="610.565" gradientUnits="userSpaceOnUse"><stop offset="0"/><stop offset="1" stop-color="#4d4d4d" stop-opacity="0"/></linearGradient><linearGradient id="B" x1="578.483" y1="388.565" x2="554.483" y2="388.565" gradientUnits="userSpaceOnUse"><stop offset="0" stop-color="#f2f2f2"/><stop offset="1" stop-color="#e6e6e6" stop-opacity="0"/></linearGradient><linearGradient id="C" x1="542.883" y1="388.565" x2="490.883" y2="388.565" gradientUnits="userSpaceOnUse"><stop offset="0" stop-color="#e6e6e6"/><stop offset="1" stop-color="#e6e6e6" stop-opacity="0"/></linearGradient><radialGradient id="D" gradientTransform="matrix(0.9821429,-4.6556581e-8,1.9251335e-7,4.0178573,250.06847,-1248.2474)" cx="380" cy="412.362" fx="380" fy="412.362" r="224" gradientUnits="userSpaceOnUse"><stop offset="0" stop-color="#e6e6e6"/><stop offset=".528" stop-color="#ccc"/><stop offset="1" stop-color="#666"/></radialGradient></defs><g transform="translate(-401.783 -167.065)"><rect ry="52.857" rx="39.937" y="168.565" x="403.283" height="480" width="440" fill="url(#D)" stroke="#000" stroke-width="3"/><path d="M769.095 172.515c-110.204.405-220.443-.514-330.625.5-15.176 3.058-25.59 17.338-28.937 31.656l427.656-.094c-4.04-15.932-16.966-32.565-34.904-31.732-11.06-.347-22.126-.4-33.2-.33z" opacity=".24" fill="#fff"/><path d="M505.283 644.578h44v-472h-44v472z" opacity=".82" fill="url(#C)"/><path d="M563.283 644.578c4.875-1.458 15.907 3.24 16-3v-469c-4.875 1.458-15.907-3.24-16 3v469z" opacity=".92" fill="url(#B)"/><path d="M769.876 645.026c-110.06-.323-220.14.344-330.187-.375-17.267-3.03-28.73-19.343-31.875-35.812 30.622.565 61.29-.144 91.938.125h340.78c-3.735 16.44-15.187 33.742-33.25 35.6-12.462.494-24.937.513-37.407.46z" opacity=".24" fill="url(#A)"/><rect width="50" height="400" x="445.283" y="208.565" rx="10" ry="13.461" fill="none" stroke="#000" stroke-width="6"/><rect ry="11.863" rx="7.717" y="211.185" x="447.959" height="394.761" width="44.647" fill="#0000f5" fill-opacity=".96"/></g></svg>