<svg xmlns="http://www.w3.org/2000/svg" width="443" height="631.25"><defs><radialGradient id="A" gradientTransform="matrix(0.3790637,0.3095879,-0.2214777,0.2711795,285.48423,84.036469)" cx="356.815" cy="255.835" fx="356.815" fy="255.835" r="218.734" gradientUnits="userSpaceOnUse"><stop offset="0" stop-color="#f9f9f9"/><stop offset="1" stop-color="#ccc" stop-opacity=".305"/></radialGradient><linearGradient id="B" x1="506" y1="829.349" x2="-54" y2="821.349" gradientUnits="userSpaceOnUse"><stop offset="0"/><stop offset="1" stop-color="#4d4d4d" stop-opacity="0"/></linearGradient><radialGradient id="C" gradientTransform="matrix(0.9821429,-5.1114005e-8,1.9251335e-7,4.4111654,-9.2143512,-1223.1419)" cx="380" cy="412.362" fx="380" fy="412.362" r="224" gradientUnits="userSpaceOnUse"><stop offset="0" stop-color="#e6e6e6"/><stop offset=".528" stop-color="#ccc"/><stop offset="1" stop-color="#666"/></radialGradient></defs><g transform="translate(-142.5 -229.594)"><path d="M344.375 232.47c-110.8 0-200 63.74-200 142.906 0 .734.047 1.456.063 2.188-.273 2.503-.437 5.05-.437 7.656V806.5c0 29.283 17.812 52.844 39.938 52.844h360.125c22.125 0 39.938-23.56 39.938-52.844V385.22c0-6.185-.788-12.118-2.25-17.625-5.62-75.52-92.573-135.125-199.72-135.125h-37.656z" fill="url(#C)" stroke="#000" stroke-width="3"/><g fill="#e6e6e6"><path d="M246 855.362h44V369.076h-44v486.286z" opacity=".82"/><path d="M304 855.352c4.875-1.502 15.907 3.338 16-3.09V369.087c-4.875 1.502-15.907-3.338-16 3.09v483.174z" opacity=".92"/></g><path d="M510.593 855.8c-110.06-.323-220.14.344-330.187-.375-17.267-3.03-28.73-19.343-31.875-35.812 30.622.565 61.29-.144 91.938.125h340.78c-3.734 16.44-15.187 33.742-33.25 35.6-12.462.494-24.937.513-37.407.46z" opacity=".24" fill="url(#B)"/><path d="M345.25 229.594c-108.717 0-196.64 61.378-199.906 138.47h437.47c-3.267-77.09-91.19-138.47-199.906-138.47H345.25z" opacity="0" fill="url(#A)"/><path d="M244.962 370.49c13.637-93.944 104.046-133.34 104.046-133.34s-53.313 49.872-59.6 132.835c-.037.483-45.457-1.515-44.447.505z" opacity=".553" fill="#e6e6e6"/><g fill="#fff"><path d="M305.066 368.994c17.173-101.015 49.497-133.34 49.497-133.34s-32.566 69.46-33.84 134.35c-.014.714-15.657-1.515-15.657-1z" opacity=".354"/><path d="M344.375 232.47c-107.704 0-194.987 60.234-199.78 136.313 71.732 6.008 149.065 9.28 229.688 9.28 72.624 0 142.558-2.675 208.156-7.594-.2-.965-.438-1.934-.687-2.875-5.62-75.52-92.573-135.125-199.72-135.125h-37.656z" opacity=".053"/><path d="M344.375 232.47c-77.377 0-144.214 31.097-177.5 76.813 58.828 16.303 131.57 25.938 210.28 25.938 68.436 0 132.342-7.287 186.53-19.906-31.648-48.993-100.92-82.844-181.656-82.844h-37.656z" opacity=".155"/></g><rect ry="13.461" rx="10" y="357.748" x="183.131" height="459.664" width="50" fill="none" stroke="#000" stroke-width="6"/><rect ry="11.863" rx="7.717" y="360.759" x="185.808" height="453.644" width="44.647" fill="#0000f5" fill-opacity=".96"/></g></svg>