<svg xmlns="http://www.w3.org/2000/svg" width="443" height="773"><defs><radialGradient id="A" gradientTransform="matrix(0.855463,0.5564229,-0.5867553,0.9021032,461.89214,-36.486825)" cx="251.657" cy="630.738" fx="251.657" fy="630.738" r="218.75" gradientUnits="userSpaceOnUse"><stop offset="0" stop-color="#ececec"/><stop offset="1"/></radialGradient><radialGradient id="B" gradientTransform="matrix(0.9821429,-5.2376154e-8,1.9251335e-7,4.5200895,6.7856488,-1421.5517)" cx="380" cy="412.362" fx="380" fy="412.362" r="224" gradientUnits="userSpaceOnUse"><stop offset="0" stop-color="#e6e6e6"/><stop offset=".528" stop-color="#ccc"/><stop offset="1" stop-color="#666"/></radialGradient></defs><g transform="translate(-158.5 -170.875)"><path d="M199.938 172.375c-22.125 0-39.937 23.56-39.937 52.844V659.5c0 12.918 3.476 24.713 9.25 33.875h-.156l.97 1.25a48.69 48.69 0 0 0 3.219 4.281L350 932.375s5 10 30 10 30-10 30-10L585.125 700.72C594.212 691.046 600 676.205 600 659.5V225.22c0-29.283-17.812-52.844-39.937-52.844H199.938z" fill="url(#B)" stroke="#000" stroke-width="3"/><path d="M525.813 176.313c-110.204.405-220.443-.514-330.625.5-15.176 3.058-25.59 17.338-28.937 31.656l427.656-.094c-4.04-15.932-16.966-32.565-34.904-31.732-11.06-.347-22.126-.4-33.2-.33z" opacity=".24" fill="#fff"/><g fill="#ececec"><path d="M262 176.375v496h.28S281.107 767.62 369 937.324l-63.427-264.95H306v-496h-44z" opacity=".82"/><path d="M324.97 176.03c-2.797-.027-4.928.63-4.97 3.5v492.844c.914-.287 2.047-.362 3.28-.312l-1.844.313 47.844 265.688-34.75-265.97c.91-.52 1.448-1.422 1.47-2.875V176.375c-2.742.862-7.436-.31-11.03-.344z" opacity=".92"/></g><path d="M165.188 672.53c-1.32 0-2.62.086-3.906.25 1.497 7.685 4.25 14.7 7.97 20.594h-.156l.97 1.25a48.69 48.69 0 0 0 3.219 4.281L350 932.375s5 10 30 10 30-10 30-10L585.125 700.72c6.636-7.064 11.51-16.898 13.656-28.187H165.188z" opacity=".323" fill="url(#A)"/><rect ry="13.461" rx="10" y="208.875" x="196.334" height="468.862" width="50" fill="none" stroke="#000" stroke-width="6"/><rect ry="11.863" rx="7.717" y="211.946" x="199.01" height="462.721" width="44.647" fill="#0000f5" fill-opacity=".96"/></g></svg>