<svg xmlns="http://www.w3.org/2000/svg" xmlns:xlink="http://www.w3.org/1999/xlink" width="505" height="940"><defs><linearGradient id="A" xlink:href="#L"><stop offset="0" stop-color="gray"/><stop offset=".25" stop-color="#bfbfbf"/><stop offset=".375" stop-color="#dfdfdf"/><stop offset=".5" stop-color="#fff"/><stop offset="1" stop-color="#999"/></linearGradient><linearGradient id="B" x1="230" y1="677.362" x2="270" y2="677.362" xlink:href="#L"><stop offset="0" stop-color="#ececec" stop-opacity="0"/><stop offset="1" stop-color="#ececec"/></linearGradient><linearGradient id="C" x1="290" y1="112.362" x2="340" y2="182.362" xlink:href="#L"><stop offset="0" stop-color="gray" stop-opacity="0"/><stop offset=".26" stop-color="#b9b9b9"/><stop offset="1" stop-color="#fff" stop-opacity="0"/></linearGradient><linearGradient id="D" x1="160" y1="612.362" x2="560" y2="612.362" xlink:href="#L"><stop offset="0" stop-color="gray"/><stop offset=".107" stop-color="#8c8c8c"/><stop offset=".179" stop-color="#999"/><stop offset=".473" stop-color="#f9f9f9"/><stop offset=".533" stop-color="#fff"/><stop offset=".66" stop-color="#e6e6e6"/><stop offset=".701" stop-color="#ccc"/><stop offset="1" stop-color="#999"/></linearGradient><linearGradient id="E" x1="420" y1="122.362" x2="380" y2="162.362" xlink:href="#L"><stop offset="0" stop-color="gray" stop-opacity="0"/><stop offset=".5" stop-color="#fff" stop-opacity=".465"/><stop offset="1" stop-color="#fff" stop-opacity="0"/></linearGradient><linearGradient xlink:href="#A" id="F" x1="630" y1="892.362" x2="630" y2="772.362"/><linearGradient xlink:href="#A" id="G" x1="455" y1="62.362" x2="515" y2="62.362"/><linearGradient id="H" x1="140" y1="972.362" x2="580" y2="972.362" xlink:href="#L"><stop offset="0" stop-color="gray"/><stop offset=".093" stop-color="#999"/><stop offset=".351" stop-color="#f9f9f9"/><stop offset=".43" stop-color="#efefef"/><stop offset=".509" stop-color="#e6e6e6"/><stop offset=".66" stop-color="#fff"/><stop offset=".769" stop-color="#ccc"/><stop offset="1" stop-color="#999"/></linearGradient><linearGradient xlink:href="#A" id="I" x1="190" y1="162.362" x2="530" y2="162.362"/><linearGradient xlink:href="#A" id="J" x1="460" y1="97.362" x2="510" y2="97.362"/><linearGradient xlink:href="#A" id="K" x1="589.353" y1="875.925" x2="589.353" y2="788.799"/><linearGradient id="L" gradientUnits="userSpaceOnUse"/></defs><g transform="translate(-140 -52.362)"><rect width="68.422" height="87.127" x="555.142" y="788.799" rx="4.041" fill="url(#K)"/><path d="M460 52.362h50v100h-50z" fill="url(#J)"/><path d="M160 172.362l200-80 200 80H160z" fill="url(#I)"/><rect ry="6.429" y="972.362" x="140" height="20" width="440" fill="url(#H)"/><rect ry="3.03" y="52.362" x="455" height="15" width="60" fill="url(#G)"/><rect ry="4.041" y="772.362" x="620" height="120" width="20" fill="url(#F)"/><path d="M640 782.362h5v10h-5zm0 45h5v10h-5zm0 45h5v10h-5zm0-23h5v10h-5zm0-44h5v10h-5z" fill="#666"/><path d="M560 172.362l-200-80-200 80h400z" fill="url(#E)"/><path d="M160 172.362h400v800H160z" fill="url(#D)"/><path d="M160 172.362l200-80 200 80H160z" fill="url(#C)"/><path d="M230.315 172.52h94.954v798.526h-94.954z" opacity=".465" fill="url(#B)"/><path d="M360 92.375l-200 80v208.688c59.887 43.857 153.532 72.094 258.75 72.094 50.58 0 98.477-6.506 141.25-18.156V172.375l-200-80z" opacity=".235" fill="#fff"/><rect width="47.564" height="768.066" x="194.403" y="188.972" rx="23.782" ry="25.848" fill="none" stroke="#000" stroke-width="8.109"/><rect ry="21.85" rx="19.756" y="193.026" x="198.457" height="760.014" width="39.401" fill="#0000f5" fill-opacity=".96"/></g></svg>