<svg xmlns="http://www.w3.org/2000/svg" xmlns:xlink="http://www.w3.org/1999/xlink" width="239.178" height="239.494"><defs><linearGradient id="A" gradientUnits="userSpaceOnUse"><stop offset="0" stop-color="#003380"/><stop offset=".077" stop-color="#04a"/><stop offset=".434" stop-color="#06f"/><stop offset=".916" stop-color="#003380"/><stop offset="1" stop-color="#025"/></linearGradient><linearGradient xlink:href="#A" id="B" x1="-120.364" y1="-577.591" x2="-103.455" y2="-577.591"/><linearGradient xlink:href="#A" id="C" x1="-408.897" y1="303.732" x2="-391.988" y2="303.732"/><linearGradient xlink:href="#A" id="D" x1="501.981" y1="111.592" x2="518.891" y2="111.592"/><radialGradient id="E" gradientTransform="matrix(0.113428,-0.3686665,0.3682194,0.1132896,131.74352,655.59622)" cx="1142.857" cy="515.219" fx="1142.857" fy="515.219" r="310.765" gradientUnits="userSpaceOnUse"><stop offset="0" stop-color="#04a"/><stop offset=".84" stop-color="#025"/><stop offset=".899" stop-color="#04a"/><stop offset=".967" stop-color="#06f"/><stop offset="1" stop-color="#0055d4"/></radialGradient><linearGradient id="F" x1="441.856" y1="313.403" x2="453.481" y2="267.013" gradientUnits="userSpaceOnUse"><stop offset="0" stop-color="#025"/><stop offset=".077" stop-color="#003380"/><stop offset=".434" stop-color="#06f"/><stop offset=".798" stop-color="#2a7fff"/><stop offset="1" stop-color="#0055d4"/></linearGradient><path id="G" d="M481.795 176.846l-1.513-.393c-47.5-13.04-101.532 7.167-129.14 47.717-25.974 37.82-28.04 90.914-3.88 129.945 21.707 35.696 63.016 59.178 105.092 57.838 39.64-1.016 78.454-22.276 99.098-56.402 21.873-35.078 24.435-82.116 4.623-118.553-15.276-28.92-42.456-51.7-74.28-60.153zm-4.613 21.074c22.317 6.2 41.578 21.156 54.525 40.168 17.146 24.856 20.54 58.017 10.85 86.545-10.536 31.917-39.186 56.135-71.62 63.503-36.906 8.71-77.66-7.353-100.2-37.494-23.924-31.744-24.917-78.352-3.576-111.787 22.3-34.843 67.9-52.48 107.856-41.506l2.175.57z"/><path id="H" d="M456.442 267.816c-15.27-4.267-32.422 9.17-31.74 25.058.216 14.845 15.822 27.567 30.423 24.04 12.78-2.498 22.7-16.408 19.396-29.364-1.957-9.116-8.762-17.52-18.08-19.734z"/></defs><g transform="translate(-330.335 -172.514)"><rect transform="matrix(-.706131 .708081 -.708081 -.706131 0 0)" width="16.91" height="98.348" x="-120.364" y="-624.433" rx="1.964" fill="url(#B)"/><rect rx="1.964" y="256.89" x="-408.897" height="98.348" width="16.91" transform="matrix(-.26592 -.963995 .963995 -.26592 0 0)" fill="url(#C)"/><rect transform="matrix(.96593 .258802 -.258802 .96593 0 0)" rx="1.964" y="64.751" x="501.981" height="98.348" width="16.91" fill="url(#D)"/><use xlink:href="#G" fill="url(#E)"/><use xlink:href="#H" fill="url(#F)"/><rect rx="1.964" y="-624.433" x="-120.364" height="98.348" width="16.91" transform="matrix(-.706131 .708081 -.708081 -.706131 0 0)" fill="url(#B)"/><rect transform="matrix(-.26592 -.963995 .963995 -.26592 0 0)" width="16.91" height="98.348" x="-408.897" y="256.89" rx="1.964" fill="url(#C)"/><rect width="16.91" height="98.348" x="501.981" y="64.751" rx="1.964" transform="matrix(.96593 .258802 -.258802 .96593 0 0)" fill="url(#D)"/><use xlink:href="#G" fill="url(#E)"/><use xlink:href="#H" fill="url(#F)"/><path d="M454.388 276.855c-11.005-3.27-23.3 8.59-19.804 19.643 2.726 9.68 15.844 15.263 24.226 9.205 7.765-4.9 9.624-17.203 3.062-23.88-1.918-2.37-4.492-4.285-7.483-4.968z" fill="#06f"/></g></svg>