<svg xmlns="http://www.w3.org/2000/svg" xmlns:xlink="http://www.w3.org/1999/xlink" width="465" height="205"><defs><linearGradient id="A" x1="224.714" y1="160.373" x2="248.418" y2="160.303" xlink:href="#H"><stop offset="0" stop-color="#fff"/><stop offset="1" stop-color="#fff" stop-opacity="0"/></linearGradient><linearGradient id="B" x1="217.13" y1="220.665" x2="236.321" y2="220.167" xlink:href="#H"><stop offset="0" stop-color="#fff"/><stop offset="1" stop-color="#fff" stop-opacity="0"/></linearGradient><radialGradient id="C" gradientTransform="matrix(1.4799794e-2,4.3896226,-1.2102399,4.0803667e-3,408.15562,-848.20556)" cx="242.376" cy="173.882" fx="242.376" fy="173.882" r="52.5" xlink:href="#H"><stop offset="0" stop-color="#a1a1a1" stop-opacity=".647"/><stop offset="1" stop-color="#333" stop-opacity=".996"/></radialGradient><radialGradient id="D" gradientTransform="matrix(-1.1666668,-3.1466183e-7,2.6447829e-5,-2.8125,492.96669,661.58974)" cx="250" cy="165" fx="250" fy="165" r="60" xlink:href="#H"><stop offset="0" stop-color="#bababa" stop-opacity=".55"/><stop offset="1" stop-color="#4d4d4d"/></radialGradient><radialGradient id="E" gradientTransform="matrix(0.8019238,0,-3.2646205e-7,3.5910943,0.823417,-60.549659)" cx="250" cy="55" fx="250" fy="55" r="50" xlink:href="#H"><stop offset="0" stop-color="#c5c5c5" stop-opacity=".722"/><stop offset="1" stop-color="#333"/></radialGradient><radialGradient id="F" gradientTransform="matrix(1.3333332,0,-7.1888376e-7,1.5833333,-132.02888,-19.764502)" cx="250" cy="95" fx="250" fy="95" r="60" xlink:href="#H"><stop offset="0" stop-color="#ccc"/><stop offset="1" stop-color="#1a1a1a"/></radialGradient><radialGradient id="G" gradientTransform="matrix(1.347826,0,0,0.1086957,-135.65211,94.130441)" cx="250" cy="60" fx="250" fy="60" r="230" xlink:href="#H"><stop offset="0" stop-color="#f2f2f2"/><stop offset=".725" stop-color="#999"/><stop offset="1" stop-color="#4d4d4d"/></radialGradient><linearGradient id="H" gradientUnits="userSpaceOnUse"/></defs><g transform="translate(31.196 -73.152)"><rect ry="25" rx="30.714" y="75.652" x="-28.696" height="50" width="460" fill="url(#G)" stroke="#000" stroke-width="5" stroke-linejoin="round"/><rect ry="3.333" rx="118.571" y="132.319" x="201.304" height="3.333" width="30" opacity=".72" fill="#f2f2f2"/><path d="M141.304 125.652h120v10h-120z" fill="url(#F)" stroke="#000" stroke-width="5" stroke-linejoin="round"/><path d="M8.87 77.05l-9 .313C-11.525 78.8-20.72 85.008-24.002 93.17c4.04 3.827 17.172 6.625 32.872 6.625H393.19c15.7 0 28.833-2.798 32.872-6.625-3.28-8.163-12.477-14.372-23.862-15.808-2.876-.208-5.88-.313-9-.313H8.87z" opacity=".76" fill="#fff"/><g stroke="#000"><path d="M151.184 136.96h100.24v13.812h-100.24z" fill="url(#E)" stroke-width="5.884"/><path d="M141.304 150.652h120v20h-120z" fill="url(#D)" stroke-width="4.841" stroke-linejoin="round"/><path d="M151.304 170.652h100v105h-100z" fill="url(#C)" stroke-width="5"/></g><rect ry="0" rx="12.231" y="173.88" x="212.947" height="97.559" width="23.375" opacity=".553" fill="url(#B)"/><rect ry="0" rx="14.765" y="153.815" x="219.548" height="13.674" width="28.87" opacity=".553" fill="url(#A)"/></g></svg>