<svg xmlns="http://www.w3.org/2000/svg" xmlns:xlink="http://www.w3.org/1999/xlink" width="480" height="230"><defs><linearGradient id="A" x1="260" y1="70" x2="260" y2="140" xlink:href="#F"><stop offset="0" stop-color="#510e0e"/><stop offset=".5" stop-color="#a80707"/><stop offset="1" stop-color="maroon"/></linearGradient><radialGradient id="B" cx="252.5" cy="153.125" fx="252.5" fy="153.125" r="62.5" gradientTransform="matrix(0.8,6.3297722e-8,2.7750211e-5,1.76,47.995749,-129.49994)" xlink:href="#F"><stop offset="0" stop-color="#ccc"/><stop offset="1" stop-color="#4d4d4d"/></radialGradient><radialGradient id="C" cx="250" cy="227.813" fx="250" fy="227.813" r="42.5" gradientTransform="matrix(0.9411767,-2.7958622e-8,-2.0139026e-5,4.7058824,14.71041,-842.05883)" xlink:href="#F"><stop offset="0" stop-color="#ccc"/><stop offset="1" stop-color="#4d4d4d"/></radialGradient><radialGradient id="D" cx="250" cy="134" fx="250" fy="134" r="52.5" gradientTransform="matrix(-5.7719761e-5,1.3333333,-0.952381,-5.8536606e-8,377.6335,-183.33332)" xlink:href="#F"><stop offset="0" stop-color="#ccc"/><stop offset="1" stop-color="#4d4d4d"/></radialGradient><radialGradient r="242.5" fy="150.831" fx="250.042" cy="150.831" cx="250.042" gradientTransform="matrix(2.5979381,-2.4863058e-6,0,8.2474236e-2,-399.5935,67.126169)" id="E" xlink:href="#F"><stop offset="0" stop-color="#510e0e"/><stop offset=".5" stop-color="#a80707"/><stop offset="1" stop-color="red"/></radialGradient><linearGradient id="F" gradientUnits="userSpaceOnUse"/></defs><g transform="translate(-10 -50)"><path d="M315 75v11.102c0 12.8-18.658 39.397-41.824 39.397l-22.015-.7c-23.166 0-21.832-16.848-21.832-38.687V75H315z" fill="#780a0a"/><path d="M185 80v10.003c0 11.532 18.512 35.496 41.497 35.496l21.842-.64c22.984 0 21.66-15.18 21.66-34.856V80h-85z" fill="#660c0c"/><path d="M37.313 50C22.18 50 10 58.92 10 70s12.18 20 27.313 20H120c0 22.16 29.374 40 65.875 40h128.25c36.5 0 65.875-17.84 65.875-40h82.688C477.82 90 490 81.08 490 70s-12.18-20-27.312-20H37.313zm106.563 40H225v5.594c0 10.983 1.278 19.438-20.656 19.438l-20.844.375c-21.934 0-39.625-13.375-39.625-19.812V90zM275 90h81.125v5.594c0 6.437-17.69 19.813-39.625 19.813l-20.844-.375c-21.934 0-20.656-8.455-20.656-19.437V90z" fill="url(#A)"/><rect ry="5" rx="0" y="130" x="190" height="15" width="120" fill="url(#B)"/><rect rx="0" ry="5" y="145" x="200" height="20" width="100" fill="url(#D)"/><rect rx="0" ry="5" y="165" x="210" height="115" width="80" fill="url(#C)"/><rect rx="26.264" ry="17.5" y="49.565" x="10" height="40" width="480" fill="url(#E)"/><path d="M38.472 51.565c-10.403 0-19.313 3.266-23.472 8 4.16 4.734 13.07 8 23.472 8h423.056c10.403 0 19.313-3.266 23.472-8-4.16-4.734-13.07-8-23.472-8H38.472z" opacity=".298" fill="#ececec"/></g></svg>