<svg xmlns="http://www.w3.org/2000/svg" xmlns:xlink="http://www.w3.org/1999/xlink" width="248.426" height="199.04"><defs><linearGradient xlink:href="#B" id="A" x1="257.167" y1="78.116" x2="257.167" y2="125.117"/><linearGradient id="B" xlink:href="#J"><stop offset="0" stop-color="#510e0e"/><stop offset="1" stop-color="red"/></linearGradient><radialGradient id="C" cx="252.5" cy="153.125" fx="252.5" fy="153.125" r="62.5" gradientTransform="matrix(0.5502936,4.2501053e-8,1.9088453e-5,1.1817464,111.33659,-55.837838)" xlink:href="#J"><stop offset="0" stop-color="#ccc"/><stop offset="1" stop-color="#4d4d4d"/></radialGradient><radialGradient id="D" cx="250" cy="134" fx="250" fy="134" r="52.5" gradientTransform="matrix(-5.554744e-5,0.8952623,-0.9171559,-4.0453021e-8,373.20143,-91.984089)" xlink:href="#J"><stop offset="0" stop-color="#ccc"/><stop offset="1" stop-color="#4d4d4d"/></radialGradient><radialGradient id="E" cx="250" cy="227.813" fx="250" fy="227.813" r="42.5" gradientTransform="matrix(1.1329573,4.5492513e-8,-2.4544127e-5,3.1597497,-32.945102,-534.28325)" xlink:href="#J"><stop offset="0" stop-color="#ccc"/><stop offset="1" stop-color="#4d4d4d"/></radialGradient><radialGradient xlink:href="#B" id="F" cx="250.042" cy="150.831" fx="250.042" fy="150.831" r="242.5" gradientTransform="matrix(1.7870357,-1.6694221e-6,0,5.5377062e-2,-196.54525,76.478071)"/><radialGradient id="G" cx="240" cy="295.739" fx="240" fy="295.739" r="163" gradientTransform="matrix(3.0674846,2.3258586e-6,-7.000381e-8,0.368098,-496.19629,191.13861)" xlink:href="#J"><stop offset="0" stop-color="#fff"/><stop offset="1" stop-color="#a5a5a5" stop-opacity=".098"/></radialGradient><radialGradient id="H" cx="435" cy="305" fx="435" fy="305" r="28" gradientTransform="matrix(5.7142848,-4.0151477e-6,1.6785714e-6,2.32143,-2050.7143,-403.03437)" xlink:href="#J"><stop offset="0" stop-color="#fff"/><stop offset="1" stop-color="#999" stop-opacity=".098"/></radialGradient><radialGradient id="I" cx="65" cy="305" fx="65" fy="305" r="28" gradientTransform="matrix(11.964286,-4.150571e-6,8.6285829e-7,2.5000001,-712.67883,-457.49977)" xlink:href="#J"><stop offset="0" stop-color="#fff"/><stop offset="1" stop-color="#999" stop-opacity=".098"/></radialGradient><linearGradient id="J" gradientUnits="userSpaceOnUse"/></defs><g transform="matrix(.58316 0 0 .58316 -21.57674 -35.97325)"><path d="M40 211.296v190h50v-10h320v10h50v-190h-50v10H90v-10H40z" fill="red"/><g stroke="#000" stroke-width="6"><path d="M295 81.473v7.455c0 8.594-12.834 26.453-28.77 26.453l-15.143-.477c-15.935 0-15.018-11.313-15.018-25.976v-7.455H295z" fill="#780a0a"/><path d="M205.577 84.83v6.716c0 7.743 12.734 23.834 28.544 23.834l15.024-.43c15.8 0 14.9-10.193 14.9-23.404V84.83h-58.47z" fill="#660c0c"/><path d="M103.988 64.687c-10.41 0-18.787 5.99-18.787 13.43s8.378 13.43 18.787 13.43h56.878c0 14.88 20.205 26.858 45.313 26.858h88.22c25.108 0 45.313-11.98 45.313-26.858h56.878c10.41 0 18.787-5.99 18.787-13.43S407 64.687 396.59 64.687h-292.6zm73.3 26.858h55.803V95.3c0 7.374.88 13.05-14.21 13.05l-14.338.252c-15.088 0-27.257-8.98-27.257-13.303v-3.756zm90.197 0h55.803V95.3c0 4.322-12.17 13.303-27.257 13.303l-14.338-.252c-15.088 0-14.21-5.677-14.21-13.05v-3.756z" fill="url(#A)"/><rect ry="5.757" rx="0" y="118.403" x="209.017" height="10.072" width="82.544" fill="url(#C)"/><rect rx="0" ry="5.757" y="128.474" x="215.895" height="13.429" width="68.787" fill="url(#D)"/><rect rx="0" ry="5.757" y="141.903" x="222.774" height="77.216" width="55.029" fill="url(#E)"/><rect rx="30.98" ry="20.149" y="64.687" x="85.201" height="26.858" width="330.176" fill="url(#F)"/></g><path d="M104.786 66.03c-7.156 0-13.284 2.193-16.146 5.372 2.86 3.18 9 5.372 16.146 5.372h291.006c7.156 0 13.284-2.193 16.146-5.372-2.86-3.18-9-5.372-16.146-5.372H104.786z" opacity=".298" fill="#ececec"/><g stroke="#000" stroke-width="6"><path d="M90 220h320v170H90z" fill="url(#G)"/><path d="M410 210h50v190h-50z" fill="url(#H)"/><path d="M40 210h50v190H40z" fill="url(#I)"/></g><path d="M93.214 234.643h313.393V240H93.214z" opacity=".717" fill="#ccc"/><path d="M93.036 244.643h313.57v41.786H93.036zm320.09-23.213h43.84v4.286h-43.84zm-370.268 1.427h43.75v5.357h-43.75zm370.536 12.323h43.57v20.357h-43.57zM42.857 232.5h44.107v18.93H42.857z" opacity=".588" fill="#fff"/></g></svg>