<svg xmlns="http://www.w3.org/2000/svg" xmlns:xlink="http://www.w3.org/1999/xlink" width="46.084" height="32.598"><defs><filter id="A" x="-.099" width="1.198" y="-.152" height="1.305"><feGaussianBlur stdDeviation="4.29"/></filter><linearGradient xlink:href="#C" id="B" x1="-676.54" y1="719.835" x2="-681.148" y2="706.011"/><linearGradient id="C" xlink:href="#M"><stop offset="0" stop-color="#00000f"/><stop offset="1" stop-color="#00000f" stop-opacity="0"/></linearGradient><linearGradient id="D" x1="-686.124" y1="689.115" x2="-706.091" y2="691.675" xlink:href="#M"><stop offset="0" stop-color="#fff" stop-opacity=".94"/><stop offset="1" stop-color="#f5f5f5" stop-opacity="0"/></linearGradient><linearGradient xlink:href="#F" id="E" x1="-711.222" y1="-692.699" x2="-715.318" y2="-700.891"/><linearGradient id="F" xlink:href="#M"><stop offset="0" stop-color="#fff"/><stop offset="1" stop-color="#fff" stop-opacity="0"/></linearGradient><linearGradient id="G" x1="-686.123" y1="687.282" x2="-696.363" y2="697.604" xlink:href="#M"><stop offset="0"/><stop offset="1" stop-opacity="0"/></linearGradient><linearGradient id="H" x1="694.46" y1="719.323" x2="694.46" y2="700.891" xlink:href="#M"><stop offset="0"/><stop offset="1" stop-opacity="0"/></linearGradient><linearGradient xlink:href="#C" id="I" x1="715.402" y1="719.835" x2="710.794" y2="706.011"/><linearGradient xlink:href="#F" id="J" x1="-677.002" y1="-692.699" x2="-681.098" y2="-700.891"/><radialGradient r="4.608" fy="146.24" fx="123.392" cy="146.24" cx="123.392" id="K" xlink:href="#M"><stop offset="0" stop-color="#fff"/><stop offset="1" stop-color="#fff" stop-opacity="0"/></radialGradient><path id="L" d="M686.085 689.06v3.028h2.265v1.502h1.017v2.277h-8.4v-3.028h-4.24v21.205h4.24v-3.028h29.988v3.028h4.24V692.84h-4.24v3.028h-7.974V693.6h1.017v-1.502h2.265v-3.028h-20.188z"/><linearGradient id="M" gradientUnits="userSpaceOnUse"/></defs><g transform="translate(-674.249 -688.593)"><path transform="matrix(.369791 0 0 .369791 524.48291 543.627)" d="M440.58 402.317v8.188h6.125v4.063h2.75v6.156h-22.687v-8.187h-11.47v57.344h11.47v-8.187h81.094v8.188h11.47v-57.344h-11.47v8.188h-21.562v-6.156h2.75v-4.062h6.125v-8.187H440.58z" filter="url(#A)"/><use xlink:href="#L" fill="red"/><g transform="scale(-1 1)" stroke="#000"><path d="M-680.982 692.84h4.24v21.205h-4.24z" fill="url(#B)" stroke-width=".3"/><path d="M-706.274 689.06h20.19v2.87h-20.19z" fill="url(#D)" stroke-width=".1"/></g><path transform="scale(-1)" d="M-715.202-714.044h4.24v21.205h-4.24z" fill="url(#E)" stroke="#000" stroke-width=".3"/><path transform="scale(-1 1)" d="M-702.996 693.594h13.632v2.433h-13.632z" fill="url(#G)" stroke="#000" stroke-width=".1"/><path d="M680.906 695.77H711v15.245h-30.104z" fill="url(#H)"/><g stroke="#000"><g stroke-width=".3"><path d="M710.96 692.84h4.24v21.205h-4.24z" fill="url(#I)"/><path transform="scale(-1)" d="M-680.982-714.044h4.24v21.205h-4.24z" fill="url(#J)"/></g><use xlink:href="#L" fill="none" stroke-width=".5"/></g><path d="M131.072 149.056a4.61 4.61 0 0 1-4.608 4.608 4.61 4.61 0 0 1-4.608-4.608 4.61 4.61 0 0 1 4.608-4.608 4.61 4.61 0 0 1 4.608 4.608z" transform="matrix(0 -.489368 3.677899 0 151.2754 758.68199)" fill="url(#K)"/></g></svg>