<svg xmlns="http://www.w3.org/2000/svg" width="445" height="445"><defs><radialGradient id="A" cx="250" cy="250" fx="250" fy="250" r="222.5" gradientTransform="matrix(0.9887639,-1.2408463e-8,4.5730757e-6,1,2.8079304,5.8629987e-6)" gradientUnits="userSpaceOnUse"><stop offset="0" stop-color="red"/><stop offset=".814" stop-color="#500"/><stop offset=".914" stop-color="red"/><stop offset="1" stop-color="maroon"/></radialGradient></defs><g stroke="#000" stroke-width="5"><path d="M372.5 362.5c-19.96 21.386-119.032-90.79-148.268-89.78S103.886 392.46 82.5 372.5s90.79-119.032 89.78-148.268S52.54 103.886 72.5 82.5s119.032 90.79 148.268 89.78S341.114 52.54 362.5 72.5s-90.79 119.032-89.78 148.268S392.46 341.114 372.5 362.5z" fill="red"/><path d="M250 30C128.56 30 30 128.56 30 250s98.56 220 220 220 220-98.56 220-220S371.44 30 250 30zm0 40c99.36 0 180 80.64 180 180s-80.64 180-180 180S70 349.36 70 250 150.64 70 250 70z" fill="url(#A)" transform="translate(-27.5 -27.5)"/><path d="M282.5 222.5c0 33.12-26.88 60-60 60s-60-26.88-60-60 26.88-60 60-60 60 26.88 60 60z" fill="#a00"/><path d="M262.5 222.5c0 22.08-17.92 40-40 40s-40-17.92-40-40 17.92-40 40-40 40 17.92 40 40z" fill="red"/></g></svg>