<svg xmlns="http://www.w3.org/2000/svg" width="344" height="344"><defs><linearGradient id="A" x1="300" y1="272.362" x2="300" y2="432.362" gradientUnits="userSpaceOnUse"><stop offset="0" stop-color="#FFFF00"/><stop offset="1" stop-color="#FFFF00" stop-opacity="0"/></linearGradient><linearGradient id="B" x1="300" y1="252.362" x2="300" y2="372.362" gradientUnits="userSpaceOnUse"><stop offset="0" stop-color="#DAA520"/><stop offset="1" stop-color="#b18282" stop-opacity="0"/></linearGradient><radialGradient id="C" gradientTransform="matrix(0.8529755,0.6823814,-0.5594402,0.6993009,265.27692,-54.181764)" cx="265.897" cy="379.094" fx="265.897" fy="379.094" r="143" gradientUnits="userSpaceOnUse"><stop offset="0" stop-color="#FFFFE0"/><stop offset=".5" stop-color="yellow"/><stop offset="1" stop-color="#DAA520"/></radialGradient></defs><g transform="translate(-128 -240.362)"><path d="M470 412.362c0 93.84-76.16 170-170 170s-170-76.16-170-170 76.16-170 170-170 170 76.16 170 170z" fill="#280b0b" stroke="#000" stroke-width="4"/><path d="M300 242.375c-74.156 0-137.253 47.55-160.47 113.813 39.447 22.098 98.938 36.188 165.47 36.188 61.9 0 117.727-12.22 156.97-31.72-21.893-68.588-86.15-118.28-161.97-118.28z" fill="url(#B)"/><path d="M440 412.362c0 77.28-62.72 140-140 140s-140-62.72-140-140 62.72-140 140-140 140 62.72 140 140z" fill="url(#C)" stroke="#000" stroke-width="6" stroke-linejoin="round"/><path d="M297.188 273.844c-61.32.778-118.303 47.357-131.594 107.156 81.2 38.038 178.93 39.097 260.938 2.906 7.333-1.347 7.948-10.966 4.297-16.132-18.693-55.29-75.062-95.282-133.64-93.93z" fill="url(#A)"/></g></svg>